<?xml version="1.0" encoding="UTF-8"?> <svg xmlns="http://www.w3.org/2000/svg" id="Layer_1" data-name="Layer 1" viewBox="0 0 200 50"><defs><style>.cls-1{fill:#1542e8;}.cls-2{fill:#4bbc81;}</style></defs><path class="cls-1" d="M125.13,28h-6.82a2.85,2.85,0,0,1,0-5.69h6.82a2.85,2.85,0,0,1,0,5.69Z"></path><path class="cls-1" d="M126.9,40.8H109.14a3,3,0,0,1-3-2.95V12.1a3,3,0,0,1,3-3h17.6a2.74,2.74,0,1,1,0,5.47H112.09V35.38H126.9a2.75,2.75,0,0,1,2.73,2.74A2.65,2.65,0,0,1,127,40.8Z"></path><path class="cls-1" d="M35.79,41.71a3.27,3.27,0,0,1-2.95-1.88L20.5,12.9a3.24,3.24,0,0,1,5.91-2.68L38.75,37.15a3.24,3.24,0,0,1-1.56,4.29h0A3.82,3.82,0,0,1,35.79,41.71Z"></path><path class="cls-1" d="M9.72,41.71a3.26,3.26,0,0,0,2.95-1.88l7.62-16.68a3.24,3.24,0,0,0-5.9-2.68L6.82,37.1a3.24,3.24,0,0,0,1.56,4.29h0A2.52,2.52,0,0,0,9.72,41.71Z"></path><path class="cls-1" d="M155.06,40.53H139.72a3.09,3.09,0,0,1-3.06-3.06V12.26a3.06,3.06,0,1,1,6.12,0V34.42h12.28a3.06,3.06,0,1,1,0,6.11Z"></path><path class="cls-2" d="M176.47,42a17,17,0,1,1,17-16.95A16.91,16.91,0,0,1,176.47,42Zm0-27.79A10.84,10.84,0,1,0,187.31,25h0A10.91,10.91,0,0,0,176.47,14.19Z"></path><path class="cls-1" d="M186.29,37.9a3,3,0,0,1-2.15-.91,3.1,3.1,0,0,1,0-4.34,10.82,10.82,0,1,0-15.29-15.3A3.07,3.07,0,0,1,164.51,13a17,17,0,0,1,24,24h0A3.14,3.14,0,0,1,186.29,37.9Z"></path><path class="cls-2" d="M190.21,41.87a3,3,0,0,1-2.15-.91L175.45,28.35a3.1,3.1,0,0,1,0-4.34,3.06,3.06,0,0,1,4.35,0h0l12.61,12.61a3.1,3.1,0,0,1,0,4.34A3.14,3.14,0,0,1,190.21,41.87Z"></path><path class="cls-1" d="M69.33,34.52a2.93,2.93,0,0,0-4.08-.64A10.95,10.95,0,0,1,52.37,16.17a11.12,11.12,0,0,1,6.44-2.09,10.78,10.78,0,0,1,6.44,2.09,2.92,2.92,0,1,0,3.43-4.72h0a16.48,16.48,0,0,0-9.81-3.16,16.79,16.79,0,1,0,0,33.58,16.48,16.48,0,0,0,9.81-3.16A3.06,3.06,0,0,0,69.33,34.52Z"></path><path class="cls-1" d="M100.23,34.52a2.93,2.93,0,0,0-4.08-.64A10.95,10.95,0,1,1,83.28,16.17a11.12,11.12,0,0,1,6.44-2.09,10.75,10.75,0,0,1,6.43,2.09,2.92,2.92,0,0,0,3.44-4.72,16.79,16.79,0,1,0-9.82,30.42,16.53,16.53,0,0,0,9.82-3.16A3,3,0,0,0,100.23,34.52Z"></path></svg> 