<?xml version="1.0" encoding="UTF-8"?> <svg xmlns="http://www.w3.org/2000/svg" viewBox="0 0 25 25"><defs><style>.cls-1{fill:#fff;}.cls-2{fill:#333;fill-rule:evenodd;}</style></defs><g id="Layer_2" data-name="Layer 2"><g id="Layer_2-2" data-name="Layer 2"><g id="contact"><circle class="cls-1" cx="12.5" cy="12.5" r="12.5"></circle><g id="contact-2" data-name="contact"><path class="cls-2" d="M8,16.21C5.62,13.1,4.2,7.47,7.67,4.64a.59.59,0,0,1,.84.1l3.12,4a.6.6,0,0,1-.1.84l-1.1.85a.6.6,0,0,0-.1.84l3.11,4a.61.61,0,0,0,.84.1l1-.81a.6.6,0,0,1,.84.1l3.12,4a.6.6,0,0,1-.13.86c-3.61,2.65-8.69-.05-11.11-3.21Z"></path></g></g></g></g></svg> 