<?xml version="1.0" encoding="UTF-8"?> <svg xmlns="http://www.w3.org/2000/svg" xmlns:xlink="http://www.w3.org/1999/xlink" id="Layer_1" data-name="Layer 1" viewBox="0 0 200 50"><defs><style>.cls-1{fill:#fff;}.cls-1,.cls-3{fill-rule:evenodd;}.cls-2{mask:url(#mask);}.cls-3{fill:#222;}.cls-4{mask:url(#mask-2-2);}.cls-5{mask:url(#mask-3);}.cls-6{mask:url(#mask-4);}</style><mask id="mask" x="16.43" y="10.13" width="57.77" height="29.83" maskUnits="userSpaceOnUse"><g id="mask-2"><polygon id="path-1" class="cls-1" points="16.43 10.13 16.43 39.96 74.2 39.96 74.2 10.13 16.43 10.13"></polygon></g></mask><mask id="mask-2-2" x="16.43" y="10.13" width="57.77" height="29.85" maskUnits="userSpaceOnUse"><g id="mask-2-3" data-name="mask-2"><polygon id="path-1-2" data-name="path-1" class="cls-1" points="16.43 10.13 16.43 39.96 74.2 39.96 74.2 10.13 16.43 10.13"></polygon></g></mask><mask id="mask-3" x="16.41" y="10.13" width="57.79" height="29.84" maskUnits="userSpaceOnUse"><g id="mask-2-4" data-name="mask-2"><polygon id="path-1-3" data-name="path-1" class="cls-1" points="16.43 10.13 16.43 39.96 74.2 39.96 74.2 10.13 16.43 10.13"></polygon></g></mask><mask id="mask-4" x="16.43" y="10.13" width="57.77" height="29.84" maskUnits="userSpaceOnUse"><g id="mask-2-5" data-name="mask-2"><polygon id="path-1-4" data-name="path-1" class="cls-1" points="16.43 10.13 16.43 39.96 74.2 39.96 74.2 10.13 16.43 10.13"></polygon></g></mask></defs><g id="_---_-Layout---Grundlayout-und-Stildefinitionen" data-name="---↳-Layout---Grundlayout-und-Stildefinitionen"><g id="_-copy-9" data-name="+-copy-9"><g id="logo_im_dark" data-name="logo im dark"><g id="Group-6"><g class="cls-2"><path id="Fill-1" class="cls-3" d="M31.3,35.11a.94.94,0,0,1-.94-.94V16a.94.94,0,1,1,1.88,0V34.17a.94.94,0,0,1-.94.94"></path></g><g class="cls-4"><path id="Fill-3" class="cls-3" d="M73.26,40a.94.94,0,0,1-.94-.94V13.34L59.94,25.62a1,1,0,0,1-1.33,0L44.91,12H38.37a.94.94,0,0,1,0-1.88H45.3a1,1,0,0,1,.66.27L59.28,23.62,72.59,10.41a.94.94,0,0,1,1-.2,1,1,0,0,1,.58.87V39a.94.94,0,0,1-.94.94"></path></g><g class="cls-5"><path id="Fill-4" class="cls-3" d="M24.3,40H17.35a.94.94,0,0,1-.94-.94v-28a.94.94,0,0,1,.94-.94h7a.94.94,0,0,1,0,1.88h-6V38.09h6a.94.94,0,0,1,0,1.88"></path></g><g class="cls-6"><path id="Fill-5" class="cls-3" d="M45.31,40H38.37a.94.94,0,0,1,0-1.88h6V18.24a.95.95,0,0,1,1.89,0V39a1,1,0,0,1-.95.94"></path></g></g><polygon id="Fill-7" class="cls-3" points="81.67 23.2 84.23 23.2 84.23 10.13 81.67 10.13 81.67 23.2"></polygon><polyline id="Fill-8" class="cls-3" points="94.91 23.2 89.73 15.18 89.73 23.2 87.18 23.2 87.18 10.13 89.46 10.13 94.64 18.13 94.64 10.13 97.19 10.13 97.19 23.2 94.91 23.2"></polyline><polyline id="Fill-9" class="cls-3" points="104.86 12.41 104.86 23.2 102.31 23.2 102.31 12.41 98.89 12.41 98.89 10.13 108.27 10.13 108.27 12.41 104.86 12.41"></polyline><polyline id="Fill-10" class="cls-3" points="109.9 23.2 109.9 10.13 118.51 10.13 118.51 12.41 112.45 12.41 112.45 15.47 117.61 15.47 117.61 17.75 112.45 17.75 112.45 20.92 118.51 20.92 118.51 23.2 109.9 23.2"></polyline><path id="Fill-11" class="cls-3" d="M128.62,21.82a5.19,5.19,0,0,1-7.22.06c-1.32-1.32-1.28-3-1.28-5.21s0-3.9,1.28-5.22A4.76,4.76,0,0,1,124.93,10a4.7,4.7,0,0,1,4.92,4.19h-2.57a2.23,2.23,0,0,0-2.35-1.91,2.14,2.14,0,0,0-1.64.69c-.49.55-.62,1.16-.62,3.68s.13,3.14.62,3.69a2.13,2.13,0,0,0,1.64.67,2.41,2.41,0,0,0,1.82-.73,2.51,2.51,0,0,0,.58-1.74v-.5h-2.4V15.93h4.94v1.91c0,1.89-.33,3-1.25,4"></path><path id="Fill-12" class="cls-3" d="M137,12.41h-2.4v3.45H137a1.73,1.73,0,1,0,0-3.45Zm2,10.79L136.39,18h-1.83V23.2H132V10.13h5.12a4,4,0,0,1,4.24,4A3.52,3.52,0,0,1,139,17.57l2.92,5.63Z"></path><path id="Fill-13" class="cls-3" d="M148.4,14l-1.65,4.75H150Zm3,9.21-.77-2.31H146l-.79,2.31h-2.66l4.76-13.07h2l4.77,13.07Z"></path><polyline id="Fill-14" class="cls-3" points="159.39 12.41 159.39 23.2 156.84 23.2 156.84 12.41 153.43 12.41 153.43 10.13 162.81 10.13 162.81 12.41 159.39 12.41"></polyline><polygon id="Fill-15" class="cls-3" points="164.44 23.2 166.99 23.2 166.99 10.13 164.44 10.13 164.44 23.2"></polygon><path id="Fill-16" class="cls-3" d="M175.38,13a2.1,2.1,0,0,0-1.63-.69,2.16,2.16,0,0,0-1.65.69c-.5.56-.63,1.16-.63,3.68s.13,3.12.63,3.67a2.16,2.16,0,0,0,1.65.69,2.1,2.1,0,0,0,1.63-.69c.5-.55.65-1.16.65-3.67S175.88,13.55,175.38,13Zm1.9,8.89a5.08,5.08,0,0,1-7.07,0c-1.32-1.32-1.29-3-1.29-5.21s0-3.9,1.29-5.22a5.08,5.08,0,0,1,7.07,0c1.32,1.32,1.3,3,1.3,5.22s0,3.89-1.3,5.21Z"></path><g id="Group-26"><polyline id="Fill-17" class="cls-3" points="188.24 23.2 183.06 15.18 183.06 23.2 180.51 23.2 180.51 10.13 182.79 10.13 187.97 18.14 187.97 10.13 190.52 10.13 190.52 23.2 188.24 23.2"></polyline><polyline id="Fill-19" class="cls-3" points="90.96 39.98 90.96 32.36 88.47 37.31 86.74 37.31 84.23 32.36 84.23 39.98 81.67 39.98 81.67 26.91 84.19 26.91 87.6 33.97 91 26.91 93.52 26.91 93.52 39.98 90.96 39.98"></polyline><path id="Fill-20" class="cls-3" d="M100.82,30.61l-1.68,4.84h3.31Zm3.1,9.37-.78-2.35H98.41L97.61,40h-2.7l4.83-13.29h2L106.63,40Z"></path><polyline id="Fill-21" class="cls-3" points="111.76 28.99 111.76 39.97 109.17 39.97 109.17 28.99 105.7 28.99 105.7 26.68 115.23 26.68 115.23 28.99 111.76 28.99"></polyline><polyline id="Fill-22" class="cls-3" points="122.17 28.99 122.17 39.97 119.57 39.97 119.57 28.99 116.1 28.99 116.1 26.68 125.64 26.68 125.64 28.99 122.17 28.99"></polyline><polyline id="Fill-23" class="cls-3" points="127.4 39.98 127.4 26.69 136.15 26.69 136.15 29 129.99 29 129.99 32.12 135.24 32.12 135.24 34.43 129.99 34.43 129.99 37.66 136.15 37.66 136.15 39.98 127.4 39.98"></polyline><path id="Fill-24" class="cls-3" d="M143.37,29h-2.44V32.5h2.44a1.76,1.76,0,1,0,0-3.51Zm2,11-2.59-5.3h-1.87V40h-2.59V26.68h5.2a4,4,0,0,1,4.31,4.07,3.59,3.59,0,0,1-2.42,3.49l3,5.72Z"></path><path id="Fill-25" class="cls-3" d="M149.35,38.2,151,36.52a4.34,4.34,0,0,0,3.21,1.12c1.53,0,2.35-.58,2.35-1.64a1.47,1.47,0,0,0-.41-1.12,2,2,0,0,0-1.18-.46l-1.6-.23a4.53,4.53,0,0,1-2.58-1.1,3.51,3.51,0,0,1-.95-2.61c0-2.37,1.75-4,4.63-4A5.65,5.65,0,0,1,158.79,28l-1.64,1.62a3.72,3.72,0,0,0-2.73-.92c-1.38,0-2,.77-2,1.68a1.31,1.31,0,0,0,.39,1,2.34,2.34,0,0,0,1.23.52l1.57.22a4.44,4.44,0,0,1,2.54,1,3.72,3.72,0,0,1,1,2.82c0,2.57-2.15,4-4.93,4A6.21,6.21,0,0,1,149.35,38.2Z"></path></g></g></g></g></svg> 