<?xml version="1.0" encoding="UTF-8"?> <svg xmlns="http://www.w3.org/2000/svg" id="Layer_1" data-name="Layer 1" viewBox="0 0 200 50"><defs><style>.cls-1{fill:#508c53;}.cls-2{fill:#cb9a3c;}.cls-3{fill:#dbbb7a;}</style></defs><path class="cls-1" d="M44.07,3.84c0,2.2,0,4.41,0,6.61,0,.21-.1.21-.26.22A13.81,13.81,0,0,0,35,13.9a13.93,13.93,0,0,0-5.18,9.51A14.27,14.27,0,0,0,41.12,39a13.85,13.85,0,0,0,12.62-3.45,14,14,0,0,0,4.58-8.94,9.74,9.74,0,0,0,.08-1.32c0-.24,0-.33.31-.33q3.12,0,6.22,0c.31,0,.35.1.35.37a20.39,20.39,0,0,1-2.12,8.88A21,21,0,0,1,48.81,45.68a19.83,19.83,0,0,1-3.43.49,1,1,0,0,1-.34,0h-1.5a1.7,1.7,0,0,0-.55,0h-.2c-.44-.07-.89,0-1.34-.1a20.22,20.22,0,0,1-5-1.22,21.12,21.12,0,0,1-6.44-3.86,21.47,21.47,0,0,1-7-12.5,14.64,14.64,0,0,1-.23-2.47c0-1.09,0-2.19.06-3.28a20.24,20.24,0,0,1,.87-4.23A21.36,21.36,0,0,1,33.91,6.27,21.59,21.59,0,0,1,41.1,3.9a13.36,13.36,0,0,1,1.41-.1c.12,0,.24,0,.35,0H43a1.56,1.56,0,0,0,.53,0A2,2,0,0,1,44.07,3.84Z"></path><path class="cls-2" d="M177.18,17.32c-.11.27-.2.54-.32.79a3.1,3.1,0,0,1-5.78-.59A3.11,3.11,0,0,1,177,15.68a2.4,2.4,0,0,1,.12.53c.05.11,0,.23.05.34Z"></path><path class="cls-3" d="M177.18,16.55c-.1-.1-.06-.22-.05-.34h.05Z"></path><path class="cls-1" d="M150.16,14.28c-.73,1-1.41,1.87-2.1,2.77l-6.81,9a.75.75,0,0,0-.14.48c0,3.07,0,6.15,0,9.22,0,.28-.06.36-.35.36-1.38,0-2.77,0-4.16,0-.29,0-.34-.09-.34-.36,0-3.08,0-6.15,0-9.23a.86.86,0,0,0-.17-.53q-4.31-5.68-8.6-11.4l-.21-.27v.39c0,1,0,2,0,3,0,.32-.06.43-.41.42h-9.2c-.28,0-.38.06-.37.36q0,2.13,0,4.26c0,.35.1.4.41.4,2.86,0,5.72,0,8.58,0,.28,0,.37.07.36.36,0,1,0,2,0,3,0,.47.06.42-.4.42h-8.55c-.31,0-.39.08-.39.39,0,2.83,0,5.66,0,8.48,0,.27,0,.35-.33.35-1.38,0-2.75,0-4.13,0-.26,0-.31-.08-.31-.32V14.62c0-.26,0-.35.33-.35h19.61a.49.49,0,0,1,.44.24c1.83,2.52,3.68,5,5.51,7.55.16.21.22.28.41,0,1.85-2.51,3.72-5,5.57-7.52a.65.65,0,0,1,.58-.29Z"></path><path class="cls-2" d="M46.2,3.83h19c0,.12,0,.24,0,.35q0,9.15,0,18.29c0,.33-.08.41-.41.41q-3.06,0-6.13,0c-.29,0-.34-.09-.34-.36,0-3.8,0-7.59,0-11.39,0-.46,0-.46-.49-.46H46.57c-.31,0-.39-.08-.39-.39,0-2,0-4.08,0-6.13C46.19,4.05,46.2,3.94,46.2,3.83Z"></path><path class="cls-1" d="M94.08,25.19c0-3.5,0-7,0-10.51,0-.31,0-.41.39-.41h14c.32,0,.39.09.38.39,0,1,0,2.05,0,3.07,0,.33-.1.37-.39.37H99.23c-.33,0-.38.09-.38.39,0,1.43,0,2.86,0,4.29,0,.26.06.34.33.34,2.88,0,5.77,0,8.65,0,.32,0,.39.1.38.4q0,1.53,0,3.06c0,.3-.09.36-.36.35H99.24c-.32,0-.39.08-.39.39,0,2.82,0,5.65,0,8.48,0,.3-.09.35-.36.35-1.37,0-2.73,0-4.1,0-.26,0-.33-.06-.33-.34C94.09,32.25,94.08,28.72,94.08,25.19Z"></path><path class="cls-1" d="M76.87,22.36q0-3.87,0-7.74c0-.27.06-.35.33-.35,1.42,0,2.84,0,4.26,0,.24,0,.31.06.31.31,0,5,0,10.06,0,15.09A7.71,7.71,0,0,1,81,33.32,5.46,5.46,0,0,1,77.05,36a16.79,16.79,0,0,1-3.88.18c-.23,0-.45,0-.68,0s-.34-.07-.34-.34c0-1.09,0-2.18,0-3.26,0-.25,0-.34.32-.32.6,0,1.2.06,1.8.09a3.29,3.29,0,0,0,.93-.11,2.06,2.06,0,0,0,1.65-2.2c0-2.18,0-4.36,0-6.54Z"></path><path class="cls-1" d="M90.33,25.2c0,3.52,0,7,0,10.55,0,.28-.06.36-.35.36-1.4,0-2.8,0-4.2,0-.23,0-.3,0-.3-.29V14.58c0-.23.05-.31.3-.31,1.39,0,2.79,0,4.19,0,.32,0,.36.11.36.38Q90.32,19.93,90.33,25.2Z"></path><path class="cls-1" d="M40.49,22.84a5.76,5.76,0,1,1-5.75,5.7A5.71,5.71,0,0,1,40.49,22.84Z"></path><path class="cls-2" d="M176.37,28.52c0,2.42,0,4.84,0,7.26,0,.27-.08.34-.34.33h-4c-.26,0-.32-.08-.32-.32q0-7.27,0-14.54c0-.27.07-.35.34-.34,1.34,0,2.69,0,4,0,.26,0,.32.08.32.33C176.36,23.66,176.37,26.09,176.37,28.52Z"></path><path class="cls-2" d="M153.24,33.13a3.1,3.1,0,1,1-3.09-3.1A3,3,0,0,1,153.24,33.13Z"></path><path class="cls-2" d="M169.78,27.22a13.22,13.22,0,0,0-.14-2,5,5,0,0,0-4.07-4.44,10.67,10.67,0,0,0-4.25-.11,14.34,14.34,0,0,0-4.71,1.59.27.27,0,0,0-.14.4c.36.86.7,1.73,1,2.6.09.22.16.28.38.15a10,10,0,0,1,2.29-1,7.81,7.81,0,0,1,3.39-.37,1.78,1.78,0,0,1,1.7,1.65,8.88,8.88,0,0,1,.05,1c0,.22-.05.29-.28.29a32.61,32.61,0,0,0-3.83.13,11.09,11.09,0,0,0-3,.65,3.49,3.49,0,0,0-2.14,2A4.74,4.74,0,0,0,157.32,35a5.92,5.92,0,0,0,4.21,1.38A4.31,4.31,0,0,0,164.64,35a6,6,0,0,0,.71-1c0,.67,0,1.24,0,1.81,0,.27.07.35.34.35,1.26,0,2.51,0,3.77,0,.27,0,.34-.06.34-.33C169.78,32.92,169.79,30.07,169.78,27.22Zm-5.49,5.16a2.78,2.78,0,0,1-2.52.67,1.92,1.92,0,0,1-1.41-2.38,1.48,1.48,0,0,1,.95-1,5.55,5.55,0,0,1,1.57-.32c.51,0,1-.06,1.54-.09h.71c.12,0,.18,0,.18.16A3.44,3.44,0,0,1,164.29,32.38Z"></path></svg> 