<?xml version="1.0" encoding="UTF-8"?> <svg xmlns="http://www.w3.org/2000/svg" xmlns:xlink="http://www.w3.org/1999/xlink" version="1.1" id="Layer_1" x="0px" y="0px" viewBox="0 0 1080 1920" style="enable-background:new 0 0 1080 1920;" xml:space="preserve"> <style type="text/css"> .st0{fill:#002171;} .st1{fill:#FFFFFF;} .st2{fill:#4D649B;} .st3{enable-background:new ;} .st4{fill:#EB1C24;} </style> <path class="st0" d="M24.4,572v882.9c0,14.8,6.8,28.8,18.4,38l458.7,362.4c14.5,11,34.5,11.2,49.2,0.6l485.7-363.3 c12-9.1,19.1-23.4,19.1-38.5V572c0-284.2-230-514.9-514.2-515.7l0,0c-284.8-0.7-516.3,229.6-517,514.4L24.4,572z"></path> <path class="st1" d="M157.6,1260.8c-9.6-5.1-17.5-12.7-23-22c-11.2-19.7-11.2-43.8,0-63.5c5.5-9.3,13.5-16.9,23.1-22 c10.1-5.4,21.4-8.1,32.8-7.9c9.2-0.1,18.4,1.6,26.9,5.1c7.9,3.3,15,8.4,20.6,14.9l-14.4,13.6c-8.1-9.1-19.8-14.3-32.1-14.1 c-7.7-0.1-15.3,1.8-22.1,5.4c-6.4,3.5-11.7,8.7-15.2,15c-7.3,13.6-7.3,30,0,43.6c3.6,6.3,8.9,11.5,15.2,15 c6.8,3.7,14.4,5.5,22.1,5.4c12.3,0.2,24-5.1,32.1-14.3l14.4,13.7c-5.7,6.5-12.7,11.6-20.7,14.9 C197.9,1271.3,176.2,1270.3,157.6,1260.8L157.6,1260.8z"></path> <path class="st1" d="M346.1,1228.1h-71.8c1.1,6.4,4.6,12.1,9.8,15.9c5.8,4.1,12.7,6.2,19.8,6c9.3,0.3,18.3-3.3,24.8-10l11.5,13.1 c-4.1,5.1-9.5,9-15.6,11.4c-15.6,5.8-32.9,5-47.9-2.3c-7.4-3.7-13.6-9.5-17.7-16.7c-4.2-7.4-6.4-15.8-6.2-24.3 c-0.1-8.4,2-16.7,6.1-24.1c3.9-7,9.8-12.8,16.9-16.7c7.4-4.1,15.8-6.2,24.3-6.1c8.4-0.2,16.7,1.9,24,5.9c6.9,3.9,12.6,9.7,16.4,16.7 C345.2,1206.7,347.2,1217.5,346.1,1228.1L346.1,1228.1z M282.8,1197.6c-4.8,4.1-7.9,9.9-8.7,16.2h52c-1.4-13.2-12.9-23-26.1-22.3 C293.6,1191.5,287.6,1193.7,282.8,1197.6z"></path> <path class="st1" d="M426.4,1174.5v20.4c-1.6-0.4-3.3-0.6-5-0.6c-7.3-0.4-14.4,2.2-19.6,7.3c-5,5.8-7.6,13.3-7.1,21v44.4h-21.4 v-91.5h20.4v13.5C400,1179.3,410.8,1174.5,426.4,1174.5z"></path> <path class="st1" d="M509.3,1262.1c-2.7,2.2-5.8,3.7-9.1,4.7c-3.7,1-7.6,1.5-11.4,1.5c-8.5,0.6-16.9-2.3-23.3-7.9 c-5.8-6.2-8.8-14.5-8.2-23v-44.1h-15.1v-17.1h15.1v-21h21.4v21h24.4v17.1h-24.4v43.6c-0.3,3.7,0.9,7.4,3.3,10.3 c2.5,2.5,6,3.7,9.5,3.5c4.3,0.2,8.5-1.2,11.9-3.8L509.3,1262.1z"></path> <path class="st1" d="M534.2,1156.7c-5.1-4.8-5.3-12.9-0.4-17.9c0,0,0,0,0,0l0.4-0.4c2.7-2.5,6.2-3.8,9.8-3.7 c3.6-0.1,7.1,1.1,9.7,3.5c2.6,2.2,4,5.4,4,8.7c0.1,7.4-5.9,13.4-13.2,13.4c-0.2,0-0.3,0-0.5,0 C540.4,1160.5,536.9,1159.2,534.2,1156.7z M533.2,1175.5h21.4v91.5h-21.4V1175.5z"></path> <path class="st1" d="M612.7,1170.7v5.4h25.2v17.1h-24.3v73.8h-21.4v-73.8H577v-17.1h15.1v-5.8c-0.4-8.6,2.7-17,8.7-23.3 c6.6-6,15.3-9,24.2-8.5c6.8-0.3,13.6,1.4,19.4,4.9l-6,16.2c-3.5-2.4-7.6-3.7-11.8-3.8C617.3,1156,612.7,1160.8,612.7,1170.7z M667,1156.7c-5.1-4.8-5.3-12.7-0.6-17.8c0,0,0,0,0,0c0.2-0.2,0.3-0.4,0.5-0.6c2.6-2.5,6.1-3.8,9.8-3.7c3.7-0.2,7.2,1.1,10,3.5 c2.6,2.2,4,5.4,4,8.7c0.1,3.6-1.3,7-3.8,9.6c-2.6,2.6-6.2,4-9.9,3.9c-3.6,0.1-7.1-1.2-9.8-3.6L667,1156.7z M666,1175.4h21.4v91.6 H666L666,1175.4z"></path> <path class="st1" d="M807.8,1228.1H736c1.1,6.4,4.6,12.1,9.8,15.9c5.8,4.1,12.7,6.2,19.8,6c9.3,0.3,18.4-3.3,24.9-10l11.5,13.1 c-4.2,5-9.5,8.8-15.6,11.1c-6.8,2.6-14,3.9-21.3,3.8c-9.2,0.2-18.4-1.9-26.6-6.1c-7.4-3.7-13.6-9.5-17.7-16.6 c-4.2-7.4-6.4-15.8-6.3-24.3c-0.1-8.4,2-16.7,6.1-24.1c3.9-7,9.8-12.8,16.9-16.6c7.4-4.1,15.8-6.2,24.3-6.1 c8.4-0.2,16.6,1.9,23.9,5.9c6.9,3.9,12.6,9.7,16.5,16.7c4.1,7.6,6.1,16.2,5.9,24.8C808.1,1223.3,808,1225.3,807.8,1228.1z M744.4,1197.6c-4.8,4.2-7.9,9.9-8.7,16.2h51.9c-1.4-13.1-12.7-22.8-25.9-22.3C755.5,1191.5,749.3,1193.6,744.4,1197.6L744.4,1197.6 z"></path> <path class="st1" d="M924.7,1139.8v127.2h-20.6v-11.9c-3.5,4.3-8,7.7-13.1,9.8c-5.5,2.3-11.5,3.4-17.4,3.3 c-8.3,0.1-16.5-1.9-23.8-5.9c-7-3.8-12.7-9.5-16.5-16.5c-8-15.4-8-33.7,0-49.2c3.9-6.9,9.6-12.6,16.5-16.5 c7.3-3.9,15.5-5.9,23.8-5.8c5.7-0.1,11.3,1,16.6,3.1c5,2,9.5,5.1,13.1,9.2v-47L924.7,1139.8z M890.2,1246.4c4.1-2.3,7.5-5.8,9.8-10 c4.8-9.5,4.8-20.7,0-30.2c-2.3-4.2-5.6-7.6-9.8-10c-8.7-4.7-19.1-4.7-27.8,0c-4.1,2.3-7.5,5.8-9.8,10c-4.8,9.5-4.8,20.7,0,30.2 c2.2,4.2,5.6,7.7,9.8,10C871.1,1251.1,881.6,1251.1,890.2,1246.4L890.2,1246.4z"></path> <path class="st1" d="M330.8,1366.5c-4.7-2.6-8.5-6.4-11.2-11c-5.4-9.7-5.4-21.6,0-31.3c2.7-4.6,6.6-8.4,11.2-10.9 c5-2.7,10.5-4,16.1-3.9c4.2,0,8.4,0.7,12.3,2.2c3.7,1.4,6.9,3.6,9.6,6.5l-4,4.1c-4.7-4.7-11.1-7.3-17.7-7.2 c-4.6-0.1-9.1,1.1-13.1,3.3c-3.8,2.1-6.9,5.2-9,9c-2.2,3.8-3.4,8.2-3.3,12.6c-0.1,4.5,1.1,8.9,3.3,12.7c2.2,3.7,5.3,6.7,9.1,8.7 c4,2.2,8.5,3.3,13.1,3.3c6.7,0.3,13.1-2.4,17.8-7.2l4,4c-2.6,3-5.9,5.3-9.6,6.6c-3.9,1.6-8.1,2.3-12.4,2.3 C341.4,1370.4,335.8,1369.1,330.8,1366.5z"></path> <path class="st1" d="M389,1367.4c-3.4-2-6.2-4.8-8.2-8.2c-4-7.4-4-16.3,0-23.7c1.9-3.4,4.8-6.2,8.2-8.1c7.3-4,16.2-4,23.5,0 c3.4,1.9,6.3,4.7,8.1,8.1c4,7.4,4,16.3,0,23.7c-1.9,3.4-4.7,6.2-8.1,8.2C405.2,1371.3,396.4,1371.3,389,1367.4z M409.4,1362.7 c2.6-1.4,4.6-3.6,5.9-6.2c2.8-5.8,2.8-12.6,0-18.3c-1.3-2.6-3.4-4.8-5.9-6.2c-5.4-3-12-3-17.4,0c-2.5,1.5-4.5,3.6-5.9,6.2 c-2.9,5.8-2.9,12.6,0,18.3c1.4,2.6,3.4,4.8,6,6.2c5.4,3,12,3,17.4,0H409.4z"></path> <path class="st1" d="M508.8,1329.3c3.5,4,5.2,9.1,4.8,14.4v26.2h-6.1v-25.5c0.3-3.9-0.9-7.7-3.4-10.7c-2.5-2.6-6-4-9.5-3.7 c-4.1-0.2-8.1,1.4-11,4.4c-2.9,3.3-4.3,7.6-4,12v23.7h-6.1v-25.5c0.3-3.9-0.9-7.7-3.4-10.7c-2.5-2.6-6-3.9-9.6-3.7 c-4.1-0.2-8.2,1.4-11.1,4.4c-2.8,3.3-4.2,7.6-4,12v23.6h-6.1v-45.2h5.8v8.2c1.6-2.7,3.9-4.9,6.7-6.3c3-1.6,6.4-2.3,9.9-2.3 c3.4-0.1,6.8,0.8,9.8,2.4c2.8,1.6,5,4.1,6.2,7.1c1.7-3,4.2-5.4,7.2-7c3.3-1.7,7-2.6,10.7-2.5C500.5,1324.2,505.3,1326,508.8,1329.3z "></path> <path class="st1" d="M568.1,1327.3c3.4,1.9,6.2,4.7,8.1,8.1c3.9,7.5,3.9,16.4,0,23.9c-1.9,3.4-4.6,6.2-8,8.1 c-3.5,1.9-7.5,2.9-11.5,2.8c-3.4,0.1-6.9-0.7-9.9-2.3c-3-1.5-5.5-3.8-7.2-6.7v25.2h-6.1v-61.8h5.8v9c1.7-2.9,4.2-5.3,7.2-6.9 c3.2-1.6,6.7-2.5,10.2-2.4C560.7,1324.4,564.6,1325.4,568.1,1327.3z M564.8,1362.7c2.6-1.4,4.7-3.6,6.1-6.2c2.9-5.8,2.9-12.6,0-18.3 c-1.4-2.6-3.5-4.7-6.1-6.2c-5.4-2.9-11.8-2.9-17.2,0c-2.5,1.5-4.6,3.6-6,6.2c-2.9,5.8-2.9,12.6,0,18.3c1.4,2.6,3.4,4.7,6,6.2 C552.9,1365.6,559.4,1365.6,564.8,1362.7z"></path> <path class="st1" d="M623.7,1328.9c3.4,3.5,5.1,8.2,4.8,13.1v27.9h-5.8v-7c-1.4,2.4-3.5,4.3-6,5.4c-2.9,1.4-6.2,2.1-9.5,2 c-4.3,0.2-8.5-1.1-12-3.6c-2.9-2.3-4.5-5.8-4.4-9.5c-0.1-3.6,1.5-7,4.4-9.2c3.8-2.6,8.4-3.9,13.1-3.5h14.3v-2.8 c0.2-3.2-1-6.4-3.2-8.7c-2.7-2.2-6.1-3.3-9.5-3c-2.8,0-5.6,0.4-8.2,1.3c-2.5,0.9-4.8,2.2-6.8,3.9l-2.8-4.3c2.5-1.9,5.3-3.4,8.3-4.4 c3.3-1.1,6.7-1.6,10.1-1.6C615.2,1324.5,619.9,1326,623.7,1328.9z M617.1,1363.2c2.5-1.6,4.4-4,5.5-6.8v-7.3h-14.2 c-7.7,0-11.5,2.7-11.5,8.1c-0.1,2.4,1,4.8,3,6.2c2.5,1.7,5.4,2.5,8.4,2.4C611.3,1365.7,614.4,1364.8,617.1,1363.2L617.1,1363.2z"></path> <path class="st1" d="M684.6,1329.4c3.6,3.9,5.4,9,5,14.3v26.2h-6.1v-25.5c0.3-3.9-1-7.8-3.5-10.7c-2.7-2.6-6.3-4-10-3.7 c-4.3-0.2-8.5,1.4-11.5,4.4c-3,3.2-4.6,7.6-4.4,12v23.7h-6.1v-45.2h5.8v8.3c1.7-2.7,4.1-4.9,6.9-6.4c3.2-1.6,6.7-2.3,10.3-2.3 C676.1,1324.2,681,1326,684.6,1329.4z"></path> <path class="st1" d="M746.4,1324.8l-22.5,50.5c-1.3,3.5-3.5,6.6-6.3,9.1c-2.5,1.8-5.6,2.7-8.7,2.7c-2.1,0-4.1-0.4-6.1-1.1 c-1.9-0.6-3.6-1.7-4.9-3.1l2.8-4.4c2.2,2.2,5.1,3.4,8.2,3.4c1.9,0,3.7-0.5,5.3-1.7c1.8-1.6,3.2-3.6,4-5.9l2-4.3l-20.1-45.1h6.4 l17,38.3l17-38.3L746.4,1324.8z"></path> <path class="st2" d="M209,1559.8l296.1,233.9c14.5,11,34.5,11.2,49.2,0.6l308.7-231c-85.2-70.8-201.2-114.6-329.4-114.6 C407.9,1448.8,293.8,1491.2,209,1559.8z"></path> <g> <g class="st3"> <path class="st1" d="M471.5,1546.2v10h-44.4v-8.3l22.6-23.3c2.2-2.2,3.9-4.3,5.2-6.4c1.3-2.1,2-3.9,2-5.5c0-2.2-0.9-3.9-2.6-5.1 c-1.7-1.2-4.1-1.8-7.1-1.8c-2.6,0-5.4,0.7-8.4,2c-3,1.3-5.8,3.1-8.4,5.5l-4.5-8.8c3.5-2.7,7.3-4.9,11.2-6.4 c3.9-1.5,7.8-2.3,11.8-2.3c3.9,0,7.4,0.6,10.5,1.9c3,1.3,5.4,3,7.1,5.4c1.7,2.3,2.5,5,2.5,8c0,2.9-1,6-3,9.3 c-2,3.3-4.8,6.8-8.4,10.5l-15.3,15.4H471.5z"></path> </g> <g class="st3"> <path class="st1" d="M526.1,1503.6c4.5,5.3,6.7,12.8,6.7,22.6c0,9.8-2.2,17.3-6.7,22.5c-4.5,5.3-10.8,7.9-19.1,7.9 c-8.3,0-14.7-2.6-19.1-7.9c-4.5-5.3-6.7-12.8-6.7-22.5c0-9.8,2.2-17.4,6.7-22.6c4.5-5.3,10.8-7.9,19.1-7.9 C515.3,1495.7,521.6,1498.4,526.1,1503.6z M496.4,1510c-2.3,3.5-3.4,8.9-3.4,16.2c0,7.3,1.1,12.7,3.4,16.2 c2.3,3.5,5.8,5.2,10.5,5.2c4.7,0,8.3-1.7,10.5-5.2c2.3-3.5,3.4-8.9,3.4-16.2c0-7.4-1.1-12.8-3.4-16.2c-2.3-3.5-5.8-5.2-10.5-5.2 C502.2,1504.8,498.7,1506.5,496.4,1510z"></path> </g> <g class="st3"> <path class="st1" d="M584.7,1546.2v10h-44.4v-8.3l22.6-23.3c2.2-2.2,3.9-4.3,5.2-6.4c1.3-2.1,2-3.9,2-5.5c0-2.2-0.9-3.9-2.6-5.1 c-1.7-1.2-4.1-1.8-7.1-1.8c-2.6,0-5.4,0.7-8.4,2c-3,1.3-5.8,3.1-8.4,5.5l-4.5-8.8c3.5-2.7,7.3-4.9,11.2-6.4 c3.9-1.5,7.8-2.3,11.8-2.3c3.9,0,7.4,0.6,10.5,1.9c3,1.3,5.4,3,7.1,5.4c1.7,2.3,2.5,5,2.5,8c0,2.9-1,6-3,9.3 c-2,3.3-4.8,6.8-8.4,10.5l-15.3,15.4H584.7z"></path> <path class="st1" d="M638.6,1546.2v10h-44.4v-8.3l22.6-23.3c2.2-2.2,3.9-4.3,5.2-6.4c1.3-2.1,2-3.9,2-5.5c0-2.2-0.9-3.9-2.6-5.1 c-1.7-1.2-4.1-1.8-7.1-1.8c-2.6,0-5.4,0.7-8.4,2c-3,1.3-5.8,3.1-8.4,5.5l-4.5-8.8c3.5-2.7,7.3-4.9,11.2-6.4 c3.9-1.5,7.8-2.3,11.8-2.3s7.4,0.6,10.5,1.9c3,1.3,5.4,3,7.1,5.4c1.7,2.3,2.5,5,2.5,8c0,2.9-1,6-3,9.3c-2,3.3-4.8,6.8-8.4,10.5 l-15.3,15.4H638.6z"></path> </g> <path class="st1" d="M505.1,1729.8c-1.6-1.7-3-3.3-4.6-4.9c-8.7-8.7-17.4-17.5-26.1-26.4c-5.6-5.7-11.4-11.3-16.7-17.4 c-6.2-7.1-10.1-15.9-11.2-25.2c-1.5-10.4,0-21,4.4-30.5c3.5-8.1,9.2-15,16.5-20c3.2-2.4,6.6-4.5,10.2-6.3c8-3.7,16.8-5.2,25.5-4.4 c11.9,0.9,23.1,5.8,31.9,13.8c0.5,0.5,1.4,0.5,1.9,0c0,0,0,0,0,0h0c4.4-2.9,9.1-5.9,13.7-8.7c4.9-2.7,10.4-4.5,16-5 c22.9-3.2,45.1,8.9,55,29.7c2,4,3.4,8.2,4.3,12.5c1.3,6.6,1.3,13.3,0,19.9c-1.9,10.4-7,20-14.4,27.6c-6.4,6.4-12.8,12.8-19.3,19.2 l-26.2,26.1l-15.2,15.2c-4.4,4.4-10.6,6.5-16.8,5.5c-4.4-0.5-8.7-2-12.4-4.4l-0.8-0.6l3.4-3.5l32.8-33c10.3-10.3,20.7-20.5,31-30.9 c3.8-3.8,7.6-7.7,11.1-11.8c8.4-10.3,9-24.9,1.4-35.8c-4.3-7-11.2-12-19.2-14c-9.1-2.4-18.7-0.4-26.1,5.2 c-4.4,3.5-8.6,7.3-12.5,11.4c-2,2-4,3.9-5.9,5.9c-0.7,0.7-1.2,0.7-1.9,0c-4-4-8-8.1-12.1-12.1c-3.8-4.1-8.3-7.3-13.5-9.4 c-12.4-4.8-26.5-1-34.9,9.4c-5.4,6.6-8.2,14.9-7.7,23.4c0.4,6.4,2.9,12.4,7.2,17.1c7,8.1,14.6,15.6,22.3,23s16,15.4,23.3,23.8 c0.5,0.3,0.6,1,0.2,1.5c-0.1,0.1-0.2,0.2-0.2,0.2c-3.8,4.6-8,8.7-12.7,12.3L505.1,1729.8z"></path> <path class="st1" d="M535.8,1700.3c-2.8-2.8-5.4-5.6-8.1-8.3c-8-8-16-16-24-24l-12.7-12.7c-3.7-4.5-3.7-10.9,0-15.4 c3.6-3.3,9-3.6,13.1-0.9c2.8,2.2,5.4,4.6,7.9,7.2c7.6,7.4,15.1,15,22.6,22.5c0.7,0.7,1.2,0.7,2,0l18.4-17.9 c3.9-3.8,7.9-7.4,11.8-11.3c3.2-3.1,8.2-3.5,11.9-1c2.8,1.7,4.8,4.5,5.4,7.8c0.5,3-0.5,6-2.8,8c-10.5,10.5-21,21-31.5,31.6 c-4.4,4.4-8.7,9.1-13.1,13.6L535.8,1700.3z"></path> </g> <circle class="st4" cx="540" cy="574.8" r="498.8"></circle> <path class="st1" d="M204.5,579.6c-0.7-185.2,152.2-338.9,341.2-336.2c185.6,2.8,333.8,155.6,331,341.2s-155.6,333.8-341.2,331 C351.9,912.8,204.5,763.2,204.5,579.6z M861,579.6c0-177.1-143.6-320.6-320.7-320.5S219.8,402.7,219.8,579.8 c0,175,140.4,317.6,315.4,320.5c177.3,2.7,323.2-138.9,325.8-316.2C861.1,582.6,861.1,581,861,579.6L861,579.6z"></path> <path class="st1" d="M163.8,787.9c2-0.4,4.1-0.7,6.1-1.3c18.4-4.7,36.8-9.3,55.1-14.1c3.3-0.9,5.7-0.7,7,2.8 c0.3,0.8,0.8,1.5,1.4,2.2c1.8,2,1.4,3.7,0,5.7c-12.5,15.9-25,31.9-37.5,47.9c-0.7,1-1.4,2-2.8,3.8c1.3-0.1,2.7-0.3,4-0.5 c19.8-5.4,39.6-10.8,59.3-16.3c2.1-0.6,3.4-0.4,4.4,1.6c2.5,4.4,5.3,8.4,8.3,13.1l-18.5,4.4c-23.5,5.5-47.1,10.8-70.6,16.4 c-2.4,1-5.1-0.1-6.2-2.4c0,0,0,0,0,0l-0.1-0.2c-1.4-2.9-4.6-5.6-4.4-8.3s3.1-5.5,5-8c9.3-12.4,18.7-24.7,28.1-37.1l1.8-2.5l-0.4-0.8 c-1.8,0.4-3.6,0.7-5.4,1.2c-16.1,3.8-32.1,7.4-47.9,11.3c-2.6,1.2-5.7,0-6.8-2.6c0,0,0,0,0,0c-0.1-0.1-0.1-0.3-0.2-0.4 c-1.4-2.8-4.4-5.4-4.4-8.1s3.1-5,4.9-7.4l48.5-64.5c1-1.3,2.2-2.7,3.6-4.4c3.2,5.1,6.3,9.7,9.2,14.6c0.4,0.6-0.5,2.2-1.2,3 c-9.4,11.6-18.8,23.3-28.2,34.9l-10.3,12.6c-0.7,0.9-1.3,1.9-1.9,2.8L163.8,787.9z"></path> <path class="st1" d="M138.9,429.8l60.5,28.3l-7.1,15.4l-20.1-9.3c-20.4-9.5-40.7-19.1-61-28.5c-2.5-1.2-3.4-2.1-1.9-4.8 c2.1-3.9,3.9-8,5.7-12.1c0.7-1.8,2.4-3.1,4.4-3.4c13.9-2.6,27.9-5.3,41.8-8.1c4.4-0.9,4.4-1.1,2.3-4.9c-7-12.6-14-25.2-20.9-37.9 c-0.5-1.4-0.5-3,0-4.4c1.7-4.1,3.8-8,5.5-12.1c1.1-2.8,2.4-3.1,5.1-1.8c20,9.5,40,18.8,60.1,28.1c6.1,2.8,12.2,5.8,18.3,8.7 c2.1,1,2.4,2,1.4,4c-2.1,4-3.9,8.1-6,12.6l-60.6-28.5l-0.7,0.6c0.3,0.9,0.7,1.8,1.1,2.7c6.8,12.9,13.7,25.7,20.6,38.5 c2.3,4.4,1.6,5.7-3.2,6.6l-42,8.2c-1.1,0.2-2.2,0.5-3.2,1L138.9,429.8z"></path> <path class="st1" d="M917,474.8c-19.4-0.5-32.5-9.3-40.1-25.6c-5.4-11.8-9.6-24.1-14.5-36.2c-0.9-2.4,0.4-3.1,2.2-3.8l39.2-15.2 l40.1-15.4c4.6-1.7,4.7-1.8,6.4,2.7c4.4,11.6,9.5,23.1,13.1,34.9c7.7,25.1-5.2,45.5-27.7,54.6c-3.1,1.3-6.4,2.2-9.7,2.9 C923,474.2,920,474.6,917,474.8z M914.3,457.9c6.5,0.1,12.9-1.3,18.6-4.4c13.5-6.2,19.8-21.9,14.2-35.6c-2-5.6-4.4-11.1-6.4-16.7 c-0.9-2.5-2.1-2.7-4.3-1.8c-7.7,3.1-15.6,6.1-23.3,9.1l-27.2,10.7c-1.3,0.6-3.1,0.9-2.2,3.1c2.9,7,5.3,14.3,8.7,21 C896.2,452,904.8,457.7,914.3,457.9L914.3,457.9z"></path> <path class="st1" d="M925.1,337c-4,3-7.8,5.9-11.9,8.7c-0.4,0.3-2.2-0.4-2.7-1c-6.3-8.3-12.5-16.7-18.7-25.1 c-3.1-4.4-6.3-8.3-9.3-12.5c-1.5-2.2-2.8-2.1-4.7-0.6c-4.1,3.2-8.3,6.3-12.5,9.3c-2.1,1.5-2.1,2.7-0.7,4.8 c8.5,11.2,16.9,22.6,25.3,33.9c1,1.3,1.8,2.6,2.9,4.4c-3.9,2.9-7.5,5.8-11.4,8.4c-0.5,0.3-2.3-0.7-2.9-1.4 c-6.5-8.7-12.7-17-19.1-25.6c-2.5-3.4-5.2-6.7-7.5-10.2c-1.5-2.2-2.7-2.2-4.7-0.6c-3.7,3-7.6,5.7-11.5,8.7s-3.4,2.6-0.8,6.1 c9.2,12.4,18.3,24.7,27.5,37.1l1.1,1.7l-13.1,9.9L809.2,337l15.5-11.6l55.6-41.3c3.6-2.7,3.6-2.8,6.4,0.9l37.1,49.8 C924.3,335.5,924.7,336.3,925.1,337z"></path> <path class="st1" d="M243.4,251.5c26.8,0.3,50.9,24.6,50.3,51c-0.3,15.2-7.9,26.8-19.1,36.2c-19.1,16.1-43.6,15-62.4-2.8 c-12.5-10.8-18.6-27.2-16.2-43.6C199.1,270.6,221.5,251.3,243.4,251.5z M211.4,295.8c0,19.9,17.2,37.4,34.3,37.7 c13.1,0.2,21.8-7.1,28.1-17.4c4-6.4,4.9-14.2,2.6-21.3c-2.5-8.3-7.8-15.4-14.9-20.3c-9.9-7-20.6-9.7-31.8-3.7 S211.8,285.7,211.4,295.8L211.4,295.8z"></path> <path class="st1" d="M684.7,247.5c-22.8-0.3-50.5-15.9-50.2-46.8c0.4-28,21.8-51.6,47.5-51.2c24.9,0.4,49.5,17.4,49.3,47.2 C731.1,224.6,710.3,247.5,684.7,247.5z M714.9,198.6c0.6-28.5-28.6-39.2-43.6-30.9c-12.8,6.7-20.5,20.1-19.9,34.5 c-0.3,24.7,29.3,34.9,43.6,27.2C706.6,223.3,714.1,211.7,714.9,198.6L714.9,198.6z"></path> <path class="st1" d="M367.3,902.9c12.3,5.2,24,10.2,35.7,14.9c6.9,2.3,13.1,6.4,18,11.7c7.6,9.3,8.7,22.2,2.8,32.6 c-4.6,10.4-15.6,16.4-26.8,14.9c-3.6-0.3-3.8,0-2.6,3.5c3.7,10.8,7.5,21.8,11.2,32.6c0.3,0.9,0.6,1.8,1.1,3.6 c-6.5-2.7-12.2-5-17.9-7.6c-0.7-0.3-1.1-1.8-1.5-2.7c-3.8-10.9-7.3-21.8-11.2-32.6c-0.8-1.7-2.1-3.1-3.8-3.9c-3-1.6-6.5-2.6-9.6-4.1 s-3.7-0.5-4.6,1.9c-2.9,7.3-6,14.4-8.7,21.8c-1,2.5-2.1,3-4.4,1.8c-3.7-1.8-7.6-3.2-11.9-5L367.3,902.9z M411.1,947.6 c0.3-5.9-3.2-11.4-8.7-13.5c-7.7-3.5-15.6-6.5-23.4-9.8c-1.6-0.7-2.6-0.4-3.3,1.3c-3.2,7.8-6.4,15.4-9.4,23.2c-0.2,1,0.2,2.1,1,2.8 c8.3,3.5,16.5,7.2,25,10c7.5,2.5,15.6-1.4,18.1-8.9c0.5-1.6,0.8-3.2,0.8-4.9L411.1,947.6z"></path> <path class="st1" d="M334.4,901c-0.6,26.4-23.7,49.8-48.2,48.9s-47.1-23.1-46.5-46.6c0.6-26.2,23.8-49.1,49-48.4 C313,855.5,335,877.7,334.4,901z M285.8,934.5c6.4-0.1,12.6-2.4,17.4-6.5c9.7-7,15.4-18.3,15.1-30.2c-0.6-17.4-24.8-37.1-46.3-22.2 c-10.4,6.5-16.8,17.9-16.7,30.2C255.7,920.7,270.9,934.5,285.8,934.5L285.8,934.5z"></path> <path class="st1" d="M850.4,775.8c10.2-19.8,20.2-39.6,30.5-59.5c4.3,2.1,7.9,4.1,11.7,5.9c2.2,1,2,2.2,1.1,4 c-6.6,12.7-13.1,25.4-19.6,38.2c-2.2,4.4-2.2,4.4,2,6.5s8.2,4.1,12.2,6.3c2.1,1.2,3.2,0.8,4.4-1.4c6.5-12.8,13-25.5,19.6-38.2 c0.4-0.8,0.9-1.5,1.5-2.6c4,2,8,4,11.9,6c2,1.1,0.7,2.4,0,3.6l-18.8,36.8c-2.1,4.1-2,4.1,2,6.2s8,3.9,11.8,6.2 c2.3,1.3,3.3,0.6,4.4-1.6c6.6-13.1,13.4-26.2,20.2-39.2c0.4-0.9,1-1.7,1.6-2.8l14.2,7.2l-3.4,6.6c-8.7,16.7-17.1,33.4-25.6,50.1 c-1.1,2.2-2,2.8-4.3,1.6c-25-13.1-50-25.6-75-38.4C851.7,776.8,851,776.3,850.4,775.8z"></path> <path class="st1" d="M353.8,181.2c-2.4,3.7-4.8,7.4-7.3,10.9c-0.8,0.7-2,0.9-3,0.6c-12-2.9-24.6,1.4-32.2,11.2 c-3.2,3.7-3.6,9-1,13.1c2.5,4,7.5,5.6,11.8,3.9c7.7-2.3,15.1-5.4,22.8-7.7c4.4-1.4,9-2.3,13.7-2.5c12.8-0.5,23.9,8.5,26.1,21.1 c2,8.4-0.3,17.3-6.1,23.7c-11.7,13.1-26.1,21.5-44.2,21.2c-5.9-0.3-11.5-2.2-16.2-5.7c-1.6-1.1-1.9-2-0.8-3.7c2.1-3,4-6.2,6.1-9.2 c0.4-0.6,2-1.2,2.5-0.9c12.2,6.9,23.1,3,33.3-4.4c3.3-2.4,6-5.6,8.1-9.1c3.1-5.3,1.2-12.2-4.1-15.2c-1.8-1.1-3.9-1.6-6.1-1.5 c-5.9,0.8-11.8,2.3-17.4,4.4c-5.9,1.7-11.7,4.1-17.7,5.2c-10.6,2.9-21.8-2.1-26.7-12c-5.2-9.2-4-20.7,3-28.5 c8.7-11,21.4-18.2,35.4-19.8C340.8,175.3,348,177,353.8,181.2z"></path> <path class="st1" d="M130.9,625.1l-9-8.4c-9-7.5-17.1-16.1-24.2-25.4c-4.2-5.8-6.1-12.9-5.3-20c1.4-10.8,11.2-18.5,22-17.1 c6.1,0.8,11.5,4.3,14.6,9.6c0.5,0.8,1,1.7,1.8,2.9c0.6-0.6,1.2-1.3,1.7-2c4.8-9.1,15.9-13.1,25.4-9c9.1,4.3,13.9,14.4,11.5,24.1 c-2.4,8.7-7.4,16.6-14.2,22.5c-7.5,7.5-15.3,14.7-23.1,22C131.7,624.6,131.3,624.8,130.9,625.1z"></path> <path class="st1" d="M949.5,625.7c-7-6.5-13.5-12.2-19.5-18.4c-5.4-5.3-10.4-11-14.9-17.1c-5.8-7.3-6.8-17.2-2.6-25.5 c5-9.7,16.9-13.4,26.5-8.4c3,1.5,5.5,3.8,7.4,6.6c0.8,1.1,1.5,2.3,2.6,4c0.8-1.2,1.3-2,1.9-2.9c4.4-7.6,13.3-11.4,21.8-9.3 c8.4,1.9,14.6,9.2,15.1,17.8c0.8,7.4-1.5,14.7-6.5,20.3C971.1,603.9,960.3,614.6,949.5,625.7z"></path> <path class="st1" d="M834.9,929.8c-4.7,3.2-9.1,6.3-13.6,9.2c-0.9,0.2-1.9,0-2.6-0.5c-4-2.4-7.8-5-11.9-7.2c-1.4-0.7-3-0.7-4.4,0 c-11.9,7.9-23.8,15.9-35.5,24.1c-1,1-1.6,2.3-1.4,3.7c0.5,4.4,1.3,8.4,2,12.5c0.7,2.1-0.3,4.4-2.3,5.4c-3.8,2.3-7.4,4.9-11.5,7.7 c-0.4-1.6-0.8-2.7-1-3.9c-4.5-25-8.9-49.9-13.3-74.9c-0.9-5.2-1.7-10.3-2.7-15.4c-0.5-1.6,0.1-3.3,1.6-4.1c3.8-2.4,7.5-4.9,11.1-7.5 c1.2-0.9,2.8-0.9,4,0c26.6,16.5,53.3,33,80,49.4C833.8,928.9,834.3,929.5,834.9,929.8z M755.1,898.5l-1,0.7 c2.5,13.5,5.1,26.9,7.7,41.2l28.7-19.5L755.1,898.5z"></path> <path class="st1" d="M552.4,1036c-1-8-1.9-15.5-2.7-23.1c-2.2-20.8-4.4-41.6-6.5-62.5c-0.3-3.2,0.5-4,3.6-4.4 c13.3-1.3,26.5-2.9,39.8-4.1c12.9-1.7,25.4,5.1,31.1,16.8c6,12,4.1,26.5-4.9,36.4c-5.9,5.9-13.7,9.4-22,9.9c-7,0.7-14,1.5-21,2.1 c-2.9,0.3-4.3,1.2-3.7,4.4c1,6.5,1.4,13.1,2.2,19.7c0.2,2-0.3,3-2.5,3.1C561.5,1034.9,557.2,1035.4,552.4,1036z M567.1,992.7 c8.3-0.9,16.3-1.6,24.2-2.7c8.7-1.1,14.8-9,13.7-17.7c0,0,0,0,0,0c-0.6-8.8-8.3-15.5-17.1-14.9c0,0,0,0,0,0h-0.3 c-8,0.7-16,1.7-23.9,2.5c-2.3,0.3-3.1,1.2-2.8,3.6c1,8.7,1.9,17.4,2.8,26.2c0.4,2.5,1.2,3.8,3.5,3L567.1,992.7z"></path> <path class="st1" d="M469.6,938.5l-5.1,36.5l0.9,0.5c0.9-0.6,1.8-1.2,2.7-1.9c11.2-9.3,22.5-18.7,33.6-28.2c1.5-1.4,3.6-2,5.6-1.6 c5.5,0.9,10.9,1.6,17.2,2.5c-2.3,2-4.1,3.6-6,5c-12.1,10-24.3,20-36.6,29.8c-2.7,2.2-2.7,3.7-0.8,6.3c11.2,15.5,22.3,30.9,33.4,46.5 l1.1,1.7c-1.9,0.1-3.8-0.1-5.6-0.4c-4.4-0.6-8.7-1-12.9-1.9c-1.6-0.5-3-1.6-3.9-2.9c-9.3-13.1-18.5-26.2-27.7-39 c-0.6-0.9-1.3-1.7-2.4-3.3c-0.4,1.3-0.7,2.6-1,4c-1.6,10.7-3.2,21.4-4.4,32.2c-0.4,2.9-1.5,3.6-4.4,2.9c-3-0.7-6-1.2-9-1.3 c-2.8,0-3.4-1.2-3-3.8c2.1-14.2,4.1-28.3,6.1-42.5c1.8-13,3.7-26,5.5-39c0.6-4.4,0.7-4.4,4.9-3.7L469.6,938.5z"></path> <path class="st1" d="M778.3,190c4.7,3.6,8.7,6.9,13.1,10.2c1.6,1.2,1.3,2.4,0.9,4c-4.8,15.9-9.6,32-14,47.7c-2,6.9-4.1,13.7-6,20.6 c-0.3,1.3-0.6,2.7-0.7,4c1.6-0.7,2.4-1.1,3.2-1.6c20.2-12.2,40.5-24.4,60.7-36.6c1.8-1.5,4.5-1.4,6.1,0.4c3.7,3.2,7.7,6,11.9,9.3 c-1,0.8-1.7,1.4-2.5,1.8c-27.6,15.8-55.1,31.6-82.5,47.4c-1.6,1.2-3.8,1.1-5.2-0.4c-3.2-2.7-6.4-5.1-9.8-7.6 c-1.3-0.8-1.9-2.4-1.3-3.8c8.4-30.8,16.8-61.5,25.1-92.3C777.4,192,777.8,191,778.3,190z"></path> <path class="st1" d="M850.7,805.3c0.3,7,0,6.8-5.7,8.7c-12.9,3.8-22.1,15.2-23.2,28.6c-1.2,11.9,4.8,21.2,14.2,28 c17.4,12.5,39.4,5.4,47.2-15.2c1.2-3.4,1.9-6.9,2.3-10.4c0.3-2.1,1-2.8,3-2.8c3.4,0,6.7-0.2,10.1-0.7c2.4-0.3,3,0.6,3,2.8 c-0.3,11.8-5,23-13.1,31.5c-10.1,11.2-22.1,18.2-37.8,17.1c-25.9-2.5-45.5-24.4-45.3-50.3c0.7-20.7,19.7-41.6,40.3-44.3 c4.3-0.6,4.3-0.5,4.7,4C850.6,803.7,850.7,805,850.7,805.3z"></path> <path class="st1" d="M440.2,233.1c-0.6-0.9-1-1.9-1.4-2.9c-3.2-11.9-6.3-23.7-9.2-35.6c-2.9-11.2-5.9-22.4-8.7-33.7 c-0.6-2.5-1.7-2.8-3.9-2.2c-7.5,2-15.1,3.9-22.6,6c-2.3,0.6-3.4,0.2-3.9-2.2c-0.7-3.1-1.5-6.2-2.6-9.2c-0.8-2.4,0-3,2.2-3.5 c19.7-5.1,39.2-10.3,59.2-15.4c3.3-0.8,6.5-1.6,9.8-2.6c1.6-0.5,2.4,0,2.8,1.6c0.9,3.5,1.8,6.9,2.7,10.4c0.5,1.8,0,2.5-1.9,3 c-7.5,1.9-14.9,3.9-22.4,5.8c-2.8,0.7-4,1.5-3.1,4.9c5.9,21.8,11.5,44.1,17.4,66.1c0.4,1.2,0.7,2.5,0.9,3.8c0,0.7-0.5,1.8-1,2 C450,230.6,445.5,231.8,440.2,233.1z"></path> <path class="st1" d="M568.3,126.6l-2.3,24.7c-1.6,16.3-3.1,32.6-4.7,48.9c-0.3,2.6,0.5,3.6,3.3,3.9c13.7,1.1,27.4,2.6,41.1,3.8 c2.6,0,3.7,0.8,3.1,3.8c-0.5,3.1-0.8,6.2-0.9,9.3c0,2-0.8,2.8-3,2.6c-19.7-1.9-39.5-3.8-59.3-5.6c-2.3-0.2-2.9-1.1-2.7-3.3 c2.4-25,4.8-50.1,7.2-75.1c0.4-4,0.8-8,1.1-12c0-1.4,0.5-2.5,2.3-2.3L568.3,126.6z"></path> <path class="st1" d="M650.1,928.4c2.1,5.9,4.4,11.6,6.3,17.4l17.4,49c1.5,4.1,1.5,4.1,5.5,2.7l36.5-13.1l3.4-1.2 c1.5,4.3,3.1,8.4,4.4,12.6c-0.4,1.1-1.2,2-2.2,2.4c-12.6,4.7-25.3,9.2-37.9,13.7l-18.4,6.6c-2.1-5.8-4.3-11.2-6.1-16.7 c-7.7-21.6-15.5-43.3-23.3-64.9c-0.8-2.2-0.6-3.3,1.7-4.1C641.7,931.5,645.7,929.9,650.1,928.4z"></path> <path class="st1" d="M907,715c-13.1,0.1-23.8-10.4-23.9-23.4c0,0,0,0,0,0V691c-0.9-13.2,9-24.7,22.2-25.6c13.2-0.9,24.7,9,25.6,22.2 c0.1,1.1,0.1,2.3,0,3.4c0.2,13-10.2,23.8-23.2,24c0,0,0,0,0,0H907z M927.4,691.3c0-11.2-9-20.4-20.3-20.4s-20.4,9-20.4,20.3 s9,20.4,20.3,20.4c0,0,0,0,0,0h0C918.2,711.5,927.2,702.5,927.4,691.3L927.4,691.3z"></path> <path class="st1" d="M452.8,769.4c-4.4-4.7-8.7-9.3-13.1-13.8c-24.8-25-49.8-49.9-74.6-75c-16-16.2-32.3-32.2-47.5-49.1 c-17.6-20.1-28.6-45.1-31.8-71.6c-4.5-29.5-0.4-59.6,11.7-86.9c10-22.9,26.2-42.5,46.8-56.6c9.1-6.8,18.8-12.8,29-17.9 c22.7-10.2,47.7-14.2,72.4-11.8c33.6,2.6,65.4,16.4,90.2,39.2c1.3,1.6,3.7,1.9,5.3,0.6c0,0,0,0,0,0l0.2-0.2 c12.8-8.3,25.6-16.7,38.7-24.5c14-7.8,29.4-12.7,45.4-14.3c64.8-8.8,127.8,25.2,155.9,84.2c5.6,11.3,9.8,23.2,12.6,35.4 c3.8,18.7,3.8,38,0,56.7c-5.5,29.6-19.8,56.8-41,78.1c-18,18.3-36.4,36.3-54.6,54.5l-73.9,73.9c-14.5,14.4-28.9,28.7-43.1,43 c-12.5,12.5-30.3,18.3-47.8,15.5c-12.6-1.5-24.6-5.8-35.3-12.6c-0.8-0.5-1.5-1.1-2.2-1.7c3.3-3.4,6.5-6.8,9.7-10.1 c30.9-31.2,61.9-62.4,92.8-93.6c29.2-29.2,58.7-58.3,87.8-87.6c10.8-10.9,21.8-21.8,31.6-33.6c23.7-27.8,25.3-70.2,4.1-101.6 c-13.4-19.8-31.1-34.1-54.5-39.6c-25.7-6.7-53-1.2-74.1,14.8c-12.5,9.9-24.3,20.7-35.1,32.4c-5.6,5.6-11.3,11.1-16.8,16.8 c-2,2-3.4,1.9-5.3,0c-11.3-11.5-22.7-23-34.2-34.2s-23.1-21.3-38.1-26.7c-34.2-12.3-73.2-5.2-98.5,26.8 c-15.4,18.6-23.2,42.3-21.8,66.4c1.1,18,8.3,35.1,20.4,48.5c19.9,22.9,41.4,44.1,63.2,65.4c22.6,21.8,45.3,43.6,66,67.4 c1.4,1.1,1.6,3.1,0.4,4.5c-0.1,0.2-0.3,0.3-0.4,0.4c-10.7,12.9-22.8,24.6-36.1,34.9L452.8,769.4z"></path> <path class="st1" d="M539.9,686c-7.8-8-15.2-15.9-22.9-23.5c-22.7-22.7-45.5-45.4-68.2-68c-12-12-24-24-36-36.1 c-10.7-12.6-10.7-31,0-43.6c7.4-7.5,25-12.2,37.2-2.6c7.8,6.4,15.2,13.2,22.3,20.3c21.5,21.1,42.8,42.4,64.1,63.8 c2.1,2.1,3.5,2.1,5.6,0c17.4-17,34.9-33.9,52.3-50.7c11.1-10.7,22.4-21.1,33.3-32c9.2-8.8,23.2-10.1,33.8-3 c8,4.7,13.6,12.6,15.3,21.8c1.6,8.4-1.4,17-7.8,22.7c-29.7,29.8-59.4,59.6-89.2,89.4c-12.6,12.7-24.8,25.8-37.2,38.7 C541.8,684.3,540.9,685.2,539.9,686z"></path> <path class="st1" d="M913.4,706.8c-7.1-3.4-14.3-6.9-21.4-10.5c-0.6-0.7-0.9-1.6-0.6-2.5c1.5-3.5,3.1-6.9,5-10.2 c1.7-3.6,5.8-5.4,9.6-4.4c3.7,1,6.2,4.3,6.2,8.1c0.1,0.6,0.2,1.3,0.4,1.9l10.3-2.5c-0.4,2.8-1.4,4.4-4,5.1c-2.4,0.3-4.7,0.9-6.8,1.9 c-1.6,1.1-2.9,2.6-3.7,4.4c0.8,1.1,1.8,2.1,3,2.8C915.8,703.5,915.9,703.5,913.4,706.8z M908.2,688.9c0-4-3.4-6.6-6.1-5.1 c-1.5,1-2.7,2.4-3.5,4c-3.1,5.8-2.6,6.9,3.7,8.7c0.7,0,2,0,2.3-0.3c1.5-2.4,2.7-5.1,3.7-7V688.9z"></path> </svg> 