<?xml version="1.0" encoding="UTF-8"?> <svg xmlns="http://www.w3.org/2000/svg" id="Layer_1" data-name="Layer 1" viewBox="0 0 200 50"><defs><style>.cls-1{fill:#54565b;}.cls-2{fill:#009c4d;}.cls-3{fill:#4a4d4d;}</style></defs><path class="cls-1" d="M55.4,24.32A10.31,10.31,0,1,1,45.09,14,10.3,10.3,0,0,1,55.4,24.32M64.3,39.5a1,1,0,0,0-.1-1.45l-4.29-3.74a17.87,17.87,0,1,0-14.82,7.86,18,18,0,0,0,9.78-2.91l4.7,4.1a1,1,0,0,0,1.46-.1Zm12,1.43V7.68a1.19,1.19,0,0,0-1.21-1.21H69.76a1.19,1.19,0,0,0-1.21,1.21V40.93a1.19,1.19,0,0,0,1.21,1.21h5.36a1.17,1.17,0,0,0,1.21-1.21M89.47,11.05V7.61a1.14,1.14,0,0,0-1.16-1.16H83.17A1.14,1.14,0,0,0,82,7.61v3.44a1.14,1.14,0,0,0,1.16,1.17h5.14a1.11,1.11,0,0,0,1.16-1.17m.22,29.88v-24a1.19,1.19,0,0,0-1.21-1.21H83.24A1.19,1.19,0,0,0,82,16.92v24a1.19,1.19,0,0,0,1.21,1.21h5.24a1.17,1.17,0,0,0,1.21-1.21M112.2,26.21a1.62,1.62,0,0,1,.22-1.92l7.39-7.66c.85-.87-.36-.87-.36-.87h-6.91a3.16,3.16,0,0,0-2.06.87l-6.87,7.28c-.82.87-.82-.34-.82-.34V7.66a1.19,1.19,0,0,0-1.21-1.21H96.34a1.14,1.14,0,0,0-1.17,1.16v33.3a1.19,1.19,0,0,0,1.22,1.21h5.19A1.14,1.14,0,0,0,102.74,41V35.11a3,3,0,0,1,.9-2l2.45-2.3,6.16,10.33a2.29,2.29,0,0,0,1.84,1h6.52c1.22,0,.59-1,.59-1Z"></path><path class="cls-2" d="M161.28,24.15A12.59,12.59,0,1,1,148.7,11.56a12.57,12.57,0,0,1,12.58,12.59m10.48,15.74L166,35.09a20.54,20.54,0,1,0-5.55,5.82l6.11,5.14a1.17,1.17,0,0,0,1.67-.15l3.64-4.34a1.13,1.13,0,0,0-.12-1.67"></path><path class="cls-1" d="M140.6,24.15a8.08,8.08,0,1,1,8.07,8.08,8.07,8.07,0,0,1-8.07-8.08"></path><path class="cls-3" d="M170,9.57h.6c.37,0,.61-.07.61-.48s-.27-.49-.61-.49H170Zm0,1.48h-.3V8.31h1a.73.73,0,0,1,.82.75.68.68,0,0,1-.65.76l.75,1.21h-.36l-.73-1.21H170v1.23Zm.5-3.29a1.86,1.86,0,0,0-1.86,1.94,1.87,1.87,0,1,0,3.73,0,1.88,1.88,0,0,0-1.87-1.94M168.29,9.7a2.24,2.24,0,1,1,2.23,2.23,2.25,2.25,0,0,1-2.23-2.23"></path></svg> 