<?xml version="1.0" encoding="UTF-8"?> <svg xmlns="http://www.w3.org/2000/svg" xmlns:xlink="http://www.w3.org/1999/xlink" id="Layer_1" data-name="Layer 1" viewBox="0 0 200 50"><defs><style>.cls-1{fill:url(#linear-gradient);}.cls-2{fill:url(#linear-gradient-2);}.cls-3{fill:url(#linear-gradient-3);}.cls-4{fill:#333;}.cls-5{fill:#babcbe;}.cls-6{fill:#f05e27;}</style><linearGradient id="linear-gradient" x1="40.11" y1="-874" x2="81.1" y2="-874" gradientTransform="translate(0 899)" gradientUnits="userSpaceOnUse"><stop offset="0" stop-color="#fbd900"></stop><stop offset="0.03" stop-color="#face03"></stop><stop offset="0.17" stop-color="#f6aa0d"></stop><stop offset="0.3" stop-color="#f28b16"></stop><stop offset="0.45" stop-color="#ef741d"></stop><stop offset="0.6" stop-color="#ed6321"></stop><stop offset="0.77" stop-color="#ec5924"></stop><stop offset="0.99" stop-color="#ec5625"></stop><stop offset="1" stop-color="#ec5625"></stop></linearGradient><linearGradient id="linear-gradient-2" x1="42.06" y1="-860.16" x2="69.65" y2="-860.16" gradientTransform="translate(0 899)" gradientUnits="userSpaceOnUse"><stop offset="0.28" stop-color="#fff" stop-opacity="0"></stop><stop offset="0.79" stop-color="#080506" stop-opacity="0.12"></stop><stop offset="0.91" stop-color="#080506" stop-opacity="0.23"></stop></linearGradient><linearGradient id="linear-gradient-3" x1="71.25" y1="-861.26" x2="81.1" y2="-861.26" gradientTransform="translate(0 899)" gradientUnits="userSpaceOnUse"><stop offset="0.11" stop-color="#080506" stop-opacity="0.23"></stop><stop offset="0.24" stop-color="#080506" stop-opacity="0.2"></stop><stop offset="0.88" stop-color="#fff" stop-opacity="0"></stop></linearGradient></defs><path class="cls-1" d="M80.15,39.15a12.71,12.71,0,0,0-2.91-2.46,28.36,28.36,0,0,0-6-3.1L61.59,6.92a5.61,5.61,0,0,0-.77-1.5,3.64,3.64,0,0,0-6.09,0A5.46,5.46,0,0,0,54,6.92L40.18,44.85a1,1,0,0,0,.61,1.31A1,1,0,0,0,42,45.81a.57.57,0,0,0,.08-.13,23.73,23.73,0,0,1,26-11h0c.55.15,1.09.31,1.61.49l1.77,4.87h0s.71,1.91,1.23,3.2a4.36,4.36,0,0,0,3.08,2.82,3.86,3.86,0,0,0,.89.1A4.59,4.59,0,0,0,79.74,45a4.14,4.14,0,0,0,1.36-3A4.49,4.49,0,0,0,80.15,39.15ZM49.51,35.49a26,26,0,0,0-5.19,4L55.92,7.54a4.52,4.52,0,0,1,.5-1,1.59,1.59,0,0,1,2.19-.53,1.55,1.55,0,0,1,.52.53,4.13,4.13,0,0,1,.51,1l9.14,25.25A25.8,25.8,0,0,0,49.51,35.49Zm28.82,8a2.41,2.41,0,0,1-2.15.65,2.37,2.37,0,0,1-1.63-1.58c-.48-1.23-1.16-3-1.2-3.15L72.2,36.2a27.79,27.79,0,0,1,3.91,2.2,10.76,10.76,0,0,1,2.44,2A2.23,2.23,0,0,1,78.33,43.46Z"></path><path class="cls-2" d="M62.45,32a25.67,25.67,0,0,0-18.13,7.46l-.31.84-1.95,5.36a23.73,23.73,0,0,1,26-11h0c.55.15,1.09.31,1.61.49l-.87-2.41A25.47,25.47,0,0,0,62.45,32Z"></path><path class="cls-3" d="M80.15,39.15a12.71,12.71,0,0,0-2.91-2.46,28.36,28.36,0,0,0-6-3.1l.94,2.61h0a28.47,28.47,0,0,1,3.92,2.2,10.71,10.71,0,0,1,2.43,2,2.39,2.39,0,0,1,.51,1.48h2A4.45,4.45,0,0,0,80.15,39.15Z"></path><path class="cls-4" d="M81.5,20H80.41l-1.06-2.38h-4.9L73.38,20h-1l4.11-9.07h1Zm-4.59-7.88-2,4.59H79Z"></path><path class="cls-4" d="M89.43,16.15a5.15,5.15,0,0,1-.27,1.74,3.2,3.2,0,0,1-.77,1.24,3.08,3.08,0,0,1-1.18.76,4.73,4.73,0,0,1-1.54.25,4.61,4.61,0,0,1-1.52-.25A3.3,3.3,0,0,1,83,19.14a3.19,3.19,0,0,1-.76-1.23,4.81,4.81,0,0,1-.27-1.68V11h1v5.18a3.23,3.23,0,0,0,.73,2.25,3,3,0,0,0,4,0,3.07,3.07,0,0,0,.73-2.22V11h1v5.16Z"></path><path class="cls-4" d="M94.46,20h-1V11.94h-3V11h7.07v.94h-3Z"></path><path class="cls-4" d="M106.51,17.26a4.5,4.5,0,0,1-2.39,2.51,4.88,4.88,0,0,1-3.75,0A4.51,4.51,0,0,1,98,17.29a5,5,0,0,1-.33-1.78A4.9,4.9,0,0,1,98,13.73a4.5,4.5,0,0,1,2.39-2.51,4.83,4.83,0,0,1,3.75,0,4.46,4.46,0,0,1,2.38,2.48,4.75,4.75,0,0,1,.32,1.78A4.89,4.89,0,0,1,106.51,17.26Zm-1-3.21a3.59,3.59,0,0,0-1.87-2,3.32,3.32,0,0,0-1.42-.29,3.43,3.43,0,0,0-1.42.28,3.36,3.36,0,0,0-1.11.79,3.82,3.82,0,0,0-1,2.63A3.76,3.76,0,0,0,99,16.93a3.49,3.49,0,0,0,3.28,2.28,3.69,3.69,0,0,0,1.43-.29,3.36,3.36,0,0,0,1.11-.79,3.77,3.77,0,0,0,.73-1.18,4,4,0,0,0,.26-1.45A4.27,4.27,0,0,0,105.53,14.05Z"></path><path class="cls-4" d="M112.61,17.53h0l-3.28-4.81V20h-1V11h1l3.28,4.91L115.88,11h1v9h-1V12.7Z"></path><path class="cls-4" d="M127.07,20H126l-1.06-2.38H120L119,20h-1L122,10.93h1Zm-4.59-7.88-2.06,4.59h4.1Z"></path><path class="cls-4" d="M130.24,20h-1V11.94h-3V11h7.06v.94h-3Z"></path><path class="cls-4" d="M135.39,11v9h-1V11Z"></path><path class="cls-4" d="M145.77,17.26a4.65,4.65,0,0,1-.94,1.49,4.44,4.44,0,0,1-1.45,1,4.88,4.88,0,0,1-3.75,0,4.47,4.47,0,0,1-2.38-2.49,5,5,0,0,1-.33-1.78,4.9,4.9,0,0,1,.34-1.78,4.5,4.5,0,0,1,2.39-2.51,4.83,4.83,0,0,1,3.75,0,4.41,4.41,0,0,1,2.37,2.48,4.57,4.57,0,0,1,.33,1.78A4.5,4.5,0,0,1,145.77,17.26Zm-1-3.21a3.54,3.54,0,0,0-1.86-2,3.32,3.32,0,0,0-1.42-.29,3.43,3.43,0,0,0-1.42.28,3.51,3.51,0,0,0-1.12.79,4,4,0,0,0-.72,1.18,4.17,4.17,0,0,0,0,2.9,3.49,3.49,0,0,0,3.28,2.28,3.61,3.61,0,0,0,1.42-.29,3.51,3.51,0,0,0,1.12-.79,3.57,3.57,0,0,0,.72-1.18,4,4,0,0,0,.27-1.45A4,4,0,0,0,144.78,14.05Z"></path><path class="cls-4" d="M154.18,11h1v9h-.81l-5.82-7.39V20h-1V11h1l5.67,7.22V11Z"></path><path class="cls-4" d="M84.37,24.55h1.82l3.86,9.07H88l-.82-2H83.35l-.82,2h-2Zm2.09,5.3-1.2-2.92-1.19,2.92Z"></path><path class="cls-4" d="M90.69,24.61h1.82l4.22,5.54V24.61h2v9H97l-4.36-5.73v5.73h-2Z"></path><path class="cls-4" d="M102.7,30.07l-3.47-5.46h2.32l2.15,3.62,2.18-3.62h2.25L104.67,30v3.59h-2Z"></path><path class="cls-4" d="M108.36,24.61h2.12l1.87,6.1,2-6.12h1.7l2,6.12,1.87-6.1H122L119,33.68h-1.73l-2-5.89-2,5.89h-1.72Z"></path><path class="cls-4" d="M122.68,24.61h2v3.57h3.65V24.61h2v9h-2V30h-3.65v3.62h-2Z"></path><path class="cls-4" d="M131.86,24.61h6.78v1.77h-4.82V28.2h4.24V30h-4.24v1.9h4.88v1.76h-6.84Z"></path><path class="cls-4" d="M139.93,24.61h4.12a3.56,3.56,0,0,1,2.63.91,2.77,2.77,0,0,1,.77,2.06v0a2.8,2.8,0,0,1-.54,1.78,3.12,3.12,0,0,1-1.39,1l2.2,3.21h-2.31l-1.93-2.88h-1.56v2.88h-2Zm4,4.38a1.68,1.68,0,0,0,1.12-.35,1.23,1.23,0,0,0,.4-.93v0a1.16,1.16,0,0,0-.41-1,1.88,1.88,0,0,0-1.15-.32h-2V29Z"></path><path class="cls-4" d="M148.61,24.61h6.78v1.77h-4.83V28.2h4.25V30h-4.25v1.9h4.89v1.76h-6.84Z"></path><path class="cls-5" d="M157.14,10.45h-.58v-.21H158v.21h-.59V12h-.24v-1.5Z"></path><path class="cls-5" d="M158.3,10.25h.25l.39.92a2.19,2.19,0,0,1,.08.23h0s0-.13.08-.23l.39-.92h.25l.14,1.71h-.24l-.08-1.08a1.9,1.9,0,0,1,0-.25h0s-.05.16-.09.25l-.34.77h-.21l-.34-.77c0-.09-.09-.26-.09-.26h0s0,.16,0,.26L158.4,12h-.24Z"></path><path class="cls-6" d="M114.23,37.27a2.46,2.46,0,0,1,1.7.58l-.41.61A2,2,0,0,0,114.3,38a1.46,1.46,0,0,0-1.57,1.38v.18a1.53,1.53,0,0,0,1.42,1.64h.11a1.71,1.71,0,0,0,1.15-.48v-.53h-.71v-.71h1.45v2.4h-.71v-.22c0-.1,0-.19,0-.19h0a1.92,1.92,0,0,1-1.32.48,2.24,2.24,0,0,1-2.24-2.25v-.11a2.31,2.31,0,0,1,2.26-2.36Z"></path><path class="cls-6" d="M118.5,38.55a1.77,1.77,0,1,1-.07,0Zm0,2.74a1,1,0,1,0,.1-2,1,1,0,0,0-1.07,1v0a1,1,0,0,0,.93,1Z"></path><path class="cls-6" d="M122.52,37.34h.82v1.41a1.27,1.27,0,0,1,0,.28h0a1.19,1.19,0,0,1,1-.48,1.52,1.52,0,0,1,1.46,1.72A1.55,1.55,0,0,1,124.27,42a1.17,1.17,0,0,1-1-.49h0a1.77,1.77,0,0,1,0,.23v.18h-.77Zm1.61,4c.45,0,.83-.37.83-1s-.34-1-.82-1-.83.31-.83,1C123.31,40.8,123.59,41.3,124.13,41.3Z"></path><path class="cls-6" d="M127.89,38.55a1.42,1.42,0,0,1,1.45,1.56c0,.1,0,.31,0,.31h-2.26a.93.93,0,0,0,1,.87,1.71,1.71,0,0,0,1-.36l.31.58A2.05,2.05,0,0,1,128,42a1.68,1.68,0,0,1-1.76-1.59v-.12a1.62,1.62,0,0,1,1.53-1.71Zm.62,1.32a.64.64,0,0,0-.58-.69h-.07a.76.76,0,0,0-.78.69Z"></path><path class="cls-6" d="M132.82,42.56c.5,0,.92-.21.92-.79v-.2a1.11,1.11,0,0,1,0-.17h0a1,1,0,0,1-.91.45,1.51,1.51,0,0,1-1.47-1.67,1.46,1.46,0,0,1,1.45-1.63,1.11,1.11,0,0,1,1,.41h0v-.34h.76V41.7a1.54,1.54,0,0,1-1.73,1.55,2.61,2.61,0,0,1-1.16-.28l.24-.63A1.94,1.94,0,0,0,132.82,42.56Zm1-2.37c0-.74-.37-.94-.82-.94s-.76.36-.76.91.29,1,.82,1S133.77,40.93,133.77,40.19Z"></path><path class="cls-6" d="M135.46,38.63h.79v.56a1.94,1.94,0,0,1,0,.24h0a1.14,1.14,0,0,1,1-.85l.15,0v.81a.65.65,0,0,0-.2,0,.92.92,0,0,0-.89.69,1.58,1.58,0,0,0-.07.53v1.3h-.82Z"></path><path class="cls-6" d="M139.42,38.55a1.42,1.42,0,0,1,1.45,1.56c0,.1,0,.31,0,.31H138.6a.93.93,0,0,0,1,.87,1.68,1.68,0,0,0,.94-.36l.32.58a2.05,2.05,0,0,1-1.32.47,1.68,1.68,0,0,1-1.76-1.59v-.12a1.63,1.63,0,0,1,1.52-1.72Zm.63,1.32a.64.64,0,0,0-.58-.69h-.07a.76.76,0,0,0-.78.69Z"></path><path class="cls-6" d="M143.22,39.85h.1v0c0-.44-.27-.58-.63-.58a1.74,1.74,0,0,0-.9.31l-.31-.59a2.29,2.29,0,0,1,1.29-.4,1.22,1.22,0,0,1,1.36,1.31v2h-.75v-.27a1.64,1.64,0,0,1,0-.23h0a1,1,0,0,1-1,.57,1,1,0,0,1-1.11-.94s0,0,0-.08C141.28,39.92,142.68,39.85,143.22,39.85Zm-.62,1.5a.83.83,0,0,0,.73-.86v-.08h-.14c-.42,0-1.09.06-1.09.51a.44.44,0,0,0,.44.43Z"></path><path class="cls-6" d="M145.11,39.33h-.43v-.65h.45v-.94h.79v.94h.75v.65h-.75v1.28a.58.58,0,0,0,.55.62h.25v.71l-.25,0a1.2,1.2,0,0,1-1.36-1.24Z"></path><path class="cls-6" d="M147.36,41.09h.81v.82h-.81Z"></path></svg> 