<?xml version="1.0" encoding="UTF-8"?> <svg xmlns="http://www.w3.org/2000/svg" id="Layer_1" data-name="Layer 1" viewBox="0 0 200 50"><defs><style>.cls-1{fill:#2c4e50;}.cls-2{fill:#76b7a6;}</style></defs><path class="cls-1" d="M12.13,24.73v-.32a2.16,2.16,0,0,0-2.42-2c-1.27,0-2.09.69-2.09,1.72a1.56,1.56,0,0,0,.53,1.23c.58.45.61.45,3.24,1.27,4.26,1.31,5.94,3,5.94,6.07,0,3.69-2.95,6.14-7.38,6.14S2.7,36.58,2.5,32.65h5C7.74,34.29,8.48,35,10,35a1.88,1.88,0,0,0,2.09-1.81c0-1.14-.74-1.67-3.52-2.54C4.48,29.44,2.64,27.6,2.64,24.6c0-3.61,2.9-6,7.33-6s7,2.3,7.09,6.15Z"></path><path class="cls-1" d="M24.12,30a4.85,4.85,0,0,0,5,4.26,4.88,4.88,0,0,0,4.39-2.45l4.79,1.31A10.06,10.06,0,0,1,29,38.86c-6,0-10.32-4.26-10.32-10.16s4.13-10.12,10-10.12C34.78,18.58,39,22.84,39,29l0,1Zm9.52-3a4.63,4.63,0,0,0-4.84-4,4.5,4.5,0,0,0-4.68,4Z"></path><path class="cls-1" d="M46.45,19.23V22a4.88,4.88,0,0,1,1.68-2.54,5.46,5.46,0,0,1,3.08-.91,4.07,4.07,0,0,1,.61,0v5.33c-.4,0-.82-.09-1.11-.09a4.21,4.21,0,0,0-3.48,1.73c-.61.86-.78,1.68-.78,3.48V38.2h-5.2v-19Z"></path><polygon class="cls-1" points="72.89 19.23 65.97 38.21 60.6 38.21 53.76 19.23 59.16 19.23 63.34 30.54 67.56 19.23 72.89 19.23"></polygon><path class="cls-1" d="M80.43,13.87a2.89,2.89,0,0,1-5.77,0,2.89,2.89,0,1,1,5.77,0m-.29,24.34h-5.2v-19h5.2Z"></path><path class="cls-1" d="M100.92,36a10.14,10.14,0,0,1-7.29,2.82,9.75,9.75,0,0,1-10-10c0-6,4.18-10.25,10.08-10.25a10.78,10.78,0,0,1,7.58,3.16L97.77,24.9a5.24,5.24,0,0,0-3.89-1.68c-2.87,0-5,2.34-5,5.45s2.18,5.57,5.21,5.57a5.09,5.09,0,0,0,3.69-1.59Z"></path><path class="cls-1" d="M107.11,30a5.07,5.07,0,0,0,9.34,1.81l4.8,1.31A10.07,10.07,0,0,1,112,38.86c-6,0-10.32-4.26-10.32-10.16s4.14-10.12,10-10.12C117.76,18.58,122,22.84,122,29l0,1Zm9.51-3a4.64,4.64,0,0,0-4.84-4,4.5,4.5,0,0,0-4.68,4Z"></path><path class="cls-1" d="M129.57,19.23v2.34c1.39-2.16,2.79-3,5.16-3a6.83,6.83,0,0,1,4.67,1.76c1.23,1.23,1.68,2.75,1.68,5.86v12h-5.2V26.44a4,4,0,0,0-.46-2.21,3,3,0,0,0-2.5-1.27c-2,0-3.35,1.52-3.35,3.73V38.2h-5.21v-19Z"></path><polygon class="cls-1" points="197.5 19.23 191.31 38.21 185.9 38.21 182.58 26.57 179.18 38.21 173.65 38.21 167.54 19.23 172.83 19.23 176.64 30.8 179.96 19.23 184.96 19.23 188.36 30.8 192.21 19.23 197.5 19.23"></polygon><path class="cls-2" d="M154.29,18.48a11.36,11.36,0,0,0-6,20,2.39,2.39,0,0,0,3.22-.14,5.66,5.66,0,0,1,8.09,0,2.38,2.38,0,0,0,3.21.15,11.36,11.36,0,0,0-8.56-20m1.3,17a5.67,5.67,0,1,1,5.66-5.67,5.66,5.66,0,0,1-5.66,5.67"></path></svg> 