<?xml version="1.0" encoding="UTF-8"?> <svg xmlns="http://www.w3.org/2000/svg" id="Layer_1" data-name="Layer 1" viewBox="0 0 200 50"><defs><style>.cls-1{fill:#252f3e;}.cls-2{fill:#f90;fill-rule:evenodd;}</style></defs><path class="cls-1" d="M83.3,18.74A7.61,7.61,0,0,0,83.58,21a13.16,13.16,0,0,0,.81,1.84,1.06,1.06,0,0,1,.18.58,1,1,0,0,1-.48.77l-1.61,1.06a1.17,1.17,0,0,1-.66.23,1.13,1.13,0,0,1-.76-.35,7.24,7.24,0,0,1-.92-1.2c-.26-.43-.51-.92-.79-1.5a9.42,9.42,0,0,1-7.49,3.51,7,7,0,0,1-5.09-1.83,6.52,6.52,0,0,1-1.88-4.89A6.55,6.55,0,0,1,67.2,14a9.26,9.26,0,0,1,6.24-2,21.35,21.35,0,0,1,2.7.2c.94.13,1.91.33,2.93.56V10.89c0-1.93-.41-3.28-1.2-4.07s-2.19-1.17-4.15-1.17A11.59,11.59,0,0,0,71,6a20,20,0,0,0-2.75.87,8,8,0,0,1-.89.33,1.51,1.51,0,0,1-.41.07c-.35,0-.53-.25-.53-.79V5.22a1.56,1.56,0,0,1,.18-.89,1.89,1.89,0,0,1,.71-.54,14.75,14.75,0,0,1,3.21-1.15,15.48,15.48,0,0,1,4-.48q4.55,0,6.67,2.06c1.4,1.38,2.12,3.47,2.12,6.27v8.25ZM73,22.61a8.42,8.42,0,0,0,2.62-.46A5.75,5.75,0,0,0,78,20.52a4.09,4.09,0,0,0,.87-1.63,9.31,9.31,0,0,0,.25-2.22V15.6a23.16,23.16,0,0,0-2.34-.43,19.7,19.7,0,0,0-2.4-.15,5.85,5.85,0,0,0-3.79,1A3.55,3.55,0,0,0,69.34,19,3.3,3.3,0,0,0,73,22.61ZM93.4,25.36a1.4,1.4,0,0,1-1-.26,2.07,2.07,0,0,1-.54-1l-6-19.68a4.64,4.64,0,0,1-.23-1,.56.56,0,0,1,.61-.64h2.5a1.4,1.4,0,0,1,1,.26,2.08,2.08,0,0,1,.51,1l4.28,16.86L98.55,4A1.8,1.8,0,0,1,99,3a1.71,1.71,0,0,1,1-.26h2a1.54,1.54,0,0,1,1,.26,1.72,1.72,0,0,1,.48,1l4,17.06L112,4a2.11,2.11,0,0,1,.51-1,1.59,1.59,0,0,1,1-.26h2.37a.57.57,0,0,1,.63.64,2.17,2.17,0,0,1,0,.41,2.74,2.74,0,0,1-.18.63l-6.13,19.68a1.94,1.94,0,0,1-.54,1,1.62,1.62,0,0,1-1,.25h-2.19a1.51,1.51,0,0,1-1-.25,1.83,1.83,0,0,1-.49-1L101,7.69,97.1,24.08a2,2,0,0,1-.49,1,1.56,1.56,0,0,1-1,.26Zm32.72.68a17.14,17.14,0,0,1-3.92-.45,12,12,0,0,1-2.93-1,1.94,1.94,0,0,1-.79-.72,1.78,1.78,0,0,1-.15-.71v-1.3c0-.53.21-.79.59-.79a1.54,1.54,0,0,1,.46.08l.63.25a13.89,13.89,0,0,0,2.8.9,15.56,15.56,0,0,0,3,.3,6.88,6.88,0,0,0,3.72-.84,2.72,2.72,0,0,0,1.32-2.42,2.5,2.5,0,0,0-.68-1.78,6.39,6.39,0,0,0-2.58-1.32l-3.69-1.15a7.75,7.75,0,0,1-4.07-2.6,6,6,0,0,1-1.27-3.69A5.78,5.78,0,0,1,119.27,6a6.54,6.54,0,0,1,1.84-2.08,8.1,8.1,0,0,1,2.64-1.33A11.31,11.31,0,0,1,127,2.11a14,14,0,0,1,1.71.1c.58.08,1.12.18,1.65.28s1,.26,1.46.41a5,5,0,0,1,1.06.46,2.22,2.22,0,0,1,.77.63,1.42,1.42,0,0,1,.23.84V6c0,.54-.21.82-.59.82a2.83,2.83,0,0,1-1-.31,11.66,11.66,0,0,0-4.88-1,6.61,6.61,0,0,0-3.39.71,2.46,2.46,0,0,0-1.2,2.27,2.39,2.39,0,0,0,.77,1.8,7.47,7.47,0,0,0,2.8,1.4L130,12.88a7.78,7.78,0,0,1,3.95,2.44,5.79,5.79,0,0,1,1.17,3.57,6.56,6.56,0,0,1-.66,2.95,6.81,6.81,0,0,1-1.86,2.24,8.12,8.12,0,0,1-2.83,1.43A12,12,0,0,1,126.12,26Z"></path><path class="cls-2" d="M130.93,38.42c-8.37,6.19-20.54,9.47-31,9.47A56.08,56.08,0,0,1,62.06,33.45c-.79-.71-.07-1.68.87-1.12a76.26,76.26,0,0,0,37.88,10.06,75.42,75.42,0,0,0,28.9-5.91C131.11,35.85,132.31,37.4,130.93,38.42Z"></path><path class="cls-2" d="M134.42,34.45c-1.07-1.38-7.08-.67-9.8-.33-.81.1-.94-.62-.2-1.15,4.78-3.36,12.65-2.39,13.57-1.27s-.26,9-4.74,12.78c-.69.58-1.35.28-1-.49C133.23,41.47,135.49,35.8,134.42,34.45Z"></path></svg> 