<?xml version="1.0" encoding="UTF-8"?> <!-- Generator: Adobe Illustrator 24.3.0, SVG Export Plug-In . SVG Version: 6.00 Build 0) --> <svg xmlns="http://www.w3.org/2000/svg" xmlns:xlink="http://www.w3.org/1999/xlink" version="1.1" id="Layer_1" x="0px" y="0px" viewBox="0 0 200 50" style="enable-background:new 0 0 200 50;" xml:space="preserve"> <style type="text/css"> .st0{fill:#3A8DDE;} .st1{fill:url(#SVGID_1_);} .st2{fill:#011F3D;} .st3{fill:#FA4616;} .st4{fill:url(#SVGID_2_);} .st5{fill:url(#SVGID_3_);} .st6{fill:url(#SVGID_4_);} .st7{fill:#333333;} .st8{fill:#BABCBE;} .st9{fill:#F05E27;} .st10{fill:#00A0DF;} .st11{fill:#F8BB16;} .st12{fill:#EA4334;} .st13{fill:#0074BC;} .st14{fill:#E2E3E4;} .st15{fill:#2C4E50;} .st16{fill:#76B7A6;} </style> <g> <polygon class="st10" points="86.69,27.21 81.37,16.06 78.66,16.06 78.66,34.04 81.37,34.04 81.37,21.99 85.69,30.72 87.7,30.72 91.82,21.99 91.82,34.04 94.53,34.04 94.53,16.06 91.82,16.06 "></polygon> <path class="st10" d="M104.67,29.02c0,2.01-1.21,2.81-2.61,2.81s-2.51-0.8-2.51-2.81v-7.83h-2.61v8.13c0,1.41,0.3,2.61,1.31,3.62 c0.7,0.7,1.81,1.21,3.11,1.21c1.31,0,2.51-0.5,3.41-1.41v1.31h2.51V21.18h-2.51L104.67,29.02L104.67,29.02z"></path> <path class="st10" d="M112.3,30.32V16.06h-2.51v14.36c0,1.91,1.1,3.51,3.51,3.51h1.61v-2.21h-1.1 C112.7,31.83,112.3,31.33,112.3,30.32z"></path> <path class="st10" d="M121.04,21.08c-3.31,0-5.42,2.41-5.42,6.53c0,4.82,2.51,6.53,5.72,6.53c2.21,0,3.51-0.7,4.82-2.01l-1.61-1.51 c-1,0.9-1.71,1.31-3.11,1.31c-2.11,0-3.21-1.41-3.21-3.62h8.24v-1.1C126.46,23.59,124.45,21.08,121.04,21.08z M118.13,26.61 c0-0.8,0.1-1.21,0.3-1.71c0.4-1,1.41-1.61,2.51-1.61s2.11,0.6,2.51,1.61c0.2,0.5,0.4,1.1,0.3,1.71H118.13z"></path> <path class="st10" d="M139.12,25.2c-0.7-0.7-1.71-1.1-3.31-1.31l-2.01-0.3c-0.7-0.1-1.41-0.4-2.01-0.8c-0.5-0.4-0.7-1-0.7-1.71 c0-1.61,1.21-2.81,3.31-2.81c1.51,0,2.81,0.3,3.92,1.41l1.71-1.71c-1.51-1.41-3.21-2.01-5.52-2.01c-3.72,0-6.03,2.11-6.03,5.22 c0,1.51,0.4,2.61,1.31,3.41c0.8,0.7,1.91,1.21,3.41,1.41l2.11,0.3c1.1,0.1,1.51,0.3,2.01,0.7c0.4,0.4,0.7,1.1,0.7,1.91 c0,1.71-1.41,2.71-3.72,2.71c-1.81,0-3.31-0.4-4.62-1.71l-1.81,1.81c1.71,1.71,3.62,2.41,6.33,2.41c3.72,0,6.43-2.01,6.43-5.22 C140.52,27.41,140.12,26.1,139.12,25.2z"></path> <path class="st10" d="M147.35,21.08c-1.71,0-3.01,0.6-3.82,1.51c-1.21,1.31-1.51,2.91-1.51,5.02s0.3,3.82,1.51,5.02 c0.8,0.8,2.11,1.51,3.82,1.51s3.01-0.6,3.82-1.51c1.21-1.31,1.51-2.91,1.51-5.02s-0.3-3.72-1.51-5.02 C150.36,21.79,149.06,21.08,147.35,21.08z M149.26,31.13c-0.5,0.5-1.21,0.8-1.91,0.7c-0.7,0-1.41-0.3-1.91-0.7 c-0.8-0.8-0.9-2.11-0.9-3.51c0-1.41,0.1-2.71,0.9-3.51c0.5-0.5,1.21-0.7,1.91-0.7c0.7,0,1.41,0.2,1.91,0.7 c0.8,0.8,0.9,2.11,0.9,3.51C150.06,29.02,149.96,30.32,149.26,31.13L149.26,31.13z"></path> <path class="st10" d="M155.29,19.48v2.01h-1.51v2.01h1.51v10.54h2.61V23.39h2.51v-1.91h-2.51v-1.81c0-0.9,0.4-1.51,1.41-1.51h1.1 v-2.21h-1.61C156.39,15.96,155.29,17.67,155.29,19.48z"></path> <path class="st10" d="M166.03,17.57h-2.51v3.92h-1.51v2.01h1.51v7.03c0,1.81,1.1,3.51,3.51,3.51h1.51v-2.21h-1.1 c-1,0-1.41-0.5-1.41-1.51v-6.93h2.51v-2.01h-2.41v-3.82H166.03z"></path> <path class="st10" d="M49.33,3.81c-11.65,0-21.19,9.54-21.19,21.19s9.54,21.19,21.19,21.19S70.52,36.65,70.52,25 S61.08,3.81,49.33,3.81z M49.33,44.38c-10.65,0-19.38-8.64-19.38-19.38S38.69,5.72,49.33,5.72s19.38,8.64,19.38,19.38l0,0 C68.72,35.75,60.08,44.38,49.33,44.38z"></path> <path class="st10" d="M64.7,20.78L64.7,20.78c-1.71-6.33-7.03-9.24-7.03-9.24l-0.6,0.9L49.43,24.5l0,0L41.7,12.45l-0.6-0.9 c0,0-5.32,2.91-7.03,9.34l0,0c-1.1,4.02-0.6,8.54,1.61,12.15c1.61,2.81,4.02,5.02,7.03,6.33l1.41-5.42 c-3.21-1.51-5.52-4.52-5.52-8.44c0-2.01,0.6-3.92,1.71-5.52l6.63,10.34h4.92l6.63-10.34c1.1,1.61,1.71,3.62,1.71,5.52 c0,3.92-2.31,6.93-5.52,8.44l1.41,5.42c2.91-1.41,5.32-3.62,7.03-6.33C65.2,29.32,65.8,24.9,64.7,20.78z"></path> <polygon class="st10" points="86.69,27.21 81.37,16.06 78.66,16.06 78.66,34.04 81.37,34.04 81.37,21.99 85.69,30.72 87.7,30.72 91.82,21.99 91.82,34.04 94.53,34.04 94.53,16.06 91.82,16.06 "></polygon> <path class="st10" d="M104.67,29.02c0,2.01-1.21,2.81-2.61,2.81s-2.51-0.8-2.51-2.81v-7.83h-2.61v8.13c0,1.41,0.3,2.61,1.31,3.62 c0.7,0.7,1.81,1.21,3.11,1.21c1.31,0,2.51-0.5,3.41-1.41v1.31h2.51V21.18h-2.51L104.67,29.02L104.67,29.02z"></path> <path class="st10" d="M112.3,30.32V16.06h-2.51v14.36c0,1.91,1.1,3.51,3.51,3.51h1.61v-2.21h-1.1 C112.7,31.83,112.3,31.33,112.3,30.32z"></path> <path class="st10" d="M121.04,21.08c-3.31,0-5.42,2.41-5.42,6.53c0,4.82,2.51,6.53,5.72,6.53c2.21,0,3.51-0.7,4.82-2.01l-1.61-1.51 c-1,0.9-1.71,1.31-3.11,1.31c-2.11,0-3.21-1.41-3.21-3.62h8.24v-1.1C126.46,23.59,124.45,21.08,121.04,21.08z M118.13,26.61 c0-0.8,0.1-1.21,0.3-1.71c0.4-1,1.41-1.61,2.51-1.61s2.11,0.6,2.51,1.61c0.2,0.5,0.4,1.1,0.3,1.71H118.13z"></path> <path class="st10" d="M139.12,25.2c-0.7-0.7-1.71-1.1-3.31-1.31l-2.01-0.3c-0.7-0.1-1.41-0.4-2.01-0.8c-0.5-0.4-0.7-1-0.7-1.71 c0-1.61,1.21-2.81,3.31-2.81c1.51,0,2.81,0.3,3.92,1.41l1.71-1.71c-1.51-1.41-3.21-2.01-5.52-2.01c-3.72,0-6.03,2.11-6.03,5.22 c0,1.51,0.4,2.61,1.31,3.41c0.8,0.7,1.91,1.21,3.41,1.41l2.11,0.3c1.1,0.1,1.51,0.3,2.01,0.7c0.4,0.4,0.7,1.1,0.7,1.91 c0,1.71-1.41,2.71-3.72,2.71c-1.81,0-3.31-0.4-4.62-1.71l-1.81,1.81c1.71,1.71,3.62,2.41,6.33,2.41c3.72,0,6.43-2.01,6.43-5.22 C140.52,27.41,140.12,26.1,139.12,25.2z"></path> <path class="st10" d="M147.35,21.08c-1.71,0-3.01,0.6-3.82,1.51c-1.21,1.31-1.51,2.91-1.51,5.02s0.3,3.82,1.51,5.02 c0.8,0.8,2.11,1.51,3.82,1.51s3.01-0.6,3.82-1.51c1.21-1.31,1.51-2.91,1.51-5.02s-0.3-3.72-1.51-5.02 C150.36,21.79,149.06,21.08,147.35,21.08z M149.26,31.13c-0.5,0.5-1.21,0.8-1.91,0.7c-0.7,0-1.41-0.3-1.91-0.7 c-0.8-0.8-0.9-2.11-0.9-3.51c0-1.41,0.1-2.71,0.9-3.51c0.5-0.5,1.21-0.7,1.91-0.7c0.7,0,1.41,0.2,1.91,0.7 c0.8,0.8,0.9,2.11,0.9,3.51C150.06,29.02,149.96,30.32,149.26,31.13L149.26,31.13z"></path> <path class="st10" d="M155.29,19.48v2.01h-1.51v2.01h1.51v10.54h2.61V23.39h2.51v-1.91h-2.51v-1.81c0-0.9,0.4-1.51,1.41-1.51h1.1 v-2.21h-1.61C156.39,15.96,155.29,17.67,155.29,19.48z"></path> <path class="st10" d="M166.03,17.57h-2.51v3.92h-1.51v2.01h1.51v7.03c0,1.81,1.1,3.51,3.51,3.51h1.51v-2.21h-1.1 c-1,0-1.41-0.5-1.41-1.51v-6.93h2.51v-2.01h-2.41v-3.82H166.03z"></path> <path class="st10" d="M49.33,3.81c-11.65,0-21.19,9.54-21.19,21.19s9.54,21.19,21.19,21.19S70.52,36.65,70.52,25 S61.08,3.81,49.33,3.81z M49.33,44.38c-10.65,0-19.38-8.64-19.38-19.38S38.69,5.72,49.33,5.72s19.38,8.64,19.38,19.38l0,0 C68.72,35.75,60.08,44.38,49.33,44.38z"></path> <path class="st10" d="M64.7,20.78L64.7,20.78c-1.71-6.33-7.03-9.24-7.03-9.24l-0.6,0.9L49.43,24.5l0,0L41.7,12.45l-0.6-0.9 c0,0-5.32,2.91-7.03,9.34l0,0c-1.1,4.02-0.6,8.54,1.61,12.15c1.61,2.81,4.02,5.02,7.03,6.33l1.41-5.42 c-3.21-1.51-5.52-4.52-5.52-8.44c0-2.01,0.6-3.92,1.71-5.52l6.63,10.34h4.92l6.63-10.34c1.1,1.61,1.71,3.62,1.71,5.52 c0,3.92-2.31,6.93-5.52,8.44l1.41,5.42c2.91-1.41,5.32-3.62,7.03-6.33C65.2,29.32,65.8,24.9,64.7,20.78z"></path> <g> <g> <path class="st10" d="M170.87,21.37c-0.92,0-1.67-0.75-1.67-1.67s0.75-1.67,1.67-1.67s1.67,0.75,1.67,1.67 S171.79,21.37,170.87,21.37z M170.87,18.14c-0.86,0-1.57,0.7-1.57,1.57s0.7,1.57,1.57,1.57s1.57-0.7,1.57-1.57 S171.74,18.14,170.87,18.14z"></path> </g> <g> <path class="st10" d="M170.31,18.69c0.13-0.03,0.32-0.04,0.5-0.04c0.28,0,0.46,0.05,0.59,0.17c0.1,0.09,0.16,0.23,0.16,0.38 c0,0.27-0.17,0.45-0.38,0.52v0.01c0.16,0.05,0.25,0.2,0.3,0.41c0.07,0.28,0.11,0.48,0.16,0.56h-0.27 c-0.03-0.06-0.08-0.23-0.14-0.48c-0.06-0.28-0.17-0.38-0.41-0.39h-0.25v0.88h-0.26V18.69z M170.57,19.61h0.27 c0.28,0,0.46-0.15,0.46-0.38c0-0.26-0.19-0.38-0.47-0.38c-0.13,0-0.22,0.01-0.26,0.02V19.61z"></path> </g> </g> </g> </svg> 