<?xml version="1.0" encoding="UTF-8"?> <svg xmlns="http://www.w3.org/2000/svg" id="Layer_1" data-name="Layer 1" viewBox="0 0 200 50"><defs><style>.cls-1{fill:#3a8dde;}</style></defs><path class="cls-1" d="M48,14.78V41.87H43.83V14.78H32.94v-4h26v4Z"></path><path class="cls-1" d="M63.87,41.87V10.8H68V41.87Z"></path><path class="cls-1" d="M97.51,33.08c0,5.27-3.53,8.79-11.53,8.79H75.39V10.8H85.68c7.51,0,10.84,3.38,10.84,8.26,0,3.18-1.84,5.51-5.32,6.81C95.32,26.91,97.51,29.6,97.51,33.08ZM86,14.68H79.61v9.75h5.77c4.47,0,6.91-2,6.91-5S90.1,14.68,86,14.68Zm-.3,13.57H79.61V38h6.76c4.63,0,6.91-1.64,6.91-4.87C93.28,29.55,90.1,28.25,85.73,28.25Z"></path><path class="cls-1" d="M125.06,16.47a14.57,14.57,0,0,0-8.5-2.63c-6.76,0-11.29,4.67-11.29,12.38s4.58,12.62,11.39,12.62a15,15,0,0,0,8.8-3l.69,4.23a18.75,18.75,0,0,1-9.59,2.58c-9.1,0-15.56-6.31-15.56-16.21s6.51-16.35,15.56-16.35a19.56,19.56,0,0,1,9.84,2.58Z"></path><path class="cls-1" d="M152,12.25q-.69-.42-1.44-.78c-4.06,7.79-11.44,17-21.2,22.32a14.43,14.43,0,0,0,2.11,3.42C139.87,31.44,147.65,21.78,152,12.25Z"></path><path class="cls-1" d="M150.19,11.31A16.68,16.68,0,0,0,143.45,10c-9.14,0-15.59,7-15.59,16.33a20.16,20.16,0,0,0,.48,4.42C137.68,26.91,146,18.51,150.19,11.31Z"></path><path class="cls-1" d="M152.35,12.47c-4.79,11.78-10.63,20.12-18.09,27.3a15.93,15.93,0,0,0,9.19,2.71c9.13,0,15.58-7.1,15.58-16.38C159,20,156.48,15.18,152.35,12.47Z"></path><path class="cls-1" d="M159,11.44v0a4,4,0,1,1,8,0v0a4,4,0,1,1-8,0Zm7.56,0v0A3.52,3.52,0,0,0,163,7.82a3.57,3.57,0,0,0-3.55,3.6v0a3.55,3.55,0,1,0,7.1,0Zm-5.12-2.13h1.85c.9,0,1.57.44,1.57,1.29a1.23,1.23,0,0,1-.95,1.25L165,13.38h-.95l-1-1.41h-.85v1.41h-.79Zm1.78,2c.53,0,.83-.27.83-.67s-.3-.66-.83-.66h-1v1.33Z"></path></svg> 