<?xml version="1.0" encoding="UTF-8"?> <svg xmlns="http://www.w3.org/2000/svg" id="Layer_1" data-name="Layer 1" viewBox="0 0 200 50"><defs><style>.cls-1{fill:#f8bb16;}.cls-2{fill:#ea4334;}.cls-3{fill:#0074bc;}.cls-4{fill:#e2e3e4;}.cls-5{fill:#606060;}</style></defs><g id="Layer_1-2" data-name="Layer 1"><path id="path22" class="cls-1" d="M27.17,14.94,23.31,8.22H13.2A2.49,2.49,0,0,0,11,9.49L2.83,23.75a2.55,2.55,0,0,0,0,2.51L6,31.69,9.79,25l5.79-10.07Z"></path><path id="path26" class="cls-2" d="M39.92,23.75,31.73,9.49a2.52,2.52,0,0,0-2.17-1.27H23.31l3.86,6.72L33,25,27.17,35.08h7.7l5.05-8.82a2.55,2.55,0,0,0,0-2.51"></path><path id="path30" class="cls-3" d="M34.86,35.07H15.57L9.78,25,5.93,31.68,11,40.51a2.55,2.55,0,0,0,2.18,1.27H29.54a2.49,2.49,0,0,0,2.18-1.27l3.14-5.44Z"></path><path class="cls-4" d="M27.15,35.07H15.56L9.78,25l5.79-10.07H27.15L33,25ZM21.36,20a5,5,0,1,0,5,5A5,5,0,0,0,21.36,20Z"></path></g><path class="cls-5" d="M55.52,19.09l-1.21,1.22L53.9,20a4.55,4.55,0,0,0-2.3-.88,4.61,4.61,0,0,0-4.81,3.08,4.68,4.68,0,0,0,3.35,6.17,4.51,4.51,0,0,0,3.76-.73,3.48,3.48,0,0,0,1.44-2.41l0-.19a.39.39,0,0,0,0-.09h-4c-.13,0-.18,0-.17-.17,0-.47,0-.94,0-1.4,0-.13,0-.16.16-.16H56.9c.14,0,.18.05.2.19a6.29,6.29,0,0,1-.7,4A5.49,5.49,0,0,1,52.76,30a6,6,0,0,1-1.63.17,6.5,6.5,0,0,1-5.76-3.47,5.88,5.88,0,0,1-.7-2.28,6.22,6.22,0,0,1,1.71-5,6.35,6.35,0,0,1,3.79-2A6.16,6.16,0,0,1,55.4,19Z"></path><path class="cls-5" d="M76.34,31.48l1.51-.63c.16.23.28.45.44.64a2.16,2.16,0,0,0,2,.8,2,2,0,0,0,1.43-.77,2.31,2.31,0,0,0,.43-1.16c0-.32,0-.64,0-1a.5.5,0,0,0,0-.13.45.45,0,0,0-.12.06,2.68,2.68,0,0,1-1.83.84,3.73,3.73,0,0,1-2.91-1.05A4,4,0,0,1,76,26.69,4.15,4.15,0,0,1,79.15,22a3,3,0,0,1,2.81.66,1.59,1.59,0,0,1,.13.13l.09,0s0-.05,0-.08a3.23,3.23,0,0,0,0-.44c0-.11,0-.14.15-.14h1.37c.14,0,.18,0,.18.18q0,3.16,0,6.33c0,.44,0,.88,0,1.32A4.32,4.32,0,0,1,83,32.64a3.42,3.42,0,0,1-2,1.16,4.16,4.16,0,0,1-2.88-.33,3.9,3.9,0,0,1-1.76-1.87l0-.06A.21.21,0,0,0,76.34,31.48Zm6-5.4A2.74,2.74,0,0,0,82.12,25a2.16,2.16,0,0,0-3.3-1,2.49,2.49,0,0,0-1,1.84,2.61,2.61,0,0,0,.53,1.93,2.19,2.19,0,0,0,3.07.43A2.54,2.54,0,0,0,82.34,26.08Z"></path><path class="cls-5" d="M192,23.48c.16-.18.3-.36.46-.53a3.05,3.05,0,0,1,2.32-.91,2.57,2.57,0,0,1,1.52.46,2.51,2.51,0,0,1,1,1.65,6.07,6.07,0,0,1,.11,1.12c0,1.5,0,3,0,4.49,0,.14,0,.18-.18.18-.36,0-.72,0-1.09,0-.12,0-.15,0-.15-.16V25.32a3.06,3.06,0,0,0-.18-1.08,1.38,1.38,0,0,0-1.16-.9A2,2,0,0,0,192.4,25a3.06,3.06,0,0,0-.09.74c0,1.34,0,2.68,0,4,0,.14,0,.18-.18.18-.37,0-.73,0-1.09,0-.13,0-.16,0-.16-.16V25.23a2.65,2.65,0,0,0-.21-1.07,1.36,1.36,0,0,0-1.12-.82A2,2,0,0,0,187.27,25a2.67,2.67,0,0,0-.09.69c0,1.35,0,2.7,0,4.05,0,.14,0,.18-.18.18-.37,0-.74,0-1.1,0-.12,0-.15,0-.15-.15,0-2.45,0-4.91,0-7.36,0-.12,0-.15.16-.15H187c.11,0,.15,0,.15.15s0,.5,0,.75v.2c.07-.05.11-.07.13-.11a2.81,2.81,0,0,1,2-1.21,2.48,2.48,0,0,1,2.67,1.32A.33.33,0,0,0,192,23.48Z"></path><path class="cls-5" d="M137.8,24.34v5.4c0,.2,0,.2-.2.2h-.95c-.19,0-.19,0-.19-.21V29a.31.31,0,0,0-.05-.12l-.11.08a3,3,0,0,1-2.21,1.2,3.6,3.6,0,0,1-3.64-2.3,4.48,4.48,0,0,1-.33-1.48,4.28,4.28,0,0,1,.87-2.95,3.36,3.36,0,0,1,2.4-1.38,3.12,3.12,0,0,1,2.78,1c.06.06.1.14.16.21l.09.05a.38.38,0,0,0,0-.1c0-.79,0-1.58,0-2.37s0-1.3,0-1.95c0-.15.05-.18.19-.18.34,0,.68,0,1,0s.21,0,.21.22v5.38ZM134,28.91a2.32,2.32,0,0,0,1.94-1,3.16,3.16,0,0,0,.38-2.72,2.37,2.37,0,0,0-2.14-1.83,2.26,2.26,0,0,0-2.11,1,3.19,3.19,0,0,0,0,3.63A2.35,2.35,0,0,0,134,28.91Z"></path><path class="cls-5" d="M62,22A4.12,4.12,0,1,1,57.81,26,4.06,4.06,0,0,1,62,22Zm2.35,4c0-.1,0-.28,0-.46a2.36,2.36,0,0,0-2.45-2,2.2,2.2,0,0,0-1.46.64,2.57,2.57,0,0,0-.64,2.66,2.3,2.3,0,0,0,3,1.6A2.5,2.5,0,0,0,64.32,26Z"></path><path class="cls-5" d="M71,22a4.12,4.12,0,1,1-4.14,4.1A4.06,4.06,0,0,1,71,22Zm2.37,4.11,0-.37a2.37,2.37,0,0,0-2.48-2.14,2.24,2.24,0,0,0-1.53.72,2.72,2.72,0,0,0-.44,2.93,2.29,2.29,0,0,0,3,1.19A2.47,2.47,0,0,0,73.41,26.06Z"></path><path class="cls-5" d="M90,27.32a2.08,2.08,0,0,0,1.47,1.21,2.39,2.39,0,0,0,2.6-1.08l1.4.93a6.05,6.05,0,0,1-.52.6,4,4,0,0,1-2.63,1.2,4,4,0,0,1-3.11-1.07A4,4,0,0,1,88,26.73a4.34,4.34,0,0,1,.43-2.7A3.65,3.65,0,0,1,91.25,22a3.54,3.54,0,0,1,3.57,1.6,6,6,0,0,1,.66,1.34c0,.11,0,.13-.1.16l-2.43,1-2.83,1.17ZM89.68,26l3.73-1.55a.73.73,0,0,0,0-.12.86.86,0,0,0-.1-.16,1.72,1.72,0,0,0-1.69-.59,2.19,2.19,0,0,0-1.63,1.2A2.26,2.26,0,0,0,89.68,26Z"></path><path class="cls-5" d="M109,20.26l-.91,1c-.24-.22-.45-.44-.68-.63a3.71,3.71,0,0,0-1.92-.75,4.48,4.48,0,0,0-3.28.87,4.09,4.09,0,0,0-1.56,2.56,4.9,4.9,0,0,0,.43,3.3A4.06,4.06,0,0,0,104,28.75a4.46,4.46,0,0,0,4.27-1.41l.08-.11,1,1c-.21.2-.43.44-.68.64a5.62,5.62,0,0,1-2.9,1.26,5.87,5.87,0,0,1-4.37-1.08,5.5,5.5,0,0,1-2.19-3.54,6.56,6.56,0,0,1-.11-1.4,5.79,5.79,0,0,1,8.71-4.85A4.78,4.78,0,0,1,109,20.26Z"></path><path class="cls-5" d="M141.79,24.34V19c0-.21,0-.21.2-.21,1.3,0,2.6,0,3.89,0a3.34,3.34,0,0,1,3.17,2.72,3.29,3.29,0,0,1-2.58,3.8,3.85,3.85,0,0,1-.83.1c-.74,0-1.48,0-2.22,0-.23,0-.23,0-.23.24,0,1.38,0,2.75,0,4.13,0,.15,0,.2-.19.19q-.52,0-1.05,0c-.14,0-.17-.05-.17-.18C141.79,28,141.79,26.15,141.79,24.34Zm2.75-.3v0c.47,0,.94,0,1.41,0a2,2,0,0,0-.27-3.92c-.78,0-1.56,0-2.33,0-.12,0-.17,0-.17.16,0,1.21,0,2.43,0,3.65,0,.12,0,.16.17.16Z"></path><path class="cls-5" d="M154.42,24.42l-1.3-.55c.14-.22.25-.44.39-.62a3.13,3.13,0,0,1,2.16-1.18,4.06,4.06,0,0,1,2.1.24,2.91,2.91,0,0,1,1.86,2.48q0,.3,0,.6v4.35c0,.2,0,.2-.19.2-.34,0-.67,0-1,0-.12,0-.15,0-.15-.15s0-.49,0-.74c0-.05,0-.11,0-.2s-.09.06-.11.09a2.85,2.85,0,0,1-2.24,1.24,3.13,3.13,0,0,1-2.14-.58,2.29,2.29,0,0,1-.93-1.61,2.5,2.5,0,0,1,1.79-2.77,4.63,4.63,0,0,1,1.22-.24,4.75,4.75,0,0,1,2.35.42h.05a1.75,1.75,0,0,0-1-1.86A2.15,2.15,0,0,0,154.42,24.42Zm1.5,4.49.4,0a2.45,2.45,0,0,0,2-1.88c.06-.36.14-.33-.26-.53a3.68,3.68,0,0,0-2.24-.27,1.82,1.82,0,0,0-1.17.65A1.17,1.17,0,0,0,155,28.7,2,2,0,0,0,155.92,28.91Z"></path><path class="cls-5" d="M117.05,22a3.83,3.83,0,0,1,3.86,3.25,4.31,4.31,0,0,1-.51,3.06,3.65,3.65,0,0,1-2.73,1.8,4,4,0,0,1-2.67-.49,3.77,3.77,0,0,1-1.8-2.59,4.32,4.32,0,0,1,.44-3.09,3.66,3.66,0,0,1,2.86-1.9Zm-2.54,4a3.25,3.25,0,0,0,.36,1.52,2.45,2.45,0,0,0,4.2.23,3,3,0,0,0,.15-3.17,2.43,2.43,0,0,0-3.89-.63A2.86,2.86,0,0,0,114.51,26.07Z"></path><path class="cls-5" d="M179,26.11A4.21,4.21,0,0,1,177.9,29a3.69,3.69,0,0,1-2.22,1.11,4.05,4.05,0,0,1-2.6-.47,3.77,3.77,0,0,1-1.84-2.57,4.32,4.32,0,0,1,.4-3.07,3.64,3.64,0,0,1,2.9-2,3.87,3.87,0,0,1,3.13.9A3.75,3.75,0,0,1,179,25.31C179,25.58,179,25.85,179,26.11Zm-3.71,2.79a2.27,2.27,0,0,0,1.81-1.12,3,3,0,0,0,.14-3.08,2.45,2.45,0,0,0-4.26-.26,3.11,3.11,0,0,0-.39,2.4A2.58,2.58,0,0,0,175.33,28.9Z"></path><path class="cls-5" d="M128.9,26.11v3.63c0,.2,0,.2-.19.2s-.65,0-1,0c-.14,0-.19,0-.18-.17s0-.5,0-.75a.61.61,0,0,0,0-.13.23.23,0,0,0-.11.08,3,3,0,0,1-4.47.44,2.76,2.76,0,0,1-.75-1.55,7.73,7.73,0,0,1-.08-1.08c0-1.44,0-2.88,0-4.32,0-.14,0-.19.18-.18h1.07c.14,0,.18,0,.18.17q0,2.19,0,4.38a2.41,2.41,0,0,0,.32,1.31,1.56,1.56,0,0,0,1.14.73,2.08,2.08,0,0,0,2.44-1.82,3.91,3.91,0,0,0,.06-.68v-3.9c0-.15,0-.2.18-.19h1c.13,0,.17,0,.17.17Z"></path><path class="cls-5" d="M171.14,18.88,170.67,20A6.08,6.08,0,0,0,170,20a1.2,1.2,0,0,0-1.26,1.25c0,.3,0,.6,0,.91,0,.12,0,.15.16.15h1.68c.12,0,.17,0,.17.16,0,.33,0,.67,0,1,0,.11,0,.14-.14.14-.56,0-1.12,0-1.68,0-.15,0-.19,0-.19.18v6c0,.21,0,.21-.21.21s-.69,0-1,0c-.14,0-.18,0-.18-.18V23.82c0-.28,0-.24-.25-.24H166c-.1,0-.14,0-.14-.13,0-.35,0-.7,0-1,0-.1,0-.13.12-.13.38,0,.76,0,1.14,0,.15,0,.18,0,.18-.19,0-.38,0-.77,0-1.16a2.34,2.34,0,0,1,1.82-2.14,3.38,3.38,0,0,1,1.84,0A.61.61,0,0,1,171.14,18.88Z"></path><path class="cls-5" d="M87,23.88c0,2,0,3.92,0,5.88,0,.14,0,.18-.18.18-.49,0-1,0-1.46,0-.13,0-.17,0-.17-.16V18c0-.13,0-.17.16-.17h1.48c.14,0,.17.05.17.18C87,19.94,87,21.91,87,23.88Z"></path><path class="cls-5" d="M164.92,28.71l.48,1.18a4.5,4.5,0,0,1-.69.15,3.56,3.56,0,0,1-1.55-.15,2,2,0,0,1-1.33-1.7,4.35,4.35,0,0,1,0-.63V23.78c0-.2,0-.2-.2-.2h-1c-.11,0-.16,0-.16-.14,0-.34,0-.68,0-1,0-.11,0-.14.14-.14.35,0,.7,0,1,0,.13,0,.17,0,.16-.17,0-.67,0-1.34,0-2,0-.13,0-.18.17-.18h1.09c.11,0,.15,0,.15.15,0,.66,0,1.32,0,2,0,.23,0,.23.22.23h1.52c.12,0,.15,0,.15.15,0,.33,0,.67,0,1,0,.13,0,.15-.16.15h-1.58c-.11,0-.15,0-.15.15,0,1.28,0,2.56,0,3.84a2,2,0,0,0,.08.53.88.88,0,0,0,.89.68C164.41,28.78,164.65,28.73,164.92,28.71Z"></path><path class="cls-5" d="M110.56,24.33v-5.4c0-.14,0-.2.18-.19.35,0,.7,0,1.05,0,.19,0,.19,0,.19.2V29.82c0,.08,0,.12-.11.12h-1.2c-.08,0-.11,0-.11-.11v-5.5Z"></path><path class="cls-5" d="M150.16,24.34v-5.4c0-.2,0-.2.2-.2s.69,0,1,0c.13,0,.17,0,.17.16V29.77c0,.13,0,.17-.17.17-.35,0-.71,0-1.07,0-.14,0-.16-.05-.16-.17Z"></path><path class="cls-5" d="M181.63,23.55a2.55,2.55,0,0,1,2-1.44,2.51,2.51,0,0,1,1.29.17s0,.06,0,.08l-.45,1.12c0,.07-.07.11-.17.08a2.06,2.06,0,0,0-2.61,1.68,1.84,1.84,0,0,0,0,.41c0,1.37,0,2.74,0,4.12,0,.13,0,.17-.18.17q-.54,0-1.08,0c-.12,0-.17,0-.17-.15q0-3.69,0-7.36c0-.11,0-.16.15-.15h1.07c.11,0,.15,0,.15.14,0,.32,0,.64,0,1a.76.76,0,0,0,0,.15Z"></path></svg> 