<?xml version="1.0" encoding="UTF-8"?> <svg xmlns="http://www.w3.org/2000/svg" xmlns:xlink="http://www.w3.org/1999/xlink" id="Layer_1" data-name="Layer 1" viewBox="0 0 200 50"><defs><style>.cls-1{fill:#1a1a1a;}.cls-2{fill:#1b1b1b;}.cls-3{fill:url(#linear-gradient);}.cls-4{fill:#928bea;opacity:0.22;}</style><linearGradient id="linear-gradient" x1="25.92" y1="2.38" x2="53.91" y2="45.9" gradientUnits="userSpaceOnUse"><stop offset="0" stop-color="#0b53ce"></stop><stop offset="0.49" stop-color="#6751ac"></stop><stop offset="1" stop-color="#0b53ce"></stop></linearGradient></defs><path class="cls-1" d="M74.07,18.4a9.23,9.23,0,0,0-3.4-.63H67c-.37,0-.37,0-.37.35v12.1c0,.37,0,.37.39.37,1.16,0,2.32,0,3.48,0a8.16,8.16,0,0,0,3.41-.76,8.47,8.47,0,0,0,1.68-1.15,1.09,1.09,0,0,1,.13-.17,5.83,5.83,0,0,0,1.46-2.68,8.19,8.19,0,0,0,.06-3.45A5,5,0,0,0,74.07,18.4Zm.78,7.51a3.88,3.88,0,0,1-3.17,2.7,15.2,15.2,0,0,1-2.69.13c-.21,0-.28-.07-.28-.28,0-.74,0-1.48,0-2.22V24.16c0-1.4,0-2.79,0-4.18,0-.35,0-.36.36-.35a18.66,18.66,0,0,1,2.69.09A3.64,3.64,0,0,1,75,23,6.18,6.18,0,0,1,74.85,25.91Z"></path><polygon class="cls-1" points="75.58 28.68 75.56 28.67 75.56 28.67 75.56 28.67 75.58 28.68"></polygon><path class="cls-1" d="M122.24,22.89A2.35,2.35,0,0,0,121,21.5a3.43,3.43,0,0,0-4.17,1.07,1.16,1.16,0,0,1-.29.37c-1-2.31-4.16-2.23-5.52-.29,0-.31,0-.63,0-.94s-.05-.25-.22-.25h-1.66c-.14,0-.21.06-.2.21v7.66c0,.32,0,.64,0,1s0,.31.29.31c.49,0,1,0,1.48,0,.31,0,.31,0,.31-.32,0-1,0-2,0-3,0-.71,0-1.42,0-2.13a2.77,2.77,0,0,1,.68-1.75,1.63,1.63,0,0,1,2.77.49,5.44,5.44,0,0,1,.15.54,8.65,8.65,0,0,1,.09,1.43c0,1.47,0,2.93,0,4.4,0,.34,0,.34.32.34s.93,0,1.4,0,.33,0,.34-.34V25.6a3.26,3.26,0,0,1,.82-2.27,1.6,1.6,0,0,1,2.71.64,7.15,7.15,0,0,1,.2,1.72v4.57c0,.32,0,.33.3.33h1.48c.23,0,.3-.09.3-.31,0-1.86,0-3.72,0-5.57A4.94,4.94,0,0,0,122.24,22.89Z"></path><path class="cls-1" d="M156.43,24a2.53,2.53,0,0,1-.6-.18l.47-.19A3.12,3.12,0,0,0,158.23,20a2.81,2.81,0,0,0-2.06-2.21,6,6,0,0,0-4.09.18c-.62.23-.61.25-.61.9V20c.2,0,.28-.13.38-.2a3.46,3.46,0,0,1,3-.59,1.68,1.68,0,0,1,1,.67,2,2,0,0,1-.94,3,4.52,4.52,0,0,1-1.45.26h-1c-.17,0-.23.07-.23.24v1.13c0,.17.07.23.23.23h1a5,5,0,0,1,1.87.35,2,2,0,0,1,1.1,2.56,2.06,2.06,0,0,1-1.69,1.4,4.23,4.23,0,0,1-3.51-.7c-.08-.05-.14-.16-.29-.09,0,.46,0,.94,0,1.41a.55.55,0,0,0,.43.64,6.74,6.74,0,0,0,4.6.16,3.58,3.58,0,0,0,2.7-3.4A2.91,2.91,0,0,0,156.43,24Z"></path><path class="cls-1" d="M178.92,25.09a3.42,3.42,0,0,0-2.7-2.27,9.09,9.09,0,0,0-2.08-.12c-.33,0-.34,0-.32-.33l.15-2.3c.05-.7,0-.57.63-.58,1.22,0,2.44,0,3.65,0,.34,0,.34,0,.35-.33v-.91c0-.48,0-.48-.46-.48h-5.49c-.35,0-.35,0-.39.35l0,.39-.36,5.3c0,.71-.1.62.61.57l.61-.05a7.39,7.39,0,0,1,2,.09,2.2,2.2,0,0,1,1.83,1.48,2.41,2.41,0,0,1-1.79,3.21,3.92,3.92,0,0,1-3.09-.53c-.12-.07-.21-.2-.42-.19v1.42c0,.53,0,.53.49.71l.25.08a8.07,8.07,0,0,0,3,.18,4.8,4.8,0,0,0,2.32-.89A4.27,4.27,0,0,0,178.92,25.09Z"></path><path class="cls-1" d="M85.63,21.47c-.37,0-.37,0-.49.34-.58,1.67-1.16,3.33-1.72,5a11,11,0,0,0-.53,1.69.36.36,0,0,0-.08.19.25.25,0,0,0-.08-.14c-.09-.09,0-.22-.09-.32-.2-.62-.39-1.24-.59-1.85l-1.5-4.59c-.11-.33-.11-.33-.45-.33h-1a4.69,4.69,0,0,0-.84,0,.27.27,0,0,0,0,.24l1.53,3.83c.62,1.56,1.25,3.12,1.86,4.68.06.16.16.31.08.5-.22.52-.37,1.07-.63,1.57A1.81,1.81,0,0,1,79,33.39l-.21,0c-.19-.07-.27,0-.27.2s0,.69,0,1,0,.34.33.39a3.4,3.4,0,0,0,3-.9A6,6,0,0,0,83.27,32l4-10.2c0-.09.13-.17,0-.31Z"></path><path class="cls-1" d="M166.54,22.51a3.29,3.29,0,0,0-3.3,1.09c-.05.06-.09.12-.19.06a5.68,5.68,0,0,1,.3-2,3,3,0,0,1,.66-1.25.71.71,0,0,1,.08-.15,3.2,3.2,0,0,1,3.55-1c.32.11.64.26,1,.41,0-.58,0-1.13,0-1.68,0-.16-.12-.2-.25-.25a4.29,4.29,0,0,0-.93-.2,6,6,0,0,0-2.46.13,5.12,5.12,0,0,0-3.2,2.82,9.46,9.46,0,0,0-.89,3.95,9.26,9.26,0,0,0,.44,3.39,4.07,4.07,0,0,0,3.17,2.9,4.14,4.14,0,0,0,4.2-1.68,4.81,4.81,0,0,0,.66-3.75A3.3,3.3,0,0,0,166.54,22.51Zm.87,4A3.53,3.53,0,0,1,167,28.2a1.91,1.91,0,0,1-3.17.35,3.07,3.07,0,0,1-.53-3.18,2,2,0,0,1,2.18-1.3,1.91,1.91,0,0,1,1.76,1.59A3.52,3.52,0,0,1,167.41,26.52Z"></path><polygon class="cls-1" points="164.01 20.4 164.01 20.41 164.01 20.41 164.01 20.4"></polygon><path class="cls-1" d="M104.17,21.34a6.43,6.43,0,0,0-3.8.38c-.74.29-.73.3-.73,1.09v1c.21,0,.28-.12.38-.19a4.28,4.28,0,0,1,2.78-.82,1.63,1.63,0,0,1,1.62,1.75.2.2,0,0,1-.2.23c-.26,0-.51.08-.77.12-.77.12-1.56.18-2.32.36a2.76,2.76,0,0,0-2.38,2.52,2.57,2.57,0,0,0,1.34,2.7,3.23,3.23,0,0,0,4-1c0-.09.08-.22.28-.24,0,.31,0,.59,0,.87s0,.4.41.4.81,0,1.22,0,.39,0,.39-.37V24.83a6.22,6.22,0,0,0-.11-1.22A2.66,2.66,0,0,0,104.17,21.34Zm.26,5.46a2.47,2.47,0,0,1-.53,1.66,2.11,2.11,0,0,1-2.28.67,1.25,1.25,0,0,1-.89-1.16,1.22,1.22,0,0,1,.79-1.31,4.52,4.52,0,0,1,1-.25l1.55-.21c.33-.05.34-.05.35.3Z"></path><path class="cls-1" d="M143.1,25.94a8.64,8.64,0,0,0-1.69-.78,6.2,6.2,0,0,1-.84-.35,1,1,0,0,1-.66-1,1,1,0,0,1,.88-.85,3.92,3.92,0,0,1,2.71.31c.09.05.18.15.34.09V22c0-.37,0-.38-.35-.48a6.57,6.57,0,0,0-2.41-.25,4.27,4.27,0,0,0-2.26.81,2.21,2.21,0,0,0-.91,1.33,2.38,2.38,0,0,0,1.25,2.79,10.26,10.26,0,0,0,1.67.72,3.21,3.21,0,0,1,1,.51,1,1,0,0,1,.41.69,1,1,0,0,1-.85,1,4.21,4.21,0,0,1-3.07-.42,1.16,1.16,0,0,0-.51-.25V30c0,.36,0,.37.35.49a6.65,6.65,0,0,0,3.25.3,4.35,4.35,0,0,0,1.68-.57,2.45,2.45,0,0,0,1.12-1.44A2.4,2.4,0,0,0,143.1,25.94Z"></path><path class="cls-1" d="M96.72,23.27a2.61,2.61,0,0,0-1.47-1.78A3.4,3.4,0,0,0,91,22.78a.28.28,0,0,1-.09-.28q0-.39,0-.78c0-.19-.06-.26-.25-.26H89c-.17,0-.23.08-.22.24v8.57c0,.31,0,.32.31.32q.72,0,1.44,0c.32,0,.33,0,.33-.35V25.67a6.15,6.15,0,0,1,0-.74,2.32,2.32,0,0,1,1.14-1.85,1.75,1.75,0,0,1,2.69,1.19,4.46,4.46,0,0,1,.12,1c0,.59,0,1.19,0,1.78v3.09c0,.42,0,.42.43.42s.84,0,1.26,0,.39,0,.39-.38v-5A6.7,6.7,0,0,0,96.72,23.27Z"></path><path class="cls-1" d="M135.83,21.46a5.94,5.94,0,0,0-2.93-.13,4.33,4.33,0,0,0-3.27,2.58,5.43,5.43,0,0,0-.27,3.74,4,4,0,0,0,3.3,3.08,5.55,5.55,0,0,0,3.36-.36c.15-.07.29-.13.29-.33V28.51l-.76.42a3,3,0,0,1-4.11-1.72,4,4,0,0,1,.11-2.52A2.71,2.71,0,0,1,133.37,23a3.07,3.07,0,0,1,2.55.34c.11.06.2.2.4.17V22.11C136.32,21.61,136.32,21.61,135.83,21.46Z"></path><path class="cls-1" d="M126.88,21.46h-1.57c-.16,0-.24.06-.23.23a1.62,1.62,0,0,1,0,.22v8.26a1,1,0,0,1,0,.17c0,.19.08.26.26.26h1.48c.33,0,.33,0,.33-.34,0-1.4,0-2.81,0-4.21s0-2.84,0-4.26C127.16,21.56,127.12,21.45,126.88,21.46Z"></path><path class="cls-2" d="M126.15,17.15a1.22,1.22,0,0,0-1.27,1.15,1.2,1.2,0,0,0,1.23,1.19,1.21,1.21,0,0,0,1.27-1.15A1.2,1.2,0,0,0,126.15,17.15Z"></path><path class="cls-3" d="M23.43,4.19V19.34A1.59,1.59,0,0,0,24.53,21l11.84,4.25s2.6,1.3,3-1.48v-8.6s0-1.33,1.62-.83l2.47,1A5,5,0,0,1,47,20.05l-.12,11.89a4.59,4.59,0,0,1-3,5.19l-2.6,1s-1.92.87-1.86-.59l.06-11.12-6.14,2.25S32,29.1,32,30.27l-.06,15.09A1.84,1.84,0,0,0,34.39,47l18.87-6.86s2.7-1.2,3-3.62V17.35a4.61,4.61,0,0,0-3.36-4.91L25.76,2.71A2,2,0,0,0,23.43,4.19Z"></path><path class="cls-4" d="M56.28,17.35V36.47c-.3,2.42-3,3.62-3,3.62L34.42,47A1.84,1.84,0,0,1,32,45.36L32,30.27c0-1.17,1.38-1.59,1.38-1.59l19.25-7S56.14,20.69,56.28,17.35Z"></path></svg> 