<?xml version="1.0" encoding="UTF-8"?> <svg xmlns="http://www.w3.org/2000/svg" id="Layer_1" data-name="Layer 1" viewBox="0 0 68.87 63"><defs><style>.cls-1{fill:#c9c9c9;opacity:0.75;}.cls-1,.cls-2{fill-rule:evenodd;}.cls-2{fill:#05924a;}.cls-3{fill:#fff;}</style></defs><polygon class="cls-1" points="35.97 6.8 31.96 0 27.82 6.8 23.39 14.35 27.65 16.07 31.89 8.83 48.37 37.33 52.34 35.12 35.97 6.8 35.97 6.8 35.97 6.8"></polygon><polygon class="cls-1" points="49.4 39.33 63.08 63.01 68.33 63.01 53.37 37.11 49.4 39.33 49.4 39.33"></polygon><polygon class="cls-2" points="0.54 62.9 31.82 8.81 63.11 62.9 0.54 62.9 0.54 62.9"></polygon><path class="cls-3" d="M41.8,32.37a1.27,1.27,0,0,0-.93-.41h-2.4a.4.4,0,0,0-.29.12l-2.37,2.37h-8l-2.38-2.37a.38.38,0,0,0-.29-.12H22.78a1.25,1.25,0,0,0-.94.42,1.28,1.28,0,0,0-.3,1l.8,5.73a8.7,8.7,0,0,0,4.51,6.46A11.78,11.78,0,0,0,30,49.47a2.4,2.4,0,0,0,.14.8,1.93,1.93,0,0,1,0,1.21,3.1,3.1,0,0,0-.1.36,4.63,4.63,0,0,0-2.73,3h-.93a.44.44,0,0,0-.38.23l-.83,1.67a.43.43,0,0,0,0,.4.41.41,0,0,0,.36.2H38.06a.42.42,0,0,0,.33-.16.42.42,0,0,0,.07-.36l-.41-1.66h0a.43.43,0,0,0-.41-.32H36.29a4.6,4.6,0,0,0-2.73-3,1.9,1.9,0,0,0-.09-.36,1.93,1.93,0,0,1,0-1.21,2.68,2.68,0,0,0,.13-.8,11.69,11.69,0,0,0,3.2-3.92,8.69,8.69,0,0,0,4.5-6.46l.81-5.74a1.26,1.26,0,0,0-.31-1ZM23.17,39l-.81-5.72a.43.43,0,0,1,.42-.46H25l1.66,1.66H26a.41.41,0,0,0-.41.42v5.4a11.69,11.69,0,0,0,.68,3.93A7.88,7.88,0,0,1,23.17,39ZM37.53,56.49H26.26l.41-.83H37.32Zm-2.11-1.67h-7.2a3.85,3.85,0,0,1,7.2,0Zm-3.6-3.32a4.25,4.25,0,0,0-.8.07,2.93,2.93,0,0,0,0-1.38l.56.4a.42.42,0,0,0,.48,0l.56-.4h0a2.93,2.93,0,0,0,0,1.38,4.25,4.25,0,0,0-.8-.07Zm.84-2.36-.84.6-.84-.6h0a10.92,10.92,0,0,1-4.56-8.87v-5H37.23v5a10.89,10.89,0,0,1-4.57,8.87ZM40.48,39a7.91,7.91,0,0,1-3.11,5.24,11.55,11.55,0,0,0,.69-3.94v-5.4a.41.41,0,0,0-.42-.42H37l1.67-1.66h2.22a.41.41,0,0,1,.31.14.39.39,0,0,1,.1.31Z"></path></svg> 