<?xml version="1.0" encoding="UTF-8"?> <svg xmlns="http://www.w3.org/2000/svg" id="Layer_1" data-name="Layer 1" viewBox="0 0 68.87 63"><defs><style>.cls-1{fill:#c9c9c9;opacity:0.75;}.cls-1,.cls-2,.cls-3{fill-rule:evenodd;}.cls-2{fill:#05924a;}.cls-3{fill:#fff;}</style></defs><polygon class="cls-1" points="35.97 6.8 31.96 0 27.82 6.8 23.39 14.35 27.65 16.07 31.89 8.83 48.37 37.33 52.34 35.12 35.97 6.8 35.97 6.8 35.97 6.8"></polygon><polygon class="cls-1" points="49.4 39.33 63.08 63.01 68.33 63.01 53.37 37.11 49.4 39.33 49.4 39.33"></polygon><polygon class="cls-2" points="0.54 62.9 31.82 8.81 63.11 62.9 0.54 62.9 0.54 62.9"></polygon><path class="cls-3" d="M29.58,39.76l.77-2.24-2-1.41a.44.44,0,0,1,.24-.8h2.56L31.9,33a.43.43,0,0,1,.41-.3.44.44,0,0,1,.42.3l.78,2.28h2.56a.45.45,0,0,1,.42.31.44.44,0,0,1-.17.49l-2,1.41L35,39.76a1.32,1.32,0,0,1,1.22,1.32v4h3.49a.44.44,0,1,1,0,.87H36.26v6.15h6.15V46.34A.44.44,0,0,0,42,45.9H41.5a.44.44,0,0,1,0-.87H42a1.32,1.32,0,0,1,1.32,1.31v5.71a1.32,1.32,0,0,1,1.31,1.32V56a1.32,1.32,0,0,1-1.31,1.32H21.34A1.32,1.32,0,0,1,20,56V53.37a1.32,1.32,0,0,1,1.32-1.32V43.71a1.31,1.31,0,0,1,1.31-1.32h5.71V41.08a1.32,1.32,0,0,1,1.22-1.32ZM43.29,52.93H21.34a.44.44,0,0,0-.44.44V56a.44.44,0,0,0,.44.44h22a.44.44,0,0,0,.44-.44V53.37A.44.44,0,0,0,43.29,52.93ZM28.36,43.27H22.65a.46.46,0,0,0-.31.13.44.44,0,0,0-.13.31v8.34h6.15Zm7,8.78v-11a.43.43,0,0,0-.43-.44H29.68a.43.43,0,0,0-.44.44v11ZM31,39.76h2.61l-1.31-.9Zm1.3-5.24-.47,1.37a.44.44,0,0,1-.42.3H30l1.15.79a.45.45,0,0,1,.17.51l-.45,1.32L32.06,38a.45.45,0,0,1,.5,0l1.23.84-.46-1.32A.46.46,0,0,1,33.5,37l1.15-.79H33.2a.44.44,0,0,1-.42-.3Z"></path></svg> 