<?xml version="1.0" encoding="UTF-8"?> <svg xmlns="http://www.w3.org/2000/svg" id="Layer_1" data-name="Layer 1" viewBox="0 0 68.87 63"><defs><style>.cls-1{fill:#c9c9c9;opacity:0.75;}.cls-1,.cls-2{fill-rule:evenodd;}.cls-2{fill:#05924a;}.cls-3{fill:#fff;}</style></defs><polygon class="cls-1" points="36.5 6.86 32.49 0.06 28.35 6.86 23.93 14.4 28.18 16.13 32.43 8.89 48.9 37.39 52.87 35.17 36.5 6.86 36.5 6.86 36.5 6.86"></polygon><polygon class="cls-1" points="49.93 39.38 63.61 63.07 68.87 63.07 53.91 37.17 49.93 39.38 49.93 39.38"></polygon><polygon class="cls-2" points="1.07 62.96 32.36 8.87 63.65 62.96 1.07 62.96 1.07 62.96"></polygon><path class="cls-3" d="M22.22,57.44H43.65a.38.38,0,0,0,.38-.31c.12-.61,1.11-5.93-.08-7.41-.64-.8-2.41-1.37-5.27-1.7V45.53a7.43,7.43,0,0,1,.94-3.59,7.65,7.65,0,0,0-2.76-10.25,4.08,4.08,0,0,0-7.85,0,7.65,7.65,0,0,0-3.72,6.55,7.56,7.56,0,0,0,1,3.7,7.42,7.42,0,0,1,.93,3.59V48c-2.85.33-4.62.9-5.27,1.7-1.18,1.48-.19,6.8-.08,7.41a.4.4,0,0,0,.39.31Zm4.71-15.87a6.86,6.86,0,0,1,2.61-9.29.36.36,0,0,0,.18-.25,3.3,3.3,0,0,1,6.42,0,.41.41,0,0,0,.19.25,6.89,6.89,0,0,1,2.61,9.29,8.09,8.09,0,0,0-1,4v2.41l-.29,0a1.9,1.9,0,0,1-.67-.18,4,4,0,0,0-1-1,2,2,0,0,1-.2-.73l-.08-.87a7.2,7.2,0,0,0,3.07-6.3.39.39,0,0,0-.37-.39A7.35,7.35,0,0,1,33.19,36a.39.39,0,0,0-.28-.15.38.38,0,0,0-.3.11s-2.53,2.5-5,2.57a.37.37,0,0,0-.36.31,6.44,6.44,0,0,0,2.9,6.45l-.07.8a2.27,2.27,0,0,1-.21.73,4.19,4.19,0,0,0-1,1,1.91,1.91,0,0,1-.66.18l-.29,0V45.53a8.2,8.2,0,0,0-1-4Zm9.73,7.52A2.87,2.87,0,0,1,35.78,51L34,50a2.87,2.87,0,0,0,1.88-2,3.36,3.36,0,0,0,.54.39,1.84,1.84,0,0,1,.25.76Zm-3.73.33a2.34,2.34,0,0,1-2.3-2.35,2.85,2.85,0,0,0,.26-1l0-.46.25.11a3.83,3.83,0,0,0,.43.17l.14,0,.31.08.16,0,.28,0h.18l.23,0h.3l.21,0,.27,0,.19,0,.3-.09.16,0,.44-.19.15-.08,0,.49a3.41,3.41,0,0,0,.26,1,2.31,2.31,0,0,1-2.3,2.35Zm-3.48-1.09a2.66,2.66,0,0,0,.54-.39,2.91,2.91,0,0,0,1.88,2l-1.78,1a2.82,2.82,0,0,1-.88-1.92,1.82,1.82,0,0,1,.24-.76Zm5.61-3.68h0a5.45,5.45,0,0,1-.62.35,3.38,3.38,0,0,1-1.46.36,3.43,3.43,0,0,1-1.47-.3h0c-.19-.08-.37-.18-.55-.27l-.13-.07A5.55,5.55,0,0,1,28,39.23a9.67,9.67,0,0,0,4.86-2.49A8,8,0,0,0,38,39.23a6.29,6.29,0,0,1-2.9,5.42ZM22.52,50.21c.56-.7,2.67-1.25,5.8-1.53l.17,0a1.74,1.74,0,0,0,0,.39,3.84,3.84,0,0,0,1.33,2.74.43.43,0,0,0,.26.09.45.45,0,0,0,.19-.05l2.71-1.56,2.72,1.56a.41.41,0,0,0,.19.05.38.38,0,0,0,.25-.09,3.79,3.79,0,0,0,1.34-2.74,2.63,2.63,0,0,0-.06-.39l.18,0c3.12.28,5.24.83,5.8,1.53.69.86.37,4.28,0,6.45H22.54c-.39-2.17-.71-5.59,0-6.45Z"></path></svg> 