<?xml version="1.0" encoding="UTF-8"?> <svg xmlns="http://www.w3.org/2000/svg" id="Layer_1" data-name="Layer 1" viewBox="0 0 200 50"><path d="M38.14,43.12V29.49h2.71l5.89,8.89V29.49h2.9V43.12H46.93L41,34.23v8.89Z"></path><path d="M52.34,43.12V29.49h8.89V32H55.34v3h5.41v2.51H55.34V40.7h6.08V43Z"></path><path d="M67,43.12V31.91H63V29.49H73.88V32h-4V43.12Z"></path><path d="M75.72,42.44V40.89a9.46,9.46,0,0,0,4,.87,4.06,4.06,0,0,0,2.42-.58A2.05,2.05,0,0,0,83,39.44a1.94,1.94,0,0,0-.58-1.35A5.44,5.44,0,0,0,80.45,37L79,36.45a7.15,7.15,0,0,1-2.6-1.55,3.07,3.07,0,0,1-.78-2,3.61,3.61,0,0,1,1.26-2.71,5.62,5.62,0,0,1,3.48-1,12.77,12.77,0,0,1,1.93.2,4.59,4.59,0,0,1,1.64.58v1.54a11,11,0,0,0-3.48-.87c-2,0-3.09.68-3.09,2a1.39,1.39,0,0,0,.58,1.16,7.74,7.74,0,0,0,1.93,1.06l1.45.58A6.52,6.52,0,0,1,84,37.13a3.45,3.45,0,0,1,.77,2.22,3.21,3.21,0,0,1-1.26,2.8A6,6,0,0,1,80,43.21a7.85,7.85,0,0,1-1.45-.09l-1.45-.29A2.28,2.28,0,0,1,75.72,42.44Z"></path><path d="M86.93,36.93V29.49h1.73v7.44a6.22,6.22,0,0,0,.87,3.67,3.65,3.65,0,0,0,5.12.29l.29-.29a6.22,6.22,0,0,0,.87-3.67V29.49h1.74V37a7.39,7.39,0,0,1-1.35,4.83,5.86,5.86,0,0,1-7.92,0A7.7,7.7,0,0,1,86.93,36.93Z"></path><path d="M100.45,43.12V29.49h1.74V43.12Z"></path><path d="M108.85,43.12V30.94H104.6V29.49h10.34v1.45h-4.35V43h-1.74Z"></path><path d="M117.26,43.12V29.49h8.4v1.45H119v4.45h6.08v1.45H119v4.63h6.86v1.45h-8.6v.2Z"></path><path d="M87.84,16.67h7.6l-4-6.5L84,21.87h-3.4l9-14a2.11,2.11,0,0,1,3-.5,1,1,0,0,1,.5.4l9,14.1h-3.4l-1.6-2.6h-7.7l-1.6-2.6m34.9,2.6V7.07h-2.9v13.4a1.78,1.78,0,0,0,.4,1,1.28,1.28,0,0,0,1,.4h13l1.7-2.6h-13.2m-47.1-2.2a5,5,0,0,0,0-10H63.14v14.8H66V9.67h9.4a2.51,2.51,0,0,1,2.3,2.5,2.47,2.47,0,0,1-2.3,2.3h-8l8.5,7.4H80l-5.7-4.8h1.3m-30,4.8h8.6a7.4,7.4,0,0,0,0-14.8h-8.6a7.4,7.4,0,1,0,0,14.8m8.4-2.6h-8.3a4.8,4.8,0,0,1,0-9.6H54a4.8,4.8,0,1,1,.4,9.6H54m54.1,2.6h8.8l1.7-2.6h-10.3a4.8,4.8,0,0,1-.4-9.6h8.7l1.7-2.6h-10.2a7.4,7.4,0,0,0,0,14.8m34.9-2.6a4.8,4.8,0,0,1-4.6-3.5h12.2l1.7-2.6h-13.9a4.8,4.8,0,0,1,4.6-3.5h8.4l1.7-2.6h-10.2a7.4,7.4,0,0,0,0,14.8h8.8l1.7-2.6H143"></path><path d="M159,7.78a3,3,0,0,1,.55,0,1,1,0,0,1,.65.18.56.56,0,0,1,.17.42.58.58,0,0,1-.42.57h0a.56.56,0,0,1,.33.45,3.14,3.14,0,0,0,.17.61h-.3a4.29,4.29,0,0,1-.15-.53c-.06-.31-.18-.42-.44-.43h-.27v1H159Zm.29,1h.29c.31,0,.5-.17.5-.42s-.2-.41-.51-.42a1.28,1.28,0,0,0-.28,0Z"></path><path d="M159.71,10.9a2.15,2.15,0,1,1,2.15-2.15A2.16,2.16,0,0,1,159.71,10.9Zm0-4.1a2,2,0,1,0,1.95,2A2,2,0,0,0,159.71,6.8Z"></path></svg> 