<?xml version="1.0" encoding="UTF-8"?> <svg xmlns="http://www.w3.org/2000/svg" xmlns:xlink="http://www.w3.org/1999/xlink" id="Layer_1" data-name="Layer 1" viewBox="0 0 200 50"><defs><style>.cls-1{fill:url(#linear-gradient);}.cls-2{fill:#011f3d;}</style><linearGradient id="linear-gradient" x1="2.5" y1="306" x2="34.52" y2="306" gradientTransform="matrix(1, 0, 0, -1, 0, 331)" gradientUnits="userSpaceOnUse"><stop offset="0" stop-color="#8e3cf7"></stop><stop offset="1" stop-color="#3cc1b7"></stop></linearGradient></defs><path class="cls-1" d="M19.9,21.65c-5.18-1.34-9.93-3-9.93-9H2.5c0,11.17,7.29,13.81,14.62,15.68,5.18,1.34,9.93,2.54,9.93,9h7.47C34.52,26.07,27.12,23.52,19.9,21.65Z"></path><path class="cls-2" d="M8.52,44.8h11a7.41,7.41,0,0,0,7.53-7.47H8.52Z"></path><path class="cls-2" d="M28.46,5.2H17.51A7.42,7.42,0,0,0,10,12.67H28.46Z"></path><path class="cls-2" d="M51.21,26.76c-3-.46-4.19-1.16-4.19-2.18S48.36,23,49.7,23a4.21,4.21,0,0,1,3.73,2.22l3.31-2.05c-1.3-2.53-3.55-3.91-7-3.91S43,21.48,43,24.72c0,3.06,2.18,4.79,6,5.35,2.85.46,4,1.06,4,2.22,0,1-1.13,1.73-3,1.73a4.35,4.35,0,0,1-3.87-2.64l-3.7,2c1.05,2.68,3.91,4.33,7.46,4.33,4.06,0,7.16-2,7.16-5.6S54.81,27.33,51.21,26.76Z"></path><path class="cls-2" d="M68,19.29a9,9,0,0,0-9.37,9.23A9,9,0,0,0,68,37.75a9,9,0,0,0,9.41-9.23A9,9,0,0,0,68,19.29ZM68,34a5.11,5.11,0,0,1-5.21-5.43,5.23,5.23,0,1,1,10.46,0A5.14,5.14,0,0,1,68,34Z"></path><path class="cls-2" d="M172.31,19.29c-5.39,0-9.09,3.84-9.09,9.23s3.7,9.23,9.09,9.23c3.95,0,6.17-1.34,7.93-3.59l-3.17-2.36a5.52,5.52,0,0,1-4.76,2.29,4.84,4.84,0,0,1-5-4.41h13.85V28.17A8.47,8.47,0,0,0,172.31,19.29Zm-4.75,7.05a4.83,4.83,0,0,1,4.75-3.52A4.69,4.69,0,0,1,177,26.34Z"></path><path class="cls-2" d="M186.26,19.72l-2.81,6.83H185l.6-1.55h2.75l.6,1.55h1.58l-2.82-6.83Zm-.14,4,.88-2.32.88,2.32Z"></path><path class="cls-2" d="M97.7,14.5h-4v5.22H85.34V16.44H90.2V12.67h-5c-2.47,0-3.84,1.34-3.84,3.77v3.28H77.66v3.77h3.66V37.33h4V23.48h8.35v10c0,2.47,1.33,3.81,3.83,3.81h5.11V33.52H97.7v-10h4.93V19.72H97.7V14.5Z"></path><path class="cls-2" d="M193.84,23v1.12H196a1.76,1.76,0,0,1-1.8,1.27,2.22,2.22,0,0,1,0-4.44,2,2,0,0,1,1.76.92l1.16-.77a3.25,3.25,0,0,0-2.92-1.45,3.45,3.45,0,0,0-3.45,3.52,3.41,3.41,0,0,0,3.45,3.53,3.17,3.17,0,0,0,3.31-3.31V23Z"></path><path class="cls-2" d="M152,23.52V37.33h4V23.52h6.66v-3.8h-6.83C153.29,19.72,152,21.05,152,23.52Z"></path><polygon class="cls-2" points="122.89 31.52 119.58 19.71 114.86 19.71 111.55 31.52 108.31 19.71 103.94 19.71 109.22 37.33 113.59 37.33 117.22 24.54 120.85 37.33 125.22 37.33 130.5 19.71 126.17 19.71 122.89 31.52"></polygon><path class="cls-2" d="M144.78,21.65a6.2,6.2,0,0,0-5.28-2.36c-5.11,0-8.77,3.81-8.77,9.23s3.66,9.23,8.77,9.23a6.08,6.08,0,0,0,5.28-2.43v2h4V19.72h-4v1.93ZM139.92,34c-3,0-5.07-2.18-5.07-5.46s2.08-5.46,5.07-5.46S145,25.25,145,28.52,142.91,34,139.92,34Z"></path></svg> 