<?xml version="1.0" encoding="UTF-8"?> <svg xmlns="http://www.w3.org/2000/svg" width="577" height="481" viewBox="0 0 577 481" version="1.1"><path d="M 238.711 15.951 C 216.411 39.081, 197.413 67.762, 185.513 96.262 C 183.960 99.981, 182.887 103.220, 183.127 103.461 C 183.368 103.701, 188.039 104.868, 193.507 106.052 C 211.949 110.048, 244.717 121.512, 262.550 130.207 L 269.600 133.644 281.050 123.213 C 299.699 106.223, 323.601 89.078, 339.533 81.265 C 342.540 79.790, 345 78.281, 345 77.912 C 345 76.522, 329.948 60.127, 319.989 50.671 C 308.186 39.464, 290.459 25.808, 278 18.326 C 270.527 13.838, 251.735 4, 250.637 4 C 250.415 4, 245.048 9.378, 238.711 15.951 M 174.074 127.304 C 168.532 141.883, 158.408 208, 161.718 208 C 162.227 208, 169.136 206.902, 177.072 205.559 C 185.007 204.217, 197.998 202.631, 205.940 202.036 C 213.883 201.440, 220.480 200.851, 220.602 200.726 C 220.724 200.602, 222.732 197.125, 225.063 193 C 230.726 182.980, 239.873 169.353, 247.759 159.187 C 251.305 154.615, 254.048 150.732, 253.854 150.560 C 251.150 148.159, 226.009 138.036, 210.187 132.978 C 198.722 129.312, 180.549 125, 176.568 125 C 175.678 125, 174.556 126.037, 174.074 127.304 M 196.748 224.518 C 186.162 225.800, 173.241 228.129, 165.608 230.132 L 161.717 231.153 162.377 239.827 C 164.392 266.277, 172.425 295.539, 184.525 320.500 C 189.738 331.256, 201.659 350.674, 202.520 349.813 C 202.758 349.575, 202.078 346.257, 201.008 342.440 C 191.952 310.138, 193.726 272.034, 205.984 235.547 C 208.193 228.973, 210 223.460, 210 223.297 C 210 222.922, 209.717 222.949, 196.748 224.518 M 267 438.500 L 267 443 292.500 443 L 318 443 318 438.500 L 318 434 292.500 434 L 267 434 267 438.500 M 393 438.500 L 393 443 467.500 443 L 542 443 542 438.500 L 542 434 467.500 434 L 393 434 393 438.500" stroke="none" fill="#177bb2" fill-rule="evenodd"></path><path d="" stroke="none" fill="#000000" fill-rule="evenodd"></path><path d="" stroke="none" fill="#000000" fill-rule="evenodd"></path><path d="M 106.500 123.585 C 82.084 126.020, 64.642 129.300, 48.295 134.530 C 42.358 136.429, 36.825 138.422, 36 138.959 C 34.763 139.763, 34.520 142.697, 34.616 155.717 C 34.791 179.438, 37.565 198.867, 44.148 222.500 C 46.610 231.337, 55.436 256.553, 56.501 257.793 C 56.640 257.954, 60.971 255.347, 66.126 251.999 C 82.418 241.420, 124.284 221.658, 137.096 218.500 L 139.691 217.861 140.343 201.680 C 141.313 177.585, 146.711 145.118, 152.381 129.276 C 153.276 126.776, 153.510 124.815, 152.956 124.473 C 151.828 123.776, 112.182 123.019, 106.500 123.585 M 126.500 245.581 C 101.174 255.972, 67 275.036, 67 278.775 C 67 284.085, 94.996 324.276, 111.701 342.949 L 115.681 347.398 121.722 338.414 C 128.749 327.963, 137.445 316.859, 145.969 307.453 C 149.286 303.793, 152 300.141, 152 299.337 C 152 298.534, 150.886 293.967, 149.524 289.188 C 147.024 280.414, 142.657 257.347, 141.490 246.750 C 140.995 242.265, 140.487 241.008, 139.178 241.034 C 138.255 241.053, 132.550 243.099, 126.500 245.581 M 155.767 329.250 C 148.931 337.431, 145.758 341.731, 138.650 352.450 L 132.052 362.400 133.776 364.326 C 136.865 367.776, 151.254 378.600, 162.500 385.934 C 183.936 399.912, 212.455 411.960, 234.783 416.471 C 244.921 418.520, 246.942 418.050, 241 415.025 C 233.875 411.397, 219.928 401.547, 211.114 393.918 C 194.704 379.714, 177.321 356.599, 166.803 334.992 C 163.886 329.001, 161.197 324.077, 160.827 324.050 C 160.457 324.022, 158.180 326.363, 155.767 329.250 M 450 336 L 450 341 496 341 L 542 341 542 336 L 542 331 496 331 L 450 331 450 336" stroke="none" fill="#f47d3c" fill-rule="evenodd"></path><path d="M 461.500 62.104 C 440.824 64.078, 411.793 71.112, 391.370 79.097 C 383.696 82.098, 381.011 83.587, 381.409 84.622 C 381.708 85.402, 383.688 88.618, 385.810 91.770 C 396.887 108.225, 412.673 141.049, 419.393 161.600 L 421.061 166.699 438.280 167.308 C 462.590 168.166, 486.113 172.093, 511.666 179.557 L 513.832 180.189 514.538 174.541 C 514.926 171.434, 515.018 158.004, 514.741 144.696 C 514.355 126.114, 513.742 117.716, 512.097 108.500 C 509.669 94.901, 505.286 77.618, 501.826 68 L 499.487 61.500 484.994 61.372 C 477.022 61.302, 466.450 61.632, 461.500 62.104 M 347 100.544 C 329.587 110.994, 292 139.461, 292 142.200 C 292 142.611, 295.953 145.607, 300.785 148.856 C 311.895 156.325, 323.736 165.686, 331.688 173.285 L 337.875 179.197 352.188 175.606 C 367.655 171.724, 379.322 169.558, 390.750 168.447 C 394.738 168.059, 398 167.347, 398 166.864 C 398 163.065, 379.681 122.915, 372.365 110.681 C 368.128 103.595, 360.741 93.062, 360 93.050 C 359.725 93.046, 353.875 96.418, 347 100.544 M 268.493 167.250 C 245.012 196.389, 228.710 229.681, 222.100 261.996 C 221.032 267.218, 220.333 271.667, 220.548 271.881 C 220.762 272.095, 221.739 270.786, 222.719 268.972 C 223.698 267.157, 227.502 261.134, 231.171 255.586 C 248.326 229.649, 274.080 207.808, 305.795 192.302 L 315.091 187.758 313.295 185.759 C 309.331 181.347, 277.945 159, 275.712 159 C 275.398 159, 272.149 162.713, 268.493 167.250 M 270.535 325.374 C 267.797 328.112, 266.460 334.843, 267.468 340.811 C 268.944 349.548, 278.383 352.612, 284.102 346.211 C 285.696 344.428, 287 342.526, 287 341.984 C 287 340.383, 281.273 340.847, 280.638 342.500 C 279.949 344.296, 275.885 344.485, 274.200 342.800 C 272.729 341.329, 272.617 332.585, 274.035 329.934 C 275.380 327.422, 278.644 327.457, 280.232 330 C 281.003 331.234, 282.564 332, 284.308 332 L 287.135 332 286.452 329.750 C 286.077 328.512, 284.843 326.488, 283.711 325.250 C 280.772 322.039, 273.804 322.105, 270.535 325.374 M 291 336 L 291 349 300 349 L 309 349 309 346.500 L 309 344 303 344 L 297 344 297 341.500 L 297 339 302 339 L 307 339 307 336 L 307 333 302 333 L 297 333 297 330.500 L 297 328 303 328 L 309 328 309 325.500 L 309 323 300 323 L 291 323 291 336 M 314 336 L 314 349 316.500 349 L 319 349 319 344 C 319 340.247, 319.370 339, 320.483 339 C 321.299 339, 323.106 341.250, 324.500 344 L 327.034 349 330.017 349 C 331.658 349, 333 348.760, 333 348.467 C 333 348.173, 331.921 345.803, 330.601 343.200 L 328.202 338.466 330.674 335.592 C 333.511 332.294, 333.214 328.959, 329.752 325.250 C 327.970 323.342, 326.615 323, 320.826 323 L 314 323 314 336 M 335 325.500 L 335 328 338.500 328 L 342 328 342 338.500 L 342 349 345 349 L 348 349 348 338.500 L 348 328 351.500 328 L 355 328 355 325.500 L 355 323 345 323 L 335 323 335 325.500 M 359 336 L 359 349 361.500 349 L 364 349 364 336 L 364 323 361.500 323 L 359 323 359 336 M 370 336 L 370 349 373 349 L 376 349 376 344 L 376 339 381 339 L 386 339 386 336.500 L 386 334 381 334 L 376 334 376 331 L 376 328 382 328 L 388 328 388 325.500 L 388 323 379 323 L 370 323 370 336 M 392 336 L 392 349 395 349 L 398 349 398 336 L 398 323 395 323 L 392 323 392 336 M 404 336 L 404 349 413 349 L 422 349 422 346.500 L 422 344 416 344 L 410 344 410 341.500 L 410 339 415 339 L 420 339 420 336 L 420 333 415 333 L 410 333 410 330.500 L 410 328 416 328 L 422 328 422 325.500 L 422 323 413 323 L 404 323 404 336 M 427 336 L 427 349 433.826 349 L 440.651 349 443.076 346.419 L 445.500 343.839 445.500 335.833 L 445.500 327.827 442.694 325.413 C 440.356 323.402, 438.815 323, 433.444 323 L 427 323 427 336 M 319 331 L 319 334 322.531 334 C 324.761 334, 326.277 333.442, 326.643 332.487 C 327.509 330.232, 325.139 328, 321.878 328 L 319 328 319 331 M 432 336 L 432 344 434.800 344 C 438.882 344, 440 342.280, 440 336 C 440 329.720, 438.882 328, 434.800 328 L 432 328 432 336 M 267 388.500 L 267 419 271.979 419 L 276.959 419 277.229 398.841 L 277.500 378.682 290.700 398.841 L 303.899 419 308.450 419 L 313 419 313 388.500 L 313 358 308.021 358 L 303.041 358 302.771 378.209 L 302.500 398.418 289.283 378.209 L 276.066 358 271.533 358 L 267 358 267 388.500 M 327.235 388.197 L 327.500 418.500 332.250 418.805 L 337 419.110 337.092 399.805 L 337.185 380.500 343.812 394.297 L 350.438 408.094 354.313 407.797 L 358.187 407.500 364.343 394.241 L 370.500 380.981 370.772 399.991 L 371.043 419 376.022 419 L 381 419 381 388.448 L 381 357.895 375.808 358.198 L 370.617 358.500 362.559 376.167 C 358.127 385.884, 354.275 393.611, 354 393.338 C 353.725 393.066, 349.874 385.116, 345.442 375.671 L 337.384 358.500 332.177 358.197 L 326.971 357.894 327.235 388.197 M 402.500 359.423 C 393.063 363.652, 388.880 376.120, 394.250 384.010 C 397.901 389.374, 400.964 390.984, 410.440 392.518 C 415.559 393.347, 420.070 394.658, 421.144 395.630 C 423.173 397.467, 423.638 402.939, 422.021 405.961 C 419.116 411.388, 404.172 411.086, 397.971 405.474 L 396.369 404.024 393.026 407.473 L 389.683 410.923 392.091 412.926 C 396.463 416.563, 401.407 418.326, 408.500 418.777 C 417.118 419.324, 422.986 417.829, 427.390 413.963 C 431.975 409.937, 433.327 406.199, 432.806 398.991 L 432.371 392.978 429.125 389.629 C 425.679 386.074, 421.717 384.520, 413.317 383.432 C 410.467 383.062, 406.755 381.921, 405.067 380.895 C 401.047 378.450, 400.763 373.147, 404.455 369.455 C 407.949 365.961, 416.187 365.814, 421.916 369.143 L 425.333 371.129 428.416 368.004 L 431.500 364.878 428.500 362.431 C 426.850 361.085, 423.925 359.540, 422 358.997 C 417.028 357.596, 406.040 357.836, 402.500 359.423 M 445 388.500 L 445 419 456.250 418.976 C 469.537 418.947, 475.240 417.817, 479.849 414.302 C 485.228 410.199, 487.285 404.290, 487.795 391.473 C 488.409 376.074, 486.958 369.702, 481.625 364.365 C 476.302 359.038, 472.371 358.012, 457.250 358.006 L 445 358 445 388.500 M 510.387 359.750 C 505.077 362.766, 503.270 364.428, 500.849 368.525 L 498.500 372.500 498.159 386.054 C 497.764 401.700, 498.719 406.471, 503.284 411.670 C 507.440 416.405, 513.188 418.951, 519.782 418.978 C 530.570 419.023, 538.031 413.351, 541.055 402.808 L 541.860 400 536.430 400 C 532.296 400, 531 400.354, 531 401.484 C 531 402.301, 529.763 404.353, 528.250 406.046 C 523.072 411.840, 513.182 410.783, 509.906 404.085 C 508.169 400.533, 507.508 380.542, 508.950 375.185 C 511.624 365.254, 525.486 363.885, 529.743 373.131 L 531.500 376.948 536.644 376.974 L 541.787 377 540.786 373.054 C 539.557 368.213, 534.244 361.818, 529.632 359.630 C 524.932 357.399, 514.411 357.465, 510.387 359.750 M 455 388.644 L 455 410.289 462.676 409.708 C 472.259 408.983, 475.002 407.176, 476.804 400.403 C 478.663 393.411, 477.907 376.033, 475.590 372.497 C 473.217 368.876, 468.250 367, 461.032 367 L 455 367 455 388.644 M 321 438.500 L 321 452 323.500 452 L 326 452 326.062 444.750 L 326.124 437.500 328.259 441.750 C 331.084 447.374, 334.134 447.549, 336.932 442.250 L 338.912 438.500 338.956 445.316 L 339 452.133 341.750 451.816 L 344.500 451.500 344.779 438.250 L 345.058 425 342.039 425 L 339.020 425 335.930 431.750 L 332.840 438.500 329.406 431.750 C 326.556 426.147, 325.550 425, 323.486 425 L 321 425 321 438.500 M 350 438.500 L 350 452.219 357.609 451.834 L 365.217 451.450 367.193 449.010 C 368.685 447.168, 369.020 445.704, 368.562 443.035 C 368.228 441.091, 367.986 438.600, 368.025 437.500 C 368.064 436.400, 368.152 434.019, 368.221 432.209 C 368.416 427.090, 366.142 425.597, 357.483 425.159 L 350 424.781 350 438.500 M 374 438.500 L 374 452 382.500 452 L 391 452 391 449 L 391 446 385 446 L 379 446 379 443.500 L 379 441 384 441 L 389 441 389 438.500 L 389 436 384 436 L 379 436 379 433 L 379 430 385 430 L 391 430 391 427.500 L 391 425 382.500 425 L 374 425 374 438.500 M 356 433 C 356 435.291, 356.454 436, 357.918 436 C 361.110 436, 363 434.884, 363 433 C 363 431.116, 361.110 430, 357.918 430 C 356.454 430, 356 430.709, 356 433 M 356 443.437 L 356 446 359.570 446 L 363.139 446 362.820 443.750 C 362.575 442.025, 361.741 441.427, 359.250 441.187 L 356 440.873 356 443.437 M 469.455 454.455 C 466.045 457.864, 466.255 460, 470 460 C 472.059 460, 473 459.508, 473 458.430 C 473 456.213, 477.384 456.997, 477.821 459.292 C 478.024 460.356, 475.896 463.739, 472.581 467.622 C 469.090 471.712, 467 475.081, 467 476.620 L 467 479.081 475.250 478.790 L 483.500 478.500 483.820 476.250 L 484.139 474 478.992 474 L 473.845 474 478.297 468.750 C 483.766 462.300, 484.558 459.980, 482.589 456.171 C 480.026 451.217, 473.540 450.369, 469.455 454.455 M 489.174 454.314 L 487 456.629 487 465.742 L 487 474.855 489.635 476.927 C 492.747 479.375, 495.077 479.529, 498.923 477.540 C 502.334 475.776, 502.969 473.695, 502.986 464.205 L 503 456.909 500.545 454.455 C 497.298 451.207, 492.153 451.143, 489.174 454.314 M 508.455 454.455 C 505.045 457.864, 505.255 460, 509 460 C 511.059 460, 512 459.508, 512 458.430 C 512 456.213, 516.384 456.997, 516.821 459.292 C 517.024 460.356, 514.896 463.739, 511.581 467.622 C 508.090 471.712, 506 475.081, 506 476.620 L 506 479.081 514.250 478.790 L 522.500 478.500 522.820 476.250 L 523.139 474 517.992 474 L 512.845 474 517.297 468.750 C 522.766 462.300, 523.558 459.980, 521.589 456.171 C 519.026 451.217, 512.540 450.369, 508.455 454.455 M 528.174 454.314 L 526 456.629 526 465.742 L 526 474.855 528.635 476.927 C 531.747 479.375, 534.077 479.529, 537.923 477.540 C 541.334 475.776, 541.969 473.695, 541.986 464.205 L 542 456.909 539.545 454.455 C 536.298 451.207, 531.153 451.143, 528.174 454.314 M 492.419 458.349 C 492.135 459.091, 492.036 462.804, 492.201 466.599 L 492.500 473.500 494.500 473.500 L 496.500 473.500 496.790 465.250 L 497.081 457 495.009 457 C 493.870 457, 492.704 457.607, 492.419 458.349 M 531.419 458.349 C 531.135 459.091, 531.036 462.804, 531.201 466.599 L 531.500 473.500 533.500 473.500 L 535.500 473.500 535.790 465.250 L 536.081 457 534.009 457 C 532.870 457, 531.704 457.607, 531.419 458.349 M 267 467.500 L 267 472 365.500 472 L 464 472 464 467.500 L 464 463 365.500 463 L 267 463 267 467.500" stroke="none" fill="#bdd73c" fill-rule="evenodd"></path><path d="M 238.711 15.951 C 216.411 39.081, 197.413 67.762, 185.513 96.262 C 183.960 99.981, 182.887 103.220, 183.127 103.461 C 183.368 103.701, 188.039 104.868, 193.507 106.052 C 211.949 110.048, 244.717 121.512, 262.550 130.207 L 269.600 133.644 281.050 123.213 C 299.699 106.223, 323.601 89.078, 339.533 81.265 C 342.540 79.790, 345 78.281, 345 77.912 C 345 76.522, 329.948 60.127, 319.989 50.671 C 308.186 39.464, 290.459 25.808, 278 18.326 C 270.527 13.838, 251.735 4, 250.637 4 C 250.415 4, 245.048 9.378, 238.711 15.951 M 174.074 127.304 C 168.532 141.883, 158.408 208, 161.718 208 C 162.227 208, 169.136 206.902, 177.072 205.559 C 185.007 204.217, 197.998 202.631, 205.940 202.036 C 213.883 201.440, 220.480 200.851, 220.602 200.726 C 220.724 200.602, 222.732 197.125, 225.063 193 C 230.726 182.980, 239.873 169.353, 247.759 159.187 C 251.305 154.615, 254.048 150.732, 253.854 150.560 C 251.150 148.159, 226.009 138.036, 210.187 132.978 C 198.722 129.312, 180.549 125, 176.568 125 C 175.678 125, 174.556 126.037, 174.074 127.304 M 196.748 224.518 C 186.162 225.800, 173.241 228.129, 165.608 230.132 L 161.717 231.153 162.377 239.827 C 164.392 266.277, 172.425 295.539, 184.525 320.500 C 189.738 331.256, 201.659 350.674, 202.520 349.813 C 202.758 349.575, 202.078 346.257, 201.008 342.440 C 191.952 310.138, 193.726 272.034, 205.984 235.547 C 208.193 228.973, 210 223.460, 210 223.297 C 210 222.922, 209.717 222.949, 196.748 224.518 M 267 438.500 L 267 443 292.500 443 L 318 443 318 438.500 L 318 434 292.500 434 L 267 434 267 438.500 M 393 438.500 L 393 443 467.500 443 L 542 443 542 438.500 L 542 434 467.500 434 L 393 434 393 438.500" stroke="none" fill="#177bb2" fill-rule="evenodd"></path><path d="" stroke="none" fill="#000000" fill-rule="evenodd"></path><path d="" stroke="none" fill="#147cb4" fill-rule="evenodd"></path><path d="" stroke="none" fill="#d7a93c" fill-rule="evenodd"></path></svg> 