<?xml version="1.0" encoding="UTF-8"?> <svg xmlns="http://www.w3.org/2000/svg" id="Layer_1" data-name="Layer 1" viewBox="0 0 68.87 63"><defs><style>.cls-1{fill:#c9c9c9;opacity:0.75;}.cls-1,.cls-2{fill-rule:evenodd;}.cls-2{fill:#05924a;}.cls-3{fill:#fff;}</style></defs><polygon class="cls-1" points="35.97 6.8 31.96 0 27.82 6.8 23.39 14.35 27.65 16.07 31.89 8.83 48.37 37.33 52.34 35.12 35.97 6.8 35.97 6.8 35.97 6.8"></polygon><polygon class="cls-1" points="49.4 39.33 63.08 63.01 68.33 63.01 53.37 37.11 49.4 39.33 49.4 39.33"></polygon><polygon class="cls-2" points="0.54 62.9 31.82 8.81 63.11 62.9 0.54 62.9 0.54 62.9"></polygon><path class="cls-3" d="M36.23,35.41a.7.7,0,0,0-.66-.18l-1.36.25-2.16.41h0a.72.72,0,0,0-.62.5.71.71,0,0,0,.23.76l.4.39.06.06,0,0-1,1.06C30,39.76,29,40.87,27.9,42h0l-1.38-1.38,0,0h0a.71.71,0,0,0-.54-.25.69.69,0,0,0-.53.25l-.5.47-1.16,1.12-2.38,2.3a.73.73,0,0,0-.26.53.72.72,0,0,0,.24.54l.49.5.29.29a.84.84,0,0,0,.59.31.83.83,0,0,0,.57-.27l0,0c.83-.81,1.7-1.61,2.55-2.42l0,0h0c.37.39.76.77,1.13,1.14l.24.24a.89.89,0,0,0,.59.3.87.87,0,0,0,.6-.32L34,39.57l.05,0,.07.07.41.4a.69.69,0,0,0,.76.21.71.71,0,0,0,.49-.6c.14-.78.29-1.56.44-2.35.07-.39.15-.78.22-1.17a.75.75,0,0,0-.19-.67Zm-.16.61c-.07.39-.15.78-.22,1.17-.15.78-.3,1.56-.44,2.35a.38.38,0,0,1-.25.33.36.36,0,0,1-.4-.12l-.42-.41-.19-.18a.18.18,0,0,0-.25,0l-.06.06a1.36,1.36,0,0,0-.12.12L28.2,45a.55.55,0,0,1-.35.22.66.66,0,0,1-.34-.2l-.24-.24-1.13-1.13a.32.32,0,0,0-.27-.14.35.35,0,0,0-.27.14l-2.55,2.42,0,0c-.27.25-.41.25-.68,0l-.28-.29-.49-.5a.42.42,0,0,1-.14-.29.41.41,0,0,1,.15-.29L24,42.4l1.16-1.11.49-.48a.47.47,0,0,1,.3-.14.38.38,0,0,1,.29.15l0,0,1.38,1.38a.42.42,0,0,0,.27.14.36.36,0,0,0,.27-.14l3.17-3.28,1-1,.1-.11.06-.07a.18.18,0,0,0,0-.24l-.19-.18c-.13-.13-.26-.27-.4-.39a.36.36,0,0,1-.13-.41.37.37,0,0,1,.34-.26l2.15-.4,1.34-.26h0a.35.35,0,0,1,.44.45Z"></path><path class="cls-3" d="M22.74,46.88a1.11,1.11,0,0,1-.81-.4l-.22-.23-.05,0-.48-.49a1,1,0,0,1-.32-.72,1,1,0,0,1,.35-.72l3.52-3.41.5-.48a1,1,0,0,1,1.44,0l.19.18,1,1c1-1,2-2,2.93-3l1-1-.2-.19-.09-.08A1,1,0,0,1,32,35.64L35.52,35a1,1,0,0,1,.88.25h0a1,1,0,0,1,.25.9L36,39.65a1,1,0,0,1-1.7.5L34.13,40l-.1-.09-5.39,5.55a1,1,0,0,1-1.56,0l-.31-.3-.88-.88-.76.71-1.64,1.56A1.13,1.13,0,0,1,22.74,46.88Zm3.16-6a.17.17,0,0,0-.09.06l-4,3.9a.12.12,0,0,0,0,.21l.56.58.22.22c.12.12.16.13.17.13s0,0,.16-.11l2.57-2.44a.62.62,0,0,1,.92,0l1.1,1.1.24.24a.36.36,0,0,0,.16.12.33.33,0,0,0,.15-.11l5.54-5.69.12-.12.07-.06a.42.42,0,0,1,.59,0l.19.17.43.42c.05.07.09.08.14.06a.11.11,0,0,0,.08-.11l.44-2.38c.06-.29.11-.58.17-.87h-.06l.11-.33a.08.08,0,0,0,0-.1.09.09,0,0,0-.1,0l-3.53.67c-.09,0-.13,0-.15.09a.13.13,0,0,0,0,.13l.32.31.29.28a.43.43,0,0,1,0,.6l-.15.16-1,1.07L28.34,42.4a.64.64,0,0,1-.44.21.65.65,0,0,1-.47-.23c-.41-.42-.85-.85-1.28-1.27L26.06,41C26,40.94,26,40.92,25.9,40.92Z"></path><path class="cls-3" d="M28.28,47.86h-3.6a.24.24,0,0,0-.24.24v7.22a.24.24,0,0,0,.24.24h3.6a.25.25,0,0,0,.24-.24V48.1a.26.26,0,0,0-.24-.24ZM28,55.09H24.91V48.33h3.14Z"></path><path class="cls-3" d="M24.68,55.81a.48.48,0,0,1-.49-.49V48.1a.49.49,0,0,1,.48-.49h3.61a.51.51,0,0,1,.49.47v7.24a.5.5,0,0,1-.49.49Zm.48-1h2.63V48.58H25.16Z"></path><path class="cls-3" d="M35.05,45.35H31.44a.24.24,0,0,0-.24.24v9.73a.24.24,0,0,0,.24.24h3.61a.24.24,0,0,0,.24-.24V45.59A.24.24,0,0,0,35.05,45.35Zm-.22,9.73H31.68V45.82h3.15Z"></path><path class="cls-3" d="M31.44,55.81a.49.49,0,0,1-.49-.49V45.59a.49.49,0,0,1,.49-.49h3.61a.49.49,0,0,1,.49.49v9.73a.49.49,0,0,1-.48.49Zm.49-1h2.65V46.07H31.93Z"></path><path class="cls-3" d="M43.71,42.29l-3.53-4.22A.21.21,0,0,0,40,38a.25.25,0,0,0-.19.09l-3.52,4.22a.25.25,0,0,0,0,.26.25.25,0,0,0,.22.13H38V55.32a.25.25,0,0,0,.25.24h3.61a.23.23,0,0,0,.23-.24V42.68h1.46a.25.25,0,0,0,.22-.13.25.25,0,0,0,0-.26Zm-1.89-.08h0a.23.23,0,0,0-.24.24V55.08H38.44V42.45a.21.21,0,0,0-.07-.17.21.21,0,0,0-.16-.08H37l3-3.61,3,3.61Z"></path><path class="cls-3" d="M38.2,55.81a.49.49,0,0,1-.49-.49V42.93H36.47a.49.49,0,0,1-.44-.28.47.47,0,0,1,.07-.52l3.52-4.22a.5.5,0,0,1,.76,0l3.54,4.24a.49.49,0,0,1,0,.52.51.51,0,0,1-.45.26H42.3V55.32a.48.48,0,0,1-.48.49Zm.49-1h2.64V42.45a.48.48,0,0,1,.49-.49h.66L40,39l-2.48,3h.68a.48.48,0,0,1,.35.14.47.47,0,0,1,.14.35Z"></path><rect class="cls-3" x="20.05" y="34.44" width="0.28" height="23.06"></rect><rect class="cls-3" x="19.8" y="34.19" width="0.78" height="23.56"></rect><rect class="cls-3" x="20.19" y="57.36" width="24.54" height="0.28"></rect><rect class="cls-3" x="19.94" y="57.11" width="25.04" height="0.78"></rect></svg> 