<?xml version="1.0" encoding="UTF-8"?> <svg xmlns="http://www.w3.org/2000/svg" id="Layer_1" data-name="Layer 1" viewBox="0 0 200 50"><defs><style>.cls-1{fill:#384850;}.cls-2{fill:#72bebf;}.cls-3{fill:#79c3c0;}.cls-4{fill:#75c0c0;}.cls-5{fill:#3780a0;}.cls-6{fill:#317ea0;}.cls-7{fill:#3d82a0;}.cls-8{fill:#e84265;}.cls-9{fill:#f7ad71;}.cls-10{fill:#7ec5c1;}.cls-11{fill:#6ebbbe;}.cls-12{fill:#f6a674;}.cls-13{fill:#f8bc6c;}.cls-14{fill:#ea3b67;}.cls-15{fill:#e54c62;}.cls-16{fill:#2b7ba1;}.cls-17{fill:#fac669;}.cls-18{fill:#69b8be;}.cls-19{fill:#f8b66e;}.cls-20{fill:#f9c16a;}.cls-21{fill:#f69f76;}.cls-22{fill:#f8b36f;}.cls-23{fill:#e74663;}.cls-24{fill:#d16693;}.cls-25{fill:#f4947a;}.cls-26{fill:#f59978;}.cls-27{fill:#eb3768;}.cls-28{fill:#2c7ba1;}.cls-29{fill:#80c7c1;}.cls-30{fill:#65b5be;}.cls-31{fill:#61b3be;}.cls-32{fill:#f48c7d;}.cls-33{fill:#a16a9e;}.cls-34{fill:#d86691;}.cls-35{fill:#9d6a9e;}.cls-36{fill:#986ba0;}.cls-37{fill:#8e6ca2;}.cls-38{fill:#946ca1;}.cls-39{fill:#f38480;}.cls-40{fill:#dd6590;}.cls-41{fill:#e2658f;}.cls-42{fill:#876ca4;}.cls-43{fill:#e7658d;}.cls-44{fill:#608f9f;}.cls-45{fill:#4484a0;}.cls-46{fill:#db7857;}.cls-47{fill:#598c9f;}.cls-48{fill:#dd7358;}.cls-49{fill:#e55261;}.cls-50{fill:#4f899f;}.cls-51{fill:#548a9f;}.cls-52{fill:#de6d59;}.cls-53{fill:#e45560;}.cls-54{fill:#cb6794;}.cls-55{fill:#e1625c;}.cls-56{fill:#df675a;}.cls-57{fill:#4a86a0;}.cls-58{fill:#e25b5e;}.cls-59{fill:#a76a9c;}.cls-60{fill:#c76895;}.cls-61{fill:#bd6897;}.cls-62{fill:#c36896;}.cls-63{fill:#ad699b;}.cls-64{fill:#b46899;}</style></defs><path class="cls-1" d="M73.36,21.2a8.29,8.29,0,0,1,4.83-2.67,6.56,6.56,0,0,1,3.37.32,3.6,3.6,0,0,1,2.2,2.39c.36-.33.69-.67,1-.95a8,8,0,0,1,6.32-1.74,3.85,3.85,0,0,1,3.48,3.8,22.44,22.44,0,0,1-.23,3.84c-.2,2.18-.43,4.35-.65,6.53a2.16,2.16,0,0,0,0,.57.88.88,0,0,0,.93.83,2.83,2.83,0,0,0,1-.16c.29-.09.5,0,.49.33a13.25,13.25,0,0,1-.31,2.51,1.64,1.64,0,0,1-.61.9,5,5,0,0,1-6.1-.44,4.59,4.59,0,0,1-1-3.22c0-1.42.22-2.83.35-4.24.15-1.56.34-3.11.48-4.67s-1.07-2.55-2.78-2A4.38,4.38,0,0,0,83.89,25a3,3,0,0,0-.2,1.39c-.35,3.52-.68,7-1,10.55a1.14,1.14,0,0,1-.89,1.09,7.39,7.39,0,0,1-3.82,0c-.68-.18-.88-.57-.81-1.27L78.3,25.48c0-.06,0-.12,0-.18.13-1.82-.91-2.69-2.68-2.19a4.16,4.16,0,0,0-2.41,2A3.63,3.63,0,0,0,73,26.67c-.35,3.41-.68,6.82-1,10.24a1.23,1.23,0,0,1-1,1.19,7.83,7.83,0,0,1-3.57,0,1.07,1.07,0,0,1-1-1.37c.41-4,.84-8.06,1.25-12.09a21,21,0,0,0,0-4.12,1,1,0,0,1,.63-1.09,7.62,7.62,0,0,1,3-.59c1.39-.08,1.74.23,1.87,1.64A1.37,1.37,0,0,0,73.36,21.2Z"></path><path class="cls-1" d="M59.94,18.46a10.63,10.63,0,0,1,3.87.64,4.06,4.06,0,0,1,.74.4,1.41,1.41,0,0,1,.55,1.89A5.36,5.36,0,0,1,64,23.16c-.44.43-.63.47-1.19.2a5.76,5.76,0,0,0-3.06-.54,2.54,2.54,0,0,0-.82.21,1.27,1.27,0,0,0-.33,2.13,5.73,5.73,0,0,0,1.8.94,14.07,14.07,0,0,1,2.32,1.1,4.14,4.14,0,0,1,2,3.14A7.32,7.32,0,0,1,63.2,36a7,7,0,0,1-4.73,2.46,11.9,11.9,0,0,1-5-.42,4,4,0,0,1-1-.49,1.52,1.52,0,0,1-.78-1.31,11.11,11.11,0,0,1,.22-2.51,3.37,3.37,0,0,1,.1-.34c.2-.49.42-.58.89-.34a8.6,8.6,0,0,0,2.77,1A4.85,4.85,0,0,0,57.78,34,1.6,1.6,0,0,0,59,32.7a1.63,1.63,0,0,0-.75-1.76,9.4,9.4,0,0,0-1.76-.82,12.4,12.4,0,0,1-1.86-.83,4,4,0,0,1-2.17-3.16,6.83,6.83,0,0,1,1.43-5.29,6.73,6.73,0,0,1,4.33-2.27A9.54,9.54,0,0,1,59.94,18.46Z"></path><path class="cls-1" d="M113.16,10.11a10.11,10.11,0,0,1,1.75.09c.75.17,1,.44.88,1.22q-.62,5.91-1.24,11.81c-.33,3.18-.66,6.35-1,9.53-.11,1.09.52,1.63,1.6,1.3s.9,0,.86.76c0,.44-.13.88-.16,1.32a2.23,2.23,0,0,1-1.63,2,5.49,5.49,0,0,1-3.91,0A3.65,3.65,0,0,1,108,34.79a19.25,19.25,0,0,1,.23-4.15c.25-2.72.55-5.44.84-8.16s.57-5.26.85-7.89c.13-1.11.26-2.23.37-3.34a1.11,1.11,0,0,1,1-1A9.21,9.21,0,0,1,113.16,10.11Z"></path><path class="cls-1" d="M102.27,18.67a5.46,5.46,0,0,1,1.76.16,1.07,1.07,0,0,1,.89,1.32c-.24,2.35-.5,4.7-.75,7.05-.2,1.81-.38,3.62-.57,5.43a.57.57,0,0,0,0,.13c0,1.13.5,1.58,1.61,1.31.9-.22,1-.17.85.75-.07.55-.15,1.09-.22,1.63a1.82,1.82,0,0,1-1,1.47,5.12,5.12,0,0,1-5.17-.14,3.69,3.69,0,0,1-1.58-2.9,14.57,14.57,0,0,1,.14-3.49c.29-3,.62-6,.94-9,.09-.86.17-1.71.27-2.56a1.2,1.2,0,0,1,1-1A5.76,5.76,0,0,1,102.27,18.67Z"></path><path class="cls-1" d="M147.62,18.56a9.6,9.6,0,0,1,2.67.35l.34.11c.88.34,1,.69.43,1.46a5.93,5.93,0,0,1-.47.53.79.79,0,0,1-1,.19,5.34,5.34,0,0,0-2.65-.39,3.26,3.26,0,0,0-3.05,2.66,7.55,7.55,0,0,0-.18,2.72c.18,1.52,1.35,2.35,3,2.21a9.06,9.06,0,0,0,3-.78c.61-.27.66-.23.64.42,0,.21-.07.41-.06.62,0,.95-.54,1.37-1.37,1.59a10.07,10.07,0,0,1-5.31.05,3.76,3.76,0,0,1-2.87-3.39,9.55,9.55,0,0,1,.28-3.91,5.79,5.79,0,0,1,5.11-4.35A10.13,10.13,0,0,1,147.62,18.56Z"></path><path class="cls-1" d="M102.45,15.56a4.89,4.89,0,0,1-1.44-.12c-.73-.22-1.13-.61-1-1.41s.2-1.76.3-2.64a1.18,1.18,0,0,1,1-1.06,7.39,7.39,0,0,1,3.56,0c.89.24,1,.67,1,1.39s-.19,1.73-.28,2.6a1.21,1.21,0,0,1-.87,1.06A6.26,6.26,0,0,1,102.45,15.56Z"></path><path class="cls-2" d="M38.12,21.68l-.35.19a.2.2,0,0,1-.13,0c-.4-.26-.93-.37-1.09-.92,0-1.85,0-3.69,0-5.54,0-.44,0-.88,0-1.32a9,9,0,0,1,1.41-.55c.24,0,.28.17.31.35a2.12,2.12,0,0,1,0,.44q0,3.31,0,6.64A.94.94,0,0,1,38.12,21.68Z"></path><path class="cls-3" d="M39.27,13.06a9.11,9.11,0,0,1,1.42-.56.72.72,0,0,1,.15.58c0,2.35,0,4.69,0,7a.9.9,0,0,1-.15.59,7.15,7.15,0,0,1-1.33.51.67.67,0,0,1-.15-.54V13.41A1.34,1.34,0,0,1,39.27,13.06Z"></path><path class="cls-4" d="M39.27,13.06c.16.14.09.33.09.5,0,2.55,0,5.11,0,7.66a4.7,4.7,0,0,1-1.25.46V14.12c0-.2.06-.43-.19-.54A7,7,0,0,1,39.27,13.06Z"></path><path class="cls-5" d="M27.63,17.59A8.48,8.48,0,0,1,29,17c.3.05.23.31.24.49,0,.73,0,1.45,0,2.18v4.7a1.7,1.7,0,0,1-.09.74.83.83,0,0,1-.44.32c-.3.06-.55.34-.9.19a.35.35,0,0,1-.06-.14,3.94,3.94,0,0,1,0-.84V18.51A2.84,2.84,0,0,0,27.63,17.59Z"></path><path class="cls-6" d="M27.63,17.59c.34,0,.26.31.26.51v7.56c-.26.35-.68.38-1.05.51a.27.27,0,0,1-.2-.12,1.1,1.1,0,0,1-.14-.64c0-2.36,0-4.72,0-7.08a3,3,0,0,1,0-.31A4.93,4.93,0,0,1,27.63,17.59Z"></path><path class="cls-7" d="M29.05,25.22a.8.8,0,0,0,.09-.43c0-2.45,0-4.89,0-7.34,0-.14.05-.3-.1-.41a2,2,0,0,1,.64-.26.73.73,0,0,1,.83.56c.06,1.53,0,3.06,0,4.59a25.84,25.84,0,0,1,0,2.64.55.55,0,0,1-.37.37c-.23.08-.46.18-.69.27S29.17,25.33,29.05,25.22Z"></path><path class="cls-8" d="M41.16,33.75A5.19,5.19,0,0,1,40,34.2c-.2.09-.26-.05-.31-.2a1.75,1.75,0,0,1,0-.4q0-3.55,0-7.11a1.6,1.6,0,0,1,0-.44.42.42,0,0,1,.19-.26A2.54,2.54,0,0,1,41,25.46a.25.25,0,0,1,.09.13,4,4,0,0,1,.07.92V32.7A9.23,9.23,0,0,0,41.16,33.75Z"></path><path class="cls-9" d="M30.65,37.83a6,6,0,0,1-1.15.45c-.29-.09-.23-.34-.24-.55,0-.94,0-1.88,0-2.83,0-1.43,0-2.86,0-4.29a.94.94,0,0,1,.14-.67l.56-.28a.18.18,0,0,1,.2,0c.25.15.57.23.56.61,0,2.34,0,4.68,0,7A1.56,1.56,0,0,1,30.65,37.83Z"></path><path class="cls-10" d="M40.7,20.71c0-2.74,0-5.47,0-8.21a5,5,0,0,1,1.08-.42c.3.11.22.38.23.6,0,1.09,0,2.18,0,3.27v3.63a1,1,0,0,1-.14.68A5.26,5.26,0,0,1,40.7,20.71Z"></path><path class="cls-11" d="M36.52,14.13c.22,0,.18.2.18.34v6.28a.86.86,0,0,1-.09.39c-.18.07-.3-.05-.43-.12s-.52-.34-.76-.52a.53.53,0,0,1-.26-.39c-.06-1.75,0-3.49,0-5.24a.6.6,0,0,1,0-.22A7.29,7.29,0,0,1,36.52,14.13Z"></path><path class="cls-12" d="M30.65,37.83c-.14-.11-.09-.27-.09-.41V30.57a.86.86,0,0,1,.09-.47c.21-.12.36,0,.51.13a5.23,5.23,0,0,1,.63.41.6.6,0,0,1,.13.28c.06,1.92,0,3.83,0,5.75a1,1,0,0,1-.15.71A5.38,5.38,0,0,1,30.65,37.83Z"></path><path class="cls-13" d="M27.89,38.9a3.7,3.7,0,0,1-1,.38.67.67,0,0,1-.24-.63c0-2.41,0-4.82,0-7.22a.82.82,0,0,1,.14-.51l1-.36a.62.62,0,0,1,.23.59c0,2.42,0,4.83,0,7.25A.69.69,0,0,1,27.89,38.9Z"></path><path class="cls-14" d="M41.16,33.75c-.29-.06-.19-.29-.19-.46q0-3.51,0-7c0-.26-.15-.52,0-.78a.84.84,0,0,1,1-.29.89.89,0,0,1,.12.55c0,2.45,0,4.9,0,7.35,0,.1,0,.21,0,.31A3.27,3.27,0,0,1,41.16,33.75Z"></path><path class="cls-15" d="M39.36,34.46a3.33,3.33,0,0,1-1,.36.41.41,0,0,1-.38-.38c-.07-.85,0-1.71,0-2.57,0-1.5,0-3,0-4.52a1.55,1.55,0,0,1,.1-.74.66.66,0,0,1,.24-.23c.28-.07.54-.39.86-.08a2.06,2.06,0,0,1,.06.7v6.54A2.88,2.88,0,0,0,39.36,34.46Z"></path><path class="cls-16" d="M25.24,26.72c-.15-.13-.08-.3-.08-.46q0-3.53,0-7c0-.84-.11-.65.67-.92.24-.08.33.07.38.25a1.34,1.34,0,0,1,0,.44q0,3.42,0,6.83a1.6,1.6,0,0,1,0,.44A1,1,0,0,1,25.24,26.72Z"></path><path class="cls-17" d="M26.3,39.52c-1.15.58-1.15.58-1.15-.66V32.31c0-.85,0-.85.87-1.06.2.21.14.47.14.72q0,3.31,0,6.64A2.55,2.55,0,0,0,26.3,39.52Z"></path><path class="cls-18" d="M35.18,14.65c.15.13.09.31.09.46v5.15c-.17.11-.28,0-.41-.09-.35-.24-.73-.44-1.07-.69a.41.41,0,0,1-.17-.32c0-1.29.05-2.59,0-3.88A11.08,11.08,0,0,1,35.18,14.65Z"></path><path class="cls-19" d="M27.89,38.9V31.25a2.3,2.3,0,0,0-.09-.69l.89-.35a.66.66,0,0,1,.14.54c0,2.48,0,5,0,7.45a1.41,1.41,0,0,1-.05.35A3.51,3.51,0,0,1,27.89,38.9Z"></path><path class="cls-20" d="M26.3,39.52c-.34,0-.28-.29-.28-.51V31.25l.8-.33V38.5a2.61,2.61,0,0,0,.1.78A1.74,1.74,0,0,1,26.3,39.52Z"></path><path class="cls-21" d="M31.8,37.38V30.81c.35-.13.52.21.8.29a.7.7,0,0,1,.38.46c.06,1.66,0,3.33,0,5a.67.67,0,0,1-.13.41A4.18,4.18,0,0,1,31.8,37.38Z"></path><path class="cls-22" d="M28.79,38.55c-.16-.14-.1-.33-.1-.5V30.21l.71-.27q0,3.91,0,7.84c0,.17-.07.35.09.5A3.06,3.06,0,0,1,28.79,38.55Z"></path><path class="cls-23" d="M39.36,34.46c-.34-.05-.26-.31-.26-.52V26.2a.24.24,0,0,1,.17-.17c.17-.05.34-.18.54-.09v7.8c0,.17-.09.41.2.46A2.06,2.06,0,0,1,39.36,34.46Z"></path><path class="cls-24" d="M38.39,26.46l-.18.1a1.16,1.16,0,0,1-.79.33.23.23,0,0,1-.18-.14,1.27,1.27,0,0,1-.06-.48v-3.7a1.3,1.3,0,0,1,0-.44c.07-.22.26-.25.45-.27h.09l.71.51A9.36,9.36,0,0,1,38.53,24c0,.62,0,1.24,0,1.86A1.07,1.07,0,0,1,38.39,26.46Z"></path><path class="cls-25" d="M35,36.14a6.06,6.06,0,0,1-1.16.45c-.23,0-.21-.23-.22-.38q0-1.87,0-3.75a.59.59,0,0,1,.1-.34c.38-.3.59.1.88.21s.47.23.48.54c-.07,1,0,1.9,0,2.85A.56.56,0,0,1,35,36.14Z"></path><path class="cls-26" d="M33.85,32.06a.75.75,0,0,0-.09.39V36.3c0,.11,0,.21.09.29a5,5,0,0,1-1,.37c0-1.84,0-3.68,0-5.52.28-.07.45.15.67.26S33.82,31.88,33.85,32.06Z"></path><path class="cls-27" d="M42.06,33.41c-.18-.13-.11-.33-.11-.49,0-2.41,0-4.82,0-7.22a1,1,0,0,0-.09-.56.41.41,0,0,1,.61-.18c0,2.67,0,5.35,0,8C42.49,33.33,42.26,33.32,42.06,33.41Z"></path><path class="cls-28" d="M26.11,26.36V18.8c0-.22.06-.47-.28-.51a2.31,2.31,0,0,1,.7-.27c.18.13.11.32.11.49q0,3.45,0,6.9a2.36,2.36,0,0,0,.09.7A.53.53,0,0,1,26.11,26.36Z"></path><path class="cls-29" d="M41.86,20.26q0-3.84,0-7.67c0-.17.07-.36-.08-.51l0,0c.6-.28.6-.28.6.37,0,2.38,0,4.75,0,7.13C42.41,20,42.3,20.22,41.86,20.26Z"></path><path class="cls-30" d="M33.58,15.28c.15,0,.18.12.18.25,0,1.16,0,2.33,0,3.49a.81.81,0,0,1-.08.25c-.39,0-.64-.31-1-.47-.15-.11-.32-.21-.34-.43.05-.88,0-1.77.06-2.65A5.93,5.93,0,0,1,33.58,15.28Z"></path><path class="cls-31" d="M32.43,15.72c.16.18.09.4.08.6a10.3,10.3,0,0,1-.08,2.15c-.34.06-.52-.24-.78-.35a8.53,8.53,0,0,1-1.27-.89,1.45,1.45,0,0,0-.71-.45Z"></path><path class="cls-32" d="M35,36.14a12.75,12.75,0,0,1,0-3.38c.26-.11.4.14.6.19.32.21.72.31.84.73a4.7,4.7,0,0,1-.11,1.94A8.94,8.94,0,0,1,35,36.14Z"></path><path class="cls-33" d="M30.11,29.67H30l0-.08c.11-1.41,0-2.82,0-4.24,0-.15,0-.32.06-.47l.35-.18c.19-.15.37-.36.61-.09a1.16,1.16,0,0,1,.06.52c0,1.37.05,2.73,0,4.09C30.85,29.62,30.48,29.65,30.11,29.67Z"></path><path class="cls-34" d="M38.39,26.46V22.93a1,1,0,0,1,.09-.55,5.58,5.58,0,0,1,1,.62c-.08.83,0,1.65-.05,2.48a.88.88,0,0,1-.13.63l-.18.09Z"></path><path class="cls-35" d="M30,24.87a2.36,2.36,0,0,1,.09.7c0,1.2,0,2.39,0,3.59,0,.16.08.37-.19.42a1.6,1.6,0,0,1-.53-.32,1.11,1.11,0,0,1-.13-.59c0-1,0-2,0-3a.82.82,0,0,1,.14-.59A2.33,2.33,0,0,1,30,24.87Z"></path><path class="cls-36" d="M29.4,25.13c0,1.38,0,2.75,0,4.13l-.79-.48c-.1-1,0-2,0-3.06a.48.48,0,0,1,.13-.32l.36-.18Z"></path><path class="cls-37" d="M26.91,26.1l1-.44v0c.2.09.22.27.22.45,0,.59,0,1.18,0,1.76,0,.18,0,.36-.22.45a5.56,5.56,0,0,1-1-.6A2.21,2.21,0,0,1,26.91,26.1Z"></path><path class="cls-38" d="M27.89,28.34A2.4,2.4,0,0,0,28,27.21a4.37,4.37,0,0,0-.08-1.53l.8-.28v2.92c0,.16.06.33-.09.46A3,3,0,0,1,27.89,28.34Z"></path><path class="cls-39" d="M36.34,35.62v-2c.11-.09.2,0,.3,0,.26.19.55.35.83.52a2.61,2.61,0,0,1,.65.45l.27.27A16.43,16.43,0,0,1,36.34,35.62Z"></path><path class="cls-40" d="M39.28,26.11c0-.91,0-1.82,0-2.73,0-.14-.07-.34.18-.38l.61.38a12.78,12.78,0,0,1,0,2.23.36.36,0,0,1-.11.23l-.18.1Z"></path><path class="cls-41" d="M40,25.84v-2a.77.77,0,0,1,.08-.47l.81.52a2,2,0,0,1,0,1.59Z"></path><path class="cls-42" d="M26.91,26.1v1.64a13.43,13.43,0,0,1-1.66-1l.87-.36.62-.25Z"></path><path class="cls-43" d="M40.88,25.49V23.9A10.47,10.47,0,0,1,42.47,25a1.4,1.4,0,0,0-.61.18l-.89.35Z"></path><path class="cls-1" d="M132.32,18.81a12.4,12.4,0,0,0-4.85-.24,8.72,8.72,0,0,0-7.07,4.94,14.53,14.53,0,0,0-1.19,9,6.62,6.62,0,0,0,5,5.56,13.42,13.42,0,0,0,5.2.35,9.08,9.08,0,0,0,3.56-1,2.43,2.43,0,0,0,1.29-1.5,15.78,15.78,0,0,0,.29-3c0-.37-.19-.48-.52-.33l-.77.35a10.94,10.94,0,0,1-5.48,1.2,3,3,0,0,1-3-2.41c-.08-.31-.1-.64-.16-1s.06-.32.31-.29a21.85,21.85,0,0,0,3.06.2,10.24,10.24,0,0,0,3.33-.37,6.51,6.51,0,0,0,4.73-4C137.24,23.06,136.08,19.82,132.32,18.81Zm-2,7.22a4.71,4.71,0,0,1-2.56.87c-.42.05-.85.05-1.28.07v0h-1.33c-.23,0-.29-.08-.23-.29a6,6,0,0,1,1.46-2.83,3.45,3.45,0,0,1,3.48-.88,1.48,1.48,0,0,1,1.17,1.19A1.84,1.84,0,0,1,130.35,26Z"></path><path class="cls-1" d="M173.62,26.49a3.41,3.41,0,0,0-1.26-1.94,4.59,4.59,0,0,0,1.17-.59,3,3,0,0,0,1.28-3.06,2.46,2.46,0,0,0-2.18-2,26.89,26.89,0,0,0-5.88-.21c-.43,0-.59.32-.64.72-.4,3.46-.8,6.93-1.21,10.39a.53.53,0,0,0,.49.66,5.74,5.74,0,0,0,1.85,0,.66.66,0,0,0,.56-.65c.12-1.09.26-2.17.37-3.26.08-.71.07-.71.77-.69,1.19,0,1.5.26,1.88,1.37.3.91.61,1.82.9,2.73a.64.64,0,0,0,.63.52,9.37,9.37,0,0,0,1.91,0c.49-.07.57-.21.42-.69C174.33,28.68,174,27.59,173.62,26.49Zm-1.92-3.83a1.6,1.6,0,0,1-1.48.95c-.22,0-.44,0-.72,0s-.73.15-.91-.08,0-.62,0-.94.12-.93.16-1.4c0-.17.06-.27.26-.27.58,0,1.16,0,1.73,0A1.12,1.12,0,0,1,171.7,22.66Z"></path><path class="cls-1" d="M163.61,22.89a4.1,4.1,0,0,0-3.5-4,28.81,28.81,0,0,0-6.16-.17c-.43,0-.59.3-.64.7-.38,3.44-.78,6.87-1.16,10.3-.07.63,0,.76.69.77h2.6a21.84,21.84,0,0,0,2.95-.11,5.73,5.73,0,0,0,4.7-3.65A8.21,8.21,0,0,0,163.61,22.89Zm-3.4,3.39a3.09,3.09,0,0,1-3,2h-.75c-.34,0-.68,0-1,0s-.32,0-.29-.29q.42-3.34.79-6.68c0-.28.13-.39.42-.38.66,0,1.33,0,2,0a2.17,2.17,0,0,1,2.18,2A5.93,5.93,0,0,1,160.21,26.28Z"></path><path class="cls-44" d="M37.68,21.86l-.36.19c-.21.25-.53.28-.8.42s-.27.11-.39,0c-.08-.51-.25-1,.12-1.49l.36.18Z"></path><path class="cls-45" d="M30.92,24.52l-.54.17V17.23a10.15,10.15,0,0,1,1.34.81.83.83,0,0,1,.13.41c0,1.87,0,3.74,0,5.6A.83.83,0,0,1,30.92,24.52Z"></path><path class="cls-46" d="M30.11,29.67l.8-.36a.74.74,0,0,1,.73-.24,1.57,1.57,0,0,1,.07,1.58c-.41-.08-.65-.47-1.06-.55C30.54,29.87,30.22,29.9,30.11,29.67Z"></path><path class="cls-47" d="M36.25,21a6.36,6.36,0,0,0-.09,1.51.41.41,0,0,1-.29.25A3.1,3.1,0,0,1,35,23a.21.21,0,0,1-.18-.14,15.27,15.27,0,0,1,0-2.53.28.28,0,0,1,.12-.23c.12.05.2.18.35.18Z"></path><path class="cls-48" d="M31.71,30.65c0-.4,0-.79,0-1.18,0-.14,0-.31-.17-.34,0-.23.22-.21.35-.29s.47-.25.73-.07.11.62.12.94,0,.65,0,1,0,.39-.22.49c-.26-.09-.43-.32-.71-.36Z"></path><path class="cls-49" d="M38.12,34.55c-.28,0-.46-.26-.71-.37a1.07,1.07,0,0,1-.15-.63q0-3,0-6c0-.25,0-.52.23-.67l.71-.27a1,1,0,0,0-.09.56Z"></path><path class="cls-50" d="M32.78,18.74l.89.53.18.18a.53.53,0,0,1,.13.36c0,1.14.05,2.28,0,3.43a1.27,1.27,0,0,1-1.2.57.36.36,0,0,1-.08-.15c-.09-1.19,0-2.39,0-3.58v-.84A.69.69,0,0,1,32.78,18.74Z"></path><path class="cls-51" d="M33.85,23.35v-3.9l1.07.63v2.83c-.18.38-.57.37-.89.51A.21.21,0,0,1,33.85,23.35Z"></path><path class="cls-52" d="M32.52,31.17a6.68,6.68,0,0,0,0-2.4c0-.19.16-.21.28-.28s.46-.22.73-.09a.61.61,0,0,1,.2.55q0,1.13,0,2.25a.66.66,0,0,1-.22.59l-.63-.35Z"></path><path class="cls-53" d="M37.5,26.83a1,1,0,0,0-.09.55v6.8c-.27-.17-.54-.34-.8-.52a1,1,0,0,1-.06-.35c0-1.93,0-3.87,0-5.8a1.5,1.5,0,0,1,0-.22.69.69,0,0,1,.74-.47Z"></path><path class="cls-54" d="M37.32,26.82l-.63.35a.13.13,0,0,1-.21,0,1.71,1.71,0,0,1-.1-.74V23a.88.88,0,0,1,.14-.63,3.46,3.46,0,0,1,.8-.33Z"></path><path class="cls-55" d="M35.54,33,35,32.76c-.09-.19-.33-.18-.45-.34a.8.8,0,0,1-.13-.42c0-1.31,0-2.62,0-3.93.1-.34.43-.37.7-.48a.48.48,0,0,1,.48,0,.7.7,0,0,1,.14.54c0,1.43,0,2.87,0,4.3C35.77,32.66,35.79,32.9,35.54,33Z"></path><path class="cls-56" d="M34.56,28v4.45c-.25-.09-.42-.34-.71-.36l-.35-.27a19.62,19.62,0,0,0,.08-2.87c0-.18.05-.39-.18-.5.12-.33.47-.31.7-.45S34.41,27.86,34.56,28Z"></path><path class="cls-57" d="M32.78,18.74v5a1.57,1.57,0,0,1-.95.45.19.19,0,0,1-.12-.07V18l.71.43Z"></path><path class="cls-58" d="M35.54,33a.76.76,0,0,0,.09-.42V28c0-.13,0-.27-.1-.36s.14-.2.25-.27.46-.27.74-.18h.17c0,2,0,4,0,6a.92.92,0,0,1-.09.47l-.27-.09Z"></path><path class="cls-59" d="M31.72,24.16h.09a.58.58,0,0,1,.13.41c0,1.39,0,2.77,0,4.16a.31.31,0,0,1-.07.21l-.35.18-.63.18c0-1.6,0-3.19,0-4.79Z"></path><path class="cls-60" d="M36.52,27.17l-.71.27a.58.58,0,0,1-.06-.34c0-1.29,0-2.59,0-3.88a.88.88,0,0,1,.14-.59l.27-.16.36-.09Z"></path><path class="cls-61" d="M34.56,28l-.44.09a.6.6,0,0,1-.14-.49c0-1.33,0-2.65,0-4a.43.43,0,0,1,.07-.25,7.49,7.49,0,0,0,.9-.44h.18a.75.75,0,0,1,.22.65c0,1.21,0,2.42,0,3.63a.82.82,0,0,1-.15.5Z"></path><path class="cls-62" d="M35.18,27.7V24.11a4.31,4.31,0,0,0-.08-1.19,2.78,2.78,0,0,1,.79-.29c0,1.46,0,2.92,0,4.38a.8.8,0,0,1-.09.43l-.28.18Z"></path><path class="cls-63" d="M31.89,29a2.36,2.36,0,0,1-.09-.7c0-1.36,0-2.72,0-4.08l1-.39v0a1.1,1.1,0,0,1,.14.64c0,1.2,0,2.4,0,3.61a.75.75,0,0,1-.14.54l-.27.17C32.28,28.74,32.11,28.94,31.89,29Z"></path><path class="cls-64" d="M32.78,28.6V23.81l1.07-.46H34a2.28,2.28,0,0,1,.1.74c0,1.32,0,2.65,0,4l-.72.36Z"></path></svg> 