<?xml version="1.0" encoding="UTF-8"?> <svg xmlns="http://www.w3.org/2000/svg" id="Layer_1" data-name="Layer 1" viewBox="0 0 200 50"><defs><style>.cls-1{fill:#fa4616;}</style></defs><path class="cls-1" d="M159.5,38.2V26.36c0-4.77-1.47-7.75-5.93-7.75-2.6,0-4.45,1.6-6,3.1a52.45,52.45,0,0,0-4.32,5.1V30c1.18-1.33,2.9-3.3,4.47-5,1.6-1.54,2.68-2.35,4.36-2.35,2.1,0,3,1.16,3,4.27V38.2Z"></path><path class="cls-1" d="M143.21,38.2h4.47V26.84c-1.2,1.32-3.32,3.67-4.47,5ZM82.84,44.94V5.06a1.25,1.25,0,0,0-1.25-1.27H41.77A1.27,1.27,0,0,0,40.5,5.06h0V44.94a1.27,1.27,0,0,0,1.27,1.27H81.58A1.25,1.25,0,0,0,82.84,45Zm-1.69-.37h-39V5.5h39Z"></path><path class="cls-1" d="M56.64,38.31c5.87,0,9.51-3.25,9.51-11.57V12.54H61.86V27.09c0,5.5-2.16,7.31-5.24,7.31s-5.08-1.83-5.08-7.31V12.54H47.07v14.2C47.07,35.06,50.81,38.31,56.64,38.31ZM74.26,16A2.52,2.52,0,0,0,77,13.69a1.62,1.62,0,0,0,0-.22,2.74,2.74,0,0,0-5.47,0A2.51,2.51,0,0,0,74,16ZM72,19.31h4.43v19H72Zm20.14-6.52-.17-1-3.65.07V17a28.47,28.47,0,0,1,3.85-4.21Zm.64,16.45c3.8,3.66,12.07,2.37,12.8-6.83.8-10.11-5.78-11.82-9.2-10.88a9,9,0,0,0-3.6,2.24,32.73,32.73,0,0,0-4.46,5.5v3.34a26,26,0,0,1,4.46-5.5c.41-.37.85-.74,1.32-1.1,3.25-2.52,7.37-.77,6.89,5.75-.46,6.19-4.9,7.2-8.22,4.17V18.6l-4.45,6V38.19h4.46Zm27.08,6.88H120l.35,2.08H124V27c0-5.26-2.3-8.14-7-8.14a14.67,14.67,0,0,0-7.72,2.46l1.62,3a10.53,10.53,0,0,1,5.3-1.84c2.53,0,3.38,1.7,3.42,3.69-7.73.84-11.1,2.95-11.1,7a5.3,5.3,0,0,0,5.06,5.53h.54A9.29,9.29,0,0,0,120,36.16Zm-7.14-3.34c0-1.89,1.69-3.23,6.8-3.88v4.23c-1.38,1.3-2.57,2.07-4.11,2.07s-2.66-.73-2.66-2.42ZM139.83,38l-.77-3.27a5.46,5.46,0,0,1-1.95.42c-1.81,0-2.66-1.08-2.66-3.3v-9h4.8v-3.5h-4.8V14.2h-3.69l-.53,5.13-2.94.19v3.31H130v9c0,4.07,1.61,6.83,6,6.83A11.9,11.9,0,0,0,139.83,38Zm7.85-18V11.8h-4.47V24.71A31.63,31.63,0,0,1,147.68,20Z"></path></svg> 